G04 #@! TF.GenerationSoftware,KiCad,Pcbnew,(5.1.4)-1*
G04 #@! TF.CreationDate,2020-04-02T17:49:22-05:00*
G04 #@! TF.ProjectId,DoubLayerSim,446f7562-4c61-4796-9572-53696d2e6b69,rev?*
G04 #@! TF.SameCoordinates,Original*
G04 #@! TF.FileFunction,Copper,L1,Top*
G04 #@! TF.FilePolarity,Positive*
%FSLAX46Y46*%
G04 Gerber Fmt 4.6, Leading zero omitted, Abs format (unit mm)*
G04 Created by KiCad (PCBNEW (5.1.4)-1) date 2020-04-02 17:49:22*
%MOMM*%
%LPD*%
G04 APERTURE LIST*
%ADD10O,1.500000X1.050000*%
%ADD11R,1.500000X1.050000*%
%ADD12O,1.900000X1.900000*%
%ADD13C,1.900000*%
%ADD14R,3.000000X3.000000*%
%ADD15C,3.000000*%
%ADD16R,2.000000X2.000000*%
%ADD17C,2.000000*%
%ADD18C,1.600000*%
%ADD19O,2.000000X2.000000*%
%ADD20C,0.750000*%
%ADD21C,0.254000*%
G04 APERTURE END LIST*
D10*
X171932600Y-115443000D03*
X171932600Y-117221000D03*
D11*
X171932600Y-113538000D03*
D12*
X168097200Y-65430400D03*
D13*
X160858200Y-65557400D03*
D12*
X140665200Y-102743000D03*
D13*
X140538200Y-95504000D03*
D12*
X147853400Y-107619800D03*
D13*
X140614400Y-107746800D03*
D12*
X193116200Y-114325400D03*
D13*
X192989200Y-107086400D03*
X180594000Y-100634800D03*
X183134000Y-100634800D03*
X185674000Y-100634800D03*
X185674000Y-84124800D03*
X185674000Y-81584800D03*
X188214000Y-100634800D03*
X188214000Y-98094800D03*
X188214000Y-95554800D03*
X188214000Y-93014800D03*
X188214000Y-90474800D03*
X188214000Y-87934800D03*
X188214000Y-85394800D03*
X188214000Y-82854800D03*
X188214000Y-80314800D03*
X188214000Y-77774800D03*
X188214000Y-75234800D03*
X188214000Y-72694800D03*
X172974000Y-100634800D03*
X172974000Y-98094800D03*
X172974000Y-95554800D03*
X172974000Y-93014800D03*
X172974000Y-90474800D03*
X172974000Y-87934800D03*
X172974000Y-85394800D03*
X172974000Y-82854800D03*
X172974000Y-80314800D03*
X172974000Y-77774800D03*
X172974000Y-75234800D03*
X172974000Y-72694800D03*
X196621400Y-92100400D03*
X196621400Y-94640400D03*
X196621400Y-97180400D03*
X196367400Y-80162400D03*
X196367400Y-75082400D03*
X196367400Y-77622400D03*
X187325000Y-54381400D03*
X184785000Y-54381400D03*
X182245000Y-54381400D03*
X179705000Y-54381400D03*
X177165000Y-54381400D03*
X174625000Y-54381400D03*
X163576000Y-58293000D03*
X166116000Y-58293000D03*
X161036000Y-58293000D03*
X184658000Y-111048800D03*
X184658000Y-116128800D03*
X184658000Y-113588800D03*
D14*
X121437400Y-50266600D03*
D15*
X121437400Y-55346600D03*
X121666000Y-70510400D03*
D14*
X121666000Y-65430400D03*
D13*
X135077200Y-49580800D03*
X135077200Y-62280800D03*
X154127200Y-49580800D03*
X154127200Y-62280800D03*
X133705600Y-95351600D03*
X133705600Y-97891600D03*
X133705600Y-100431600D03*
X133705600Y-102971600D03*
X133705600Y-105511600D03*
X133705600Y-108051600D03*
X155295600Y-97891600D03*
X155295600Y-100431600D03*
X155295600Y-102971600D03*
X155295600Y-105511600D03*
X155295600Y-108051600D03*
X122605800Y-86817200D03*
X122605800Y-84277200D03*
X122605800Y-81737200D03*
X135407400Y-72186800D03*
X135407400Y-84886800D03*
X154457400Y-72186800D03*
X154457400Y-84886800D03*
D16*
X119938800Y-96189800D03*
D17*
X124938800Y-96189800D03*
D18*
X120218200Y-104749600D03*
X125218200Y-104749600D03*
X125243600Y-108407200D03*
X120243600Y-108407200D03*
X120218200Y-112141000D03*
X125218200Y-112141000D03*
D16*
X120319800Y-116586000D03*
D19*
X125399800Y-116586000D03*
D13*
X163271200Y-115443000D03*
D12*
X156032200Y-115570000D03*
D13*
X203479400Y-88366600D03*
D20*
X179705000Y-75615800D02*
X179705000Y-58013600D01*
X185674000Y-81584800D02*
X179705000Y-75615800D01*
X179705000Y-58013600D02*
X179705000Y-54381400D01*
X193675000Y-82854800D02*
X196367400Y-80162400D01*
X188214000Y-82854800D02*
X193675000Y-82854800D01*
X171932600Y-117221000D02*
X179857400Y-117221000D01*
X181153801Y-118517401D02*
X194740799Y-118517401D01*
X179857400Y-117221000D02*
X181153801Y-118517401D01*
X194740799Y-118517401D02*
X198907400Y-114350800D01*
X198907400Y-99466400D02*
X196621400Y-97180400D01*
X198907400Y-114350800D02*
X198907400Y-99466400D01*
X122605800Y-86817200D02*
X126898400Y-86817200D01*
X126898400Y-86817200D02*
X129921000Y-89839800D01*
X129921000Y-89839800D02*
X129921000Y-110109000D01*
X137033000Y-117221000D02*
X171932600Y-117221000D01*
X129921000Y-110109000D02*
X137033000Y-117221000D01*
X172974000Y-98094800D02*
X169113200Y-98094800D01*
X169113200Y-98094800D02*
X167487600Y-99720400D01*
X167487600Y-99720400D02*
X167487600Y-102844600D01*
X175691800Y-111048800D02*
X184658000Y-111048800D01*
X167487600Y-102844600D02*
X175691800Y-111048800D01*
X189026800Y-111048800D02*
X192989200Y-107086400D01*
X184658000Y-111048800D02*
X189026800Y-111048800D01*
X172974000Y-95554800D02*
X178104800Y-100685600D01*
X178104800Y-100685600D02*
X178104800Y-104013000D01*
X178104800Y-104013000D02*
X178841400Y-104749600D01*
X178841400Y-104749600D02*
X189890400Y-104749600D01*
X189890400Y-104749600D02*
X192633600Y-102006400D01*
X192633600Y-98628200D02*
X196621400Y-94640400D01*
X192633600Y-102006400D02*
X192633600Y-98628200D01*
X171630498Y-93014800D02*
X172974000Y-93014800D01*
X164922200Y-99723098D02*
X171630498Y-93014800D01*
X164922200Y-102946200D02*
X164922200Y-99723098D01*
X155524200Y-112344200D02*
X164922200Y-102946200D01*
X137998200Y-112344200D02*
X155524200Y-112344200D01*
X133705600Y-108051600D02*
X137998200Y-112344200D01*
X165252400Y-90474800D02*
X172974000Y-90474800D01*
X155295600Y-100431600D02*
X165252400Y-90474800D01*
X171630498Y-87934800D02*
X172974000Y-87934800D01*
X149450902Y-87934800D02*
X171630498Y-87934800D01*
X141881702Y-95504000D02*
X149450902Y-87934800D01*
X140538200Y-95504000D02*
X141881702Y-95504000D01*
X160858200Y-58470800D02*
X161036000Y-58293000D01*
X160858200Y-65557400D02*
X160858200Y-58470800D01*
X160858200Y-73279000D02*
X172974000Y-85394800D01*
X160858200Y-65557400D02*
X160858200Y-73279000D01*
X128371600Y-62280800D02*
X135077200Y-62280800D01*
X121437400Y-55346600D02*
X128371600Y-62280800D01*
X123949302Y-81737200D02*
X124482702Y-81203800D01*
X122605800Y-81737200D02*
X123949302Y-81737200D01*
X131724400Y-81203800D02*
X135407400Y-84886800D01*
X124482702Y-81203800D02*
X131724400Y-81203800D01*
X121666000Y-80797400D02*
X122605800Y-81737200D01*
X121666000Y-70510400D02*
X121666000Y-80797400D01*
X119938800Y-94439800D02*
X119938800Y-96189800D01*
X119938800Y-84687198D02*
X119938800Y-94439800D01*
X122605800Y-82020198D02*
X119938800Y-84687198D01*
X122605800Y-81737200D02*
X122605800Y-82020198D01*
X119938800Y-104470200D02*
X120218200Y-104749600D01*
X119938800Y-96189800D02*
X119938800Y-104470200D01*
X120218200Y-108381800D02*
X120243600Y-108407200D01*
X120218200Y-104749600D02*
X120218200Y-108381800D01*
X120243600Y-112115600D02*
X120218200Y-112141000D01*
X120243600Y-108407200D02*
X120243600Y-112115600D01*
X120218200Y-116484400D02*
X120319800Y-116586000D01*
X120218200Y-112141000D02*
X120218200Y-116484400D01*
X153187400Y-110159800D02*
X155295600Y-108051600D01*
X135407400Y-88874600D02*
X137236200Y-90703400D01*
X135407400Y-84886800D02*
X135407400Y-88874600D01*
X137236200Y-90703400D02*
X137236200Y-109550200D01*
X137236200Y-109550200D02*
X138938000Y-111252000D01*
X138938000Y-111252000D02*
X152095200Y-111252000D01*
X152095200Y-111252000D02*
X153187400Y-110159800D01*
X140614400Y-102793800D02*
X140665200Y-102743000D01*
X140614400Y-107746800D02*
X140614400Y-102793800D01*
X155067000Y-102743000D02*
X155295600Y-102971600D01*
X140665200Y-102743000D02*
X155067000Y-102743000D01*
X154127200Y-62280800D02*
X148564600Y-67843400D01*
X148564600Y-78994000D02*
X154457400Y-84886800D01*
X148564600Y-67843400D02*
X148564600Y-78994000D01*
X165938200Y-58470800D02*
X166116000Y-58293000D01*
X166116000Y-63449200D02*
X168097200Y-65430400D01*
X166116000Y-58293000D02*
X166116000Y-63449200D01*
X195417401Y-74132401D02*
X195417401Y-71236801D01*
X196367400Y-75082400D02*
X195417401Y-74132401D01*
X195417401Y-71236801D02*
X188239400Y-64058800D01*
X188239400Y-64058800D02*
X188239400Y-61772800D01*
X188239400Y-61772800D02*
X191363600Y-58648600D01*
X191363600Y-58648600D02*
X191363600Y-53365400D01*
X191363600Y-53365400D02*
X188518800Y-50520600D01*
X173888400Y-50520600D02*
X166116000Y-58293000D01*
X188518800Y-50520600D02*
X173888400Y-50520600D01*
X171932600Y-113538000D02*
X179273200Y-113538000D01*
X181864000Y-116128800D02*
X184658000Y-116128800D01*
X179273200Y-113538000D02*
X181864000Y-116128800D01*
X191312800Y-116128800D02*
X193116200Y-114325400D01*
X184658000Y-116128800D02*
X191312800Y-116128800D01*
X203479400Y-82194400D02*
X196367400Y-75082400D01*
X203479400Y-88366600D02*
X203479400Y-82194400D01*
X163271200Y-115443000D02*
X171932600Y-115443000D01*
D21*
G36*
X206408722Y-46498044D02*
G01*
X206358421Y-117724520D01*
X206358085Y-117728352D01*
X206358398Y-117757752D01*
X206358377Y-117787173D01*
X206358752Y-117791003D01*
X206376564Y-119465375D01*
X195047071Y-119471581D01*
X195126103Y-119447607D01*
X195300174Y-119354565D01*
X195452748Y-119229350D01*
X195484131Y-119191110D01*
X199581115Y-115094127D01*
X199619349Y-115062749D01*
X199744564Y-114910175D01*
X199837606Y-114736104D01*
X199868414Y-114634546D01*
X199894902Y-114547227D01*
X199914248Y-114350800D01*
X199909400Y-114301577D01*
X199909400Y-99515615D01*
X199914247Y-99466399D01*
X199909400Y-99417183D01*
X199909400Y-99417177D01*
X199894902Y-99269974D01*
X199837606Y-99081096D01*
X199744564Y-98907025D01*
X199619349Y-98754451D01*
X199581115Y-98723073D01*
X198197631Y-97339589D01*
X198198400Y-97335721D01*
X198198400Y-97025079D01*
X198137796Y-96720406D01*
X198018919Y-96433411D01*
X197846336Y-96175121D01*
X197626679Y-95955464D01*
X197559236Y-95910400D01*
X197626679Y-95865336D01*
X197846336Y-95645679D01*
X198018919Y-95387389D01*
X198137796Y-95100394D01*
X198198400Y-94795721D01*
X198198400Y-94485079D01*
X198137796Y-94180406D01*
X198018919Y-93893411D01*
X197846336Y-93635121D01*
X197626679Y-93415464D01*
X197497019Y-93328828D01*
X197541547Y-93200152D01*
X196621400Y-92280005D01*
X195701253Y-93200152D01*
X195745781Y-93328828D01*
X195616121Y-93415464D01*
X195396464Y-93635121D01*
X195223881Y-93893411D01*
X195105004Y-94180406D01*
X195044400Y-94485079D01*
X195044400Y-94795721D01*
X195045169Y-94799589D01*
X191959886Y-97884873D01*
X191921652Y-97916251D01*
X191890274Y-97954485D01*
X191796437Y-98068825D01*
X191703394Y-98242897D01*
X191646098Y-98431774D01*
X191626753Y-98628200D01*
X191631601Y-98677426D01*
X191631600Y-101591358D01*
X189475359Y-103747600D01*
X179256442Y-103747600D01*
X179106800Y-103597959D01*
X179106800Y-101734552D01*
X179673853Y-101734552D01*
X179763579Y-101993842D01*
X180044671Y-102129735D01*
X180346873Y-102208179D01*
X180658573Y-102226159D01*
X180967791Y-102182984D01*
X181262644Y-102080313D01*
X181424421Y-101993842D01*
X181514147Y-101734552D01*
X180594000Y-100814405D01*
X179673853Y-101734552D01*
X179106800Y-101734552D01*
X179106800Y-101183726D01*
X179148487Y-101303444D01*
X179234958Y-101465221D01*
X179494248Y-101554947D01*
X180414395Y-100634800D01*
X179494248Y-99714653D01*
X179234958Y-99804379D01*
X179099065Y-100085471D01*
X179039476Y-100315033D01*
X179035006Y-100300296D01*
X178941963Y-100126224D01*
X178848126Y-100011884D01*
X178816749Y-99973651D01*
X178778515Y-99942273D01*
X178371290Y-99535048D01*
X179673853Y-99535048D01*
X180594000Y-100455195D01*
X181514147Y-99535048D01*
X181424421Y-99275758D01*
X181143329Y-99139865D01*
X180841127Y-99061421D01*
X180529427Y-99043441D01*
X180220209Y-99086616D01*
X179925356Y-99189287D01*
X179763579Y-99275758D01*
X179673853Y-99535048D01*
X178371290Y-99535048D01*
X174550231Y-95713989D01*
X174551000Y-95710121D01*
X174551000Y-95399479D01*
X174490396Y-95094806D01*
X174371519Y-94807811D01*
X174198936Y-94549521D01*
X173979279Y-94329864D01*
X173911836Y-94284800D01*
X173979279Y-94239736D01*
X174198936Y-94020079D01*
X174371519Y-93761789D01*
X174490396Y-93474794D01*
X174551000Y-93170121D01*
X174551000Y-92859479D01*
X174490396Y-92554806D01*
X174371519Y-92267811D01*
X174198936Y-92009521D01*
X173979279Y-91789864D01*
X173911836Y-91744800D01*
X173979279Y-91699736D01*
X174198936Y-91480079D01*
X174371519Y-91221789D01*
X174490396Y-90934794D01*
X174551000Y-90630121D01*
X174551000Y-90319479D01*
X174490396Y-90014806D01*
X174371519Y-89727811D01*
X174198936Y-89469521D01*
X173979279Y-89249864D01*
X173911836Y-89204800D01*
X173979279Y-89159736D01*
X174198936Y-88940079D01*
X174371519Y-88681789D01*
X174490396Y-88394794D01*
X174551000Y-88090121D01*
X174551000Y-87779479D01*
X174490396Y-87474806D01*
X174371519Y-87187811D01*
X174198936Y-86929521D01*
X173979279Y-86709864D01*
X173911836Y-86664800D01*
X173979279Y-86619736D01*
X174198936Y-86400079D01*
X174371519Y-86141789D01*
X174490396Y-85854794D01*
X174551000Y-85550121D01*
X174551000Y-85239479D01*
X174490396Y-84934806D01*
X174371519Y-84647811D01*
X174198936Y-84389521D01*
X173979279Y-84169864D01*
X173911836Y-84124800D01*
X173979279Y-84079736D01*
X174198936Y-83860079D01*
X174371519Y-83601789D01*
X174490396Y-83314794D01*
X174551000Y-83010121D01*
X174551000Y-82699479D01*
X174490396Y-82394806D01*
X174371519Y-82107811D01*
X174198936Y-81849521D01*
X173979279Y-81629864D01*
X173849619Y-81543228D01*
X173894147Y-81414552D01*
X172974000Y-80494405D01*
X172053853Y-81414552D01*
X172098381Y-81543228D01*
X171968721Y-81629864D01*
X171749064Y-81849521D01*
X171576481Y-82107811D01*
X171457604Y-82394806D01*
X171446562Y-82450320D01*
X169375615Y-80379373D01*
X171382641Y-80379373D01*
X171425816Y-80688591D01*
X171528487Y-80983444D01*
X171614958Y-81145221D01*
X171874248Y-81234947D01*
X172794395Y-80314800D01*
X173153605Y-80314800D01*
X174073752Y-81234947D01*
X174333042Y-81145221D01*
X174468935Y-80864129D01*
X174547379Y-80561927D01*
X174565359Y-80250227D01*
X174522184Y-79941009D01*
X174419513Y-79646156D01*
X174333042Y-79484379D01*
X174073752Y-79394653D01*
X173153605Y-80314800D01*
X172794395Y-80314800D01*
X171874248Y-79394653D01*
X171614958Y-79484379D01*
X171479065Y-79765471D01*
X171400621Y-80067673D01*
X171382641Y-80379373D01*
X169375615Y-80379373D01*
X161860200Y-72863959D01*
X161860200Y-72539479D01*
X171397000Y-72539479D01*
X171397000Y-72850121D01*
X171457604Y-73154794D01*
X171576481Y-73441789D01*
X171749064Y-73700079D01*
X171968721Y-73919736D01*
X172036164Y-73964800D01*
X171968721Y-74009864D01*
X171749064Y-74229521D01*
X171576481Y-74487811D01*
X171457604Y-74774806D01*
X171397000Y-75079479D01*
X171397000Y-75390121D01*
X171457604Y-75694794D01*
X171576481Y-75981789D01*
X171749064Y-76240079D01*
X171968721Y-76459736D01*
X172036164Y-76504800D01*
X171968721Y-76549864D01*
X171749064Y-76769521D01*
X171576481Y-77027811D01*
X171457604Y-77314806D01*
X171397000Y-77619479D01*
X171397000Y-77930121D01*
X171457604Y-78234794D01*
X171576481Y-78521789D01*
X171749064Y-78780079D01*
X171968721Y-78999736D01*
X172098381Y-79086372D01*
X172053853Y-79215048D01*
X172974000Y-80135195D01*
X173894147Y-79215048D01*
X173849619Y-79086372D01*
X173979279Y-78999736D01*
X174198936Y-78780079D01*
X174371519Y-78521789D01*
X174490396Y-78234794D01*
X174551000Y-77930121D01*
X174551000Y-77619479D01*
X174490396Y-77314806D01*
X174371519Y-77027811D01*
X174198936Y-76769521D01*
X173979279Y-76549864D01*
X173911836Y-76504800D01*
X173979279Y-76459736D01*
X174198936Y-76240079D01*
X174371519Y-75981789D01*
X174490396Y-75694794D01*
X174551000Y-75390121D01*
X174551000Y-75079479D01*
X174490396Y-74774806D01*
X174371519Y-74487811D01*
X174198936Y-74229521D01*
X173979279Y-74009864D01*
X173911836Y-73964800D01*
X173979279Y-73919736D01*
X174198936Y-73700079D01*
X174371519Y-73441789D01*
X174490396Y-73154794D01*
X174551000Y-72850121D01*
X174551000Y-72539479D01*
X174490396Y-72234806D01*
X174371519Y-71947811D01*
X174198936Y-71689521D01*
X173979279Y-71469864D01*
X173720989Y-71297281D01*
X173433994Y-71178404D01*
X173129321Y-71117800D01*
X172818679Y-71117800D01*
X172514006Y-71178404D01*
X172227011Y-71297281D01*
X171968721Y-71469864D01*
X171749064Y-71689521D01*
X171576481Y-71947811D01*
X171457604Y-72234806D01*
X171397000Y-72539479D01*
X161860200Y-72539479D01*
X161860200Y-66784527D01*
X161863479Y-66782336D01*
X162083136Y-66562679D01*
X162255719Y-66304389D01*
X162374596Y-66017394D01*
X162435200Y-65712721D01*
X162435200Y-65402079D01*
X162374596Y-65097406D01*
X162255719Y-64810411D01*
X162083136Y-64552121D01*
X161863479Y-64332464D01*
X161860200Y-64330273D01*
X161860200Y-59638929D01*
X162041279Y-59517936D01*
X162166463Y-59392752D01*
X162655853Y-59392752D01*
X162745579Y-59652042D01*
X163026671Y-59787935D01*
X163328873Y-59866379D01*
X163640573Y-59884359D01*
X163949791Y-59841184D01*
X164244644Y-59738513D01*
X164406421Y-59652042D01*
X164496147Y-59392752D01*
X163576000Y-58472605D01*
X162655853Y-59392752D01*
X162166463Y-59392752D01*
X162260936Y-59298279D01*
X162347572Y-59168619D01*
X162476248Y-59213147D01*
X163396395Y-58293000D01*
X163755605Y-58293000D01*
X164675752Y-59213147D01*
X164804428Y-59168619D01*
X164891064Y-59298279D01*
X165110721Y-59517936D01*
X165114000Y-59520127D01*
X165114001Y-63399974D01*
X165109153Y-63449200D01*
X165128498Y-63645626D01*
X165185794Y-63834503D01*
X165208091Y-63876218D01*
X165278837Y-64008575D01*
X165404052Y-64161149D01*
X165442286Y-64192527D01*
X166527596Y-65277838D01*
X166512570Y-65430400D01*
X166543018Y-65739546D01*
X166633193Y-66036812D01*
X166779628Y-66310773D01*
X166976697Y-66550903D01*
X167216827Y-66747972D01*
X167490788Y-66894407D01*
X167788054Y-66984582D01*
X168019731Y-67007400D01*
X168174669Y-67007400D01*
X168406346Y-66984582D01*
X168703612Y-66894407D01*
X168977573Y-66747972D01*
X169217703Y-66550903D01*
X169414772Y-66310773D01*
X169561207Y-66036812D01*
X169651382Y-65739546D01*
X169681830Y-65430400D01*
X169651382Y-65121254D01*
X169561207Y-64823988D01*
X169414772Y-64550027D01*
X169217703Y-64309897D01*
X168977573Y-64112828D01*
X168703612Y-63966393D01*
X168406346Y-63876218D01*
X168174669Y-63853400D01*
X168019731Y-63853400D01*
X167944638Y-63860796D01*
X167118000Y-63034159D01*
X167118000Y-59520127D01*
X167121279Y-59517936D01*
X167340936Y-59298279D01*
X167513519Y-59039989D01*
X167632396Y-58752994D01*
X167693000Y-58448321D01*
X167693000Y-58137679D01*
X167692231Y-58133811D01*
X171599963Y-54226079D01*
X173048000Y-54226079D01*
X173048000Y-54536721D01*
X173108604Y-54841394D01*
X173227481Y-55128389D01*
X173400064Y-55386679D01*
X173619721Y-55606336D01*
X173878011Y-55778919D01*
X174165006Y-55897796D01*
X174469679Y-55958400D01*
X174780321Y-55958400D01*
X175084994Y-55897796D01*
X175371989Y-55778919D01*
X175630279Y-55606336D01*
X175849936Y-55386679D01*
X175895000Y-55319236D01*
X175940064Y-55386679D01*
X176159721Y-55606336D01*
X176418011Y-55778919D01*
X176705006Y-55897796D01*
X177009679Y-55958400D01*
X177320321Y-55958400D01*
X177624994Y-55897796D01*
X177911989Y-55778919D01*
X178170279Y-55606336D01*
X178389936Y-55386679D01*
X178435000Y-55319236D01*
X178480064Y-55386679D01*
X178699721Y-55606336D01*
X178703001Y-55608527D01*
X178703000Y-58062822D01*
X178703001Y-58062832D01*
X178703000Y-75566584D01*
X178698153Y-75615800D01*
X178703000Y-75665016D01*
X178703000Y-75665022D01*
X178711972Y-75756115D01*
X178717498Y-75812226D01*
X178745169Y-75903444D01*
X178774794Y-76001103D01*
X178867836Y-76175175D01*
X178993051Y-76327749D01*
X179031291Y-76359132D01*
X184097769Y-81425611D01*
X184097000Y-81429479D01*
X184097000Y-81740121D01*
X184157604Y-82044794D01*
X184276481Y-82331789D01*
X184449064Y-82590079D01*
X184668721Y-82809736D01*
X184736164Y-82854800D01*
X184668721Y-82899864D01*
X184449064Y-83119521D01*
X184276481Y-83377811D01*
X184157604Y-83664806D01*
X184097000Y-83969479D01*
X184097000Y-84280121D01*
X184157604Y-84584794D01*
X184276481Y-84871789D01*
X184449064Y-85130079D01*
X184668721Y-85349736D01*
X184927011Y-85522319D01*
X185214006Y-85641196D01*
X185518679Y-85701800D01*
X185829321Y-85701800D01*
X186133994Y-85641196D01*
X186420989Y-85522319D01*
X186637000Y-85377986D01*
X186637000Y-85550121D01*
X186697604Y-85854794D01*
X186816481Y-86141789D01*
X186989064Y-86400079D01*
X187208721Y-86619736D01*
X187276164Y-86664800D01*
X187208721Y-86709864D01*
X186989064Y-86929521D01*
X186816481Y-87187811D01*
X186697604Y-87474806D01*
X186637000Y-87779479D01*
X186637000Y-88090121D01*
X186697604Y-88394794D01*
X186816481Y-88681789D01*
X186989064Y-88940079D01*
X187208721Y-89159736D01*
X187276164Y-89204800D01*
X187208721Y-89249864D01*
X186989064Y-89469521D01*
X186816481Y-89727811D01*
X186697604Y-90014806D01*
X186637000Y-90319479D01*
X186637000Y-90630121D01*
X186697604Y-90934794D01*
X186816481Y-91221789D01*
X186989064Y-91480079D01*
X187208721Y-91699736D01*
X187276164Y-91744800D01*
X187208721Y-91789864D01*
X186989064Y-92009521D01*
X186816481Y-92267811D01*
X186697604Y-92554806D01*
X186637000Y-92859479D01*
X186637000Y-93170121D01*
X186697604Y-93474794D01*
X186816481Y-93761789D01*
X186989064Y-94020079D01*
X187208721Y-94239736D01*
X187276164Y-94284800D01*
X187208721Y-94329864D01*
X186989064Y-94549521D01*
X186816481Y-94807811D01*
X186697604Y-95094806D01*
X186637000Y-95399479D01*
X186637000Y-95710121D01*
X186697604Y-96014794D01*
X186816481Y-96301789D01*
X186989064Y-96560079D01*
X187208721Y-96779736D01*
X187276164Y-96824800D01*
X187208721Y-96869864D01*
X186989064Y-97089521D01*
X186816481Y-97347811D01*
X186697604Y-97634806D01*
X186637000Y-97939479D01*
X186637000Y-98250121D01*
X186697604Y-98554794D01*
X186816481Y-98841789D01*
X186989064Y-99100079D01*
X187208721Y-99319736D01*
X187276164Y-99364800D01*
X187208721Y-99409864D01*
X186989064Y-99629521D01*
X186944000Y-99696964D01*
X186898936Y-99629521D01*
X186679279Y-99409864D01*
X186420989Y-99237281D01*
X186133994Y-99118404D01*
X185829321Y-99057800D01*
X185518679Y-99057800D01*
X185214006Y-99118404D01*
X184927011Y-99237281D01*
X184668721Y-99409864D01*
X184449064Y-99629521D01*
X184404000Y-99696964D01*
X184358936Y-99629521D01*
X184139279Y-99409864D01*
X183880989Y-99237281D01*
X183593994Y-99118404D01*
X183289321Y-99057800D01*
X182978679Y-99057800D01*
X182674006Y-99118404D01*
X182387011Y-99237281D01*
X182128721Y-99409864D01*
X181909064Y-99629521D01*
X181822428Y-99759181D01*
X181693752Y-99714653D01*
X180773605Y-100634800D01*
X181693752Y-101554947D01*
X181822428Y-101510419D01*
X181909064Y-101640079D01*
X182128721Y-101859736D01*
X182387011Y-102032319D01*
X182674006Y-102151196D01*
X182978679Y-102211800D01*
X183289321Y-102211800D01*
X183593994Y-102151196D01*
X183880989Y-102032319D01*
X184139279Y-101859736D01*
X184358936Y-101640079D01*
X184404000Y-101572636D01*
X184449064Y-101640079D01*
X184668721Y-101859736D01*
X184927011Y-102032319D01*
X185214006Y-102151196D01*
X185518679Y-102211800D01*
X185829321Y-102211800D01*
X186133994Y-102151196D01*
X186420989Y-102032319D01*
X186679279Y-101859736D01*
X186898936Y-101640079D01*
X186944000Y-101572636D01*
X186989064Y-101640079D01*
X187208721Y-101859736D01*
X187467011Y-102032319D01*
X187754006Y-102151196D01*
X188058679Y-102211800D01*
X188369321Y-102211800D01*
X188673994Y-102151196D01*
X188960989Y-102032319D01*
X189219279Y-101859736D01*
X189438936Y-101640079D01*
X189611519Y-101381789D01*
X189730396Y-101094794D01*
X189791000Y-100790121D01*
X189791000Y-100479479D01*
X189730396Y-100174806D01*
X189611519Y-99887811D01*
X189438936Y-99629521D01*
X189219279Y-99409864D01*
X189151836Y-99364800D01*
X189219279Y-99319736D01*
X189438936Y-99100079D01*
X189611519Y-98841789D01*
X189730396Y-98554794D01*
X189791000Y-98250121D01*
X189791000Y-97939479D01*
X189730396Y-97634806D01*
X189611519Y-97347811D01*
X189438936Y-97089521D01*
X189219279Y-96869864D01*
X189151836Y-96824800D01*
X189219279Y-96779736D01*
X189438936Y-96560079D01*
X189611519Y-96301789D01*
X189730396Y-96014794D01*
X189791000Y-95710121D01*
X189791000Y-95399479D01*
X189730396Y-95094806D01*
X189611519Y-94807811D01*
X189438936Y-94549521D01*
X189219279Y-94329864D01*
X189151836Y-94284800D01*
X189219279Y-94239736D01*
X189438936Y-94020079D01*
X189611519Y-93761789D01*
X189730396Y-93474794D01*
X189791000Y-93170121D01*
X189791000Y-92859479D01*
X189730396Y-92554806D01*
X189611519Y-92267811D01*
X189542806Y-92164973D01*
X195030041Y-92164973D01*
X195073216Y-92474191D01*
X195175887Y-92769044D01*
X195262358Y-92930821D01*
X195521648Y-93020547D01*
X196441795Y-92100400D01*
X196801005Y-92100400D01*
X197721152Y-93020547D01*
X197980442Y-92930821D01*
X198116335Y-92649729D01*
X198194779Y-92347527D01*
X198212759Y-92035827D01*
X198169584Y-91726609D01*
X198066913Y-91431756D01*
X197980442Y-91269979D01*
X197721152Y-91180253D01*
X196801005Y-92100400D01*
X196441795Y-92100400D01*
X195521648Y-91180253D01*
X195262358Y-91269979D01*
X195126465Y-91551071D01*
X195048021Y-91853273D01*
X195030041Y-92164973D01*
X189542806Y-92164973D01*
X189438936Y-92009521D01*
X189219279Y-91789864D01*
X189151836Y-91744800D01*
X189219279Y-91699736D01*
X189438936Y-91480079D01*
X189611519Y-91221789D01*
X189703118Y-91000648D01*
X195701253Y-91000648D01*
X196621400Y-91920795D01*
X197541547Y-91000648D01*
X197451821Y-90741358D01*
X197170729Y-90605465D01*
X196868527Y-90527021D01*
X196556827Y-90509041D01*
X196247609Y-90552216D01*
X195952756Y-90654887D01*
X195790979Y-90741358D01*
X195701253Y-91000648D01*
X189703118Y-91000648D01*
X189730396Y-90934794D01*
X189791000Y-90630121D01*
X189791000Y-90319479D01*
X189730396Y-90014806D01*
X189611519Y-89727811D01*
X189438936Y-89469521D01*
X189219279Y-89249864D01*
X189151836Y-89204800D01*
X189219279Y-89159736D01*
X189438936Y-88940079D01*
X189611519Y-88681789D01*
X189730396Y-88394794D01*
X189791000Y-88090121D01*
X189791000Y-87779479D01*
X189730396Y-87474806D01*
X189611519Y-87187811D01*
X189438936Y-86929521D01*
X189219279Y-86709864D01*
X189151836Y-86664800D01*
X189219279Y-86619736D01*
X189438936Y-86400079D01*
X189611519Y-86141789D01*
X189730396Y-85854794D01*
X189791000Y-85550121D01*
X189791000Y-85239479D01*
X189730396Y-84934806D01*
X189611519Y-84647811D01*
X189438936Y-84389521D01*
X189219279Y-84169864D01*
X189151836Y-84124800D01*
X189219279Y-84079736D01*
X189438936Y-83860079D01*
X189441127Y-83856800D01*
X193625784Y-83856800D01*
X193675000Y-83861647D01*
X193724216Y-83856800D01*
X193724223Y-83856800D01*
X193871426Y-83842302D01*
X194060304Y-83785006D01*
X194234375Y-83691964D01*
X194386949Y-83566749D01*
X194418332Y-83528509D01*
X196208211Y-81738631D01*
X196212079Y-81739400D01*
X196522721Y-81739400D01*
X196827394Y-81678796D01*
X197114389Y-81559919D01*
X197372679Y-81387336D01*
X197592336Y-81167679D01*
X197764919Y-80909389D01*
X197883796Y-80622394D01*
X197944400Y-80317721D01*
X197944400Y-80007079D01*
X197883796Y-79702406D01*
X197764919Y-79415411D01*
X197592336Y-79157121D01*
X197372679Y-78937464D01*
X197243019Y-78850828D01*
X197287547Y-78722152D01*
X196367400Y-77802005D01*
X195447253Y-78722152D01*
X195491781Y-78850828D01*
X195362121Y-78937464D01*
X195142464Y-79157121D01*
X194969881Y-79415411D01*
X194851004Y-79702406D01*
X194790400Y-80007079D01*
X194790400Y-80317721D01*
X194791169Y-80321589D01*
X193259959Y-81852800D01*
X189441127Y-81852800D01*
X189438936Y-81849521D01*
X189219279Y-81629864D01*
X189151836Y-81584800D01*
X189219279Y-81539736D01*
X189438936Y-81320079D01*
X189611519Y-81061789D01*
X189730396Y-80774794D01*
X189791000Y-80470121D01*
X189791000Y-80159479D01*
X189730396Y-79854806D01*
X189611519Y-79567811D01*
X189438936Y-79309521D01*
X189219279Y-79089864D01*
X189151836Y-79044800D01*
X189219279Y-78999736D01*
X189438936Y-78780079D01*
X189611519Y-78521789D01*
X189730396Y-78234794D01*
X189791000Y-77930121D01*
X189791000Y-77686973D01*
X194776041Y-77686973D01*
X194819216Y-77996191D01*
X194921887Y-78291044D01*
X195008358Y-78452821D01*
X195267648Y-78542547D01*
X196187795Y-77622400D01*
X195267648Y-76702253D01*
X195008358Y-76791979D01*
X194872465Y-77073071D01*
X194794021Y-77375273D01*
X194776041Y-77686973D01*
X189791000Y-77686973D01*
X189791000Y-77619479D01*
X189730396Y-77314806D01*
X189611519Y-77027811D01*
X189438936Y-76769521D01*
X189219279Y-76549864D01*
X189089619Y-76463228D01*
X189134147Y-76334552D01*
X188214000Y-75414405D01*
X187293853Y-76334552D01*
X187338381Y-76463228D01*
X187208721Y-76549864D01*
X186989064Y-76769521D01*
X186816481Y-77027811D01*
X186697604Y-77314806D01*
X186637000Y-77619479D01*
X186637000Y-77930121D01*
X186697604Y-78234794D01*
X186816481Y-78521789D01*
X186989064Y-78780079D01*
X187208721Y-78999736D01*
X187276164Y-79044800D01*
X187208721Y-79089864D01*
X186989064Y-79309521D01*
X186816481Y-79567811D01*
X186697604Y-79854806D01*
X186637000Y-80159479D01*
X186637000Y-80331614D01*
X186420989Y-80187281D01*
X186133994Y-80068404D01*
X185829321Y-80007800D01*
X185518679Y-80007800D01*
X185514811Y-80008569D01*
X180805615Y-75299373D01*
X186622641Y-75299373D01*
X186665816Y-75608591D01*
X186768487Y-75903444D01*
X186854958Y-76065221D01*
X187114248Y-76154947D01*
X188034395Y-75234800D01*
X188393605Y-75234800D01*
X189313752Y-76154947D01*
X189573042Y-76065221D01*
X189708935Y-75784129D01*
X189787379Y-75481927D01*
X189805359Y-75170227D01*
X189762184Y-74861009D01*
X189659513Y-74566156D01*
X189573042Y-74404379D01*
X189313752Y-74314653D01*
X188393605Y-75234800D01*
X188034395Y-75234800D01*
X187114248Y-74314653D01*
X186854958Y-74404379D01*
X186719065Y-74685471D01*
X186640621Y-74987673D01*
X186622641Y-75299373D01*
X180805615Y-75299373D01*
X180707000Y-75200759D01*
X180707000Y-72539479D01*
X186637000Y-72539479D01*
X186637000Y-72850121D01*
X186697604Y-73154794D01*
X186816481Y-73441789D01*
X186989064Y-73700079D01*
X187208721Y-73919736D01*
X187338381Y-74006372D01*
X187293853Y-74135048D01*
X188214000Y-75055195D01*
X189134147Y-74135048D01*
X189089619Y-74006372D01*
X189219279Y-73919736D01*
X189438936Y-73700079D01*
X189611519Y-73441789D01*
X189730396Y-73154794D01*
X189791000Y-72850121D01*
X189791000Y-72539479D01*
X189730396Y-72234806D01*
X189611519Y-71947811D01*
X189438936Y-71689521D01*
X189219279Y-71469864D01*
X188960989Y-71297281D01*
X188673994Y-71178404D01*
X188369321Y-71117800D01*
X188058679Y-71117800D01*
X187754006Y-71178404D01*
X187467011Y-71297281D01*
X187208721Y-71469864D01*
X186989064Y-71689521D01*
X186816481Y-71947811D01*
X186697604Y-72234806D01*
X186637000Y-72539479D01*
X180707000Y-72539479D01*
X180707000Y-55608527D01*
X180710279Y-55606336D01*
X180929936Y-55386679D01*
X180975000Y-55319236D01*
X181020064Y-55386679D01*
X181239721Y-55606336D01*
X181498011Y-55778919D01*
X181785006Y-55897796D01*
X182089679Y-55958400D01*
X182400321Y-55958400D01*
X182704994Y-55897796D01*
X182991989Y-55778919D01*
X183250279Y-55606336D01*
X183469936Y-55386679D01*
X183515000Y-55319236D01*
X183560064Y-55386679D01*
X183779721Y-55606336D01*
X184038011Y-55778919D01*
X184325006Y-55897796D01*
X184629679Y-55958400D01*
X184940321Y-55958400D01*
X185244994Y-55897796D01*
X185531989Y-55778919D01*
X185790279Y-55606336D01*
X185915463Y-55481152D01*
X186404853Y-55481152D01*
X186494579Y-55740442D01*
X186775671Y-55876335D01*
X187077873Y-55954779D01*
X187389573Y-55972759D01*
X187698791Y-55929584D01*
X187993644Y-55826913D01*
X188155421Y-55740442D01*
X188245147Y-55481152D01*
X187325000Y-54561005D01*
X186404853Y-55481152D01*
X185915463Y-55481152D01*
X186009936Y-55386679D01*
X186096572Y-55257019D01*
X186225248Y-55301547D01*
X187145395Y-54381400D01*
X187504605Y-54381400D01*
X188424752Y-55301547D01*
X188684042Y-55211821D01*
X188819935Y-54930729D01*
X188898379Y-54628527D01*
X188916359Y-54316827D01*
X188873184Y-54007609D01*
X188770513Y-53712756D01*
X188684042Y-53550979D01*
X188424752Y-53461253D01*
X187504605Y-54381400D01*
X187145395Y-54381400D01*
X186225248Y-53461253D01*
X186096572Y-53505781D01*
X186009936Y-53376121D01*
X185915463Y-53281648D01*
X186404853Y-53281648D01*
X187325000Y-54201795D01*
X188245147Y-53281648D01*
X188155421Y-53022358D01*
X187874329Y-52886465D01*
X187572127Y-52808021D01*
X187260427Y-52790041D01*
X186951209Y-52833216D01*
X186656356Y-52935887D01*
X186494579Y-53022358D01*
X186404853Y-53281648D01*
X185915463Y-53281648D01*
X185790279Y-53156464D01*
X185531989Y-52983881D01*
X185244994Y-52865004D01*
X184940321Y-52804400D01*
X184629679Y-52804400D01*
X184325006Y-52865004D01*
X184038011Y-52983881D01*
X183779721Y-53156464D01*
X183560064Y-53376121D01*
X183515000Y-53443564D01*
X183469936Y-53376121D01*
X183250279Y-53156464D01*
X182991989Y-52983881D01*
X182704994Y-52865004D01*
X182400321Y-52804400D01*
X182089679Y-52804400D01*
X181785006Y-52865004D01*
X181498011Y-52983881D01*
X181239721Y-53156464D01*
X181020064Y-53376121D01*
X180975000Y-53443564D01*
X180929936Y-53376121D01*
X180710279Y-53156464D01*
X180451989Y-52983881D01*
X180164994Y-52865004D01*
X179860321Y-52804400D01*
X179549679Y-52804400D01*
X179245006Y-52865004D01*
X178958011Y-52983881D01*
X178699721Y-53156464D01*
X178480064Y-53376121D01*
X178435000Y-53443564D01*
X178389936Y-53376121D01*
X178170279Y-53156464D01*
X177911989Y-52983881D01*
X177624994Y-52865004D01*
X177320321Y-52804400D01*
X177009679Y-52804400D01*
X176705006Y-52865004D01*
X176418011Y-52983881D01*
X176159721Y-53156464D01*
X175940064Y-53376121D01*
X175895000Y-53443564D01*
X175849936Y-53376121D01*
X175630279Y-53156464D01*
X175371989Y-52983881D01*
X175084994Y-52865004D01*
X174780321Y-52804400D01*
X174469679Y-52804400D01*
X174165006Y-52865004D01*
X173878011Y-52983881D01*
X173619721Y-53156464D01*
X173400064Y-53376121D01*
X173227481Y-53634411D01*
X173108604Y-53921406D01*
X173048000Y-54226079D01*
X171599963Y-54226079D01*
X174303442Y-51522600D01*
X188103759Y-51522600D01*
X190361601Y-53780443D01*
X190361600Y-58233558D01*
X187565686Y-61029473D01*
X187527452Y-61060851D01*
X187496074Y-61099085D01*
X187402237Y-61213425D01*
X187309194Y-61387497D01*
X187251898Y-61576374D01*
X187232553Y-61772800D01*
X187237401Y-61822025D01*
X187237400Y-64009584D01*
X187232553Y-64058800D01*
X187237400Y-64108016D01*
X187237400Y-64108022D01*
X187249924Y-64235187D01*
X187251898Y-64255226D01*
X187275328Y-64332464D01*
X187309194Y-64444103D01*
X187402236Y-64618175D01*
X187527451Y-64770749D01*
X187565691Y-64802132D01*
X194415402Y-71651844D01*
X194415401Y-74083185D01*
X194410554Y-74132401D01*
X194415401Y-74181617D01*
X194415401Y-74181623D01*
X194423761Y-74266502D01*
X194429899Y-74328827D01*
X194442526Y-74370451D01*
X194487195Y-74517704D01*
X194580237Y-74691776D01*
X194705452Y-74844350D01*
X194743691Y-74875732D01*
X194791169Y-74923211D01*
X194790400Y-74927079D01*
X194790400Y-75237721D01*
X194851004Y-75542394D01*
X194969881Y-75829389D01*
X195142464Y-76087679D01*
X195362121Y-76307336D01*
X195491781Y-76393972D01*
X195447253Y-76522648D01*
X196367400Y-77442795D01*
X196381543Y-77428653D01*
X196561148Y-77608258D01*
X196547005Y-77622400D01*
X197467152Y-78542547D01*
X197726442Y-78452821D01*
X197862335Y-78171729D01*
X197898884Y-78030925D01*
X202477401Y-82609443D01*
X202477400Y-87139473D01*
X202474121Y-87141664D01*
X202254464Y-87361321D01*
X202081881Y-87619611D01*
X201963004Y-87906606D01*
X201902400Y-88211279D01*
X201902400Y-88521921D01*
X201963004Y-88826594D01*
X202081881Y-89113589D01*
X202254464Y-89371879D01*
X202474121Y-89591536D01*
X202732411Y-89764119D01*
X203019406Y-89882996D01*
X203324079Y-89943600D01*
X203634721Y-89943600D01*
X203939394Y-89882996D01*
X204226389Y-89764119D01*
X204484679Y-89591536D01*
X204704336Y-89371879D01*
X204876919Y-89113589D01*
X204995796Y-88826594D01*
X205056400Y-88521921D01*
X205056400Y-88211279D01*
X204995796Y-87906606D01*
X204876919Y-87619611D01*
X204704336Y-87361321D01*
X204484679Y-87141664D01*
X204481400Y-87139473D01*
X204481400Y-82243623D01*
X204486248Y-82194400D01*
X204466902Y-81997973D01*
X204409606Y-81809096D01*
X204357878Y-81712319D01*
X204316564Y-81635025D01*
X204191349Y-81482451D01*
X204153115Y-81451073D01*
X197943631Y-75241589D01*
X197944400Y-75237721D01*
X197944400Y-74927079D01*
X197883796Y-74622406D01*
X197764919Y-74335411D01*
X197592336Y-74077121D01*
X197372679Y-73857464D01*
X197114389Y-73684881D01*
X196827394Y-73566004D01*
X196522721Y-73505400D01*
X196419401Y-73505400D01*
X196419401Y-71286013D01*
X196424248Y-71236800D01*
X196419401Y-71187587D01*
X196419401Y-71187578D01*
X196404903Y-71040375D01*
X196347607Y-70851497D01*
X196254565Y-70677426D01*
X196129350Y-70524852D01*
X196091116Y-70493474D01*
X189241400Y-63643759D01*
X189241400Y-62187841D01*
X192037315Y-59391927D01*
X192075549Y-59360549D01*
X192200764Y-59207975D01*
X192293806Y-59033904D01*
X192297888Y-59020448D01*
X192351102Y-58845027D01*
X192362869Y-58725549D01*
X192365600Y-58697823D01*
X192365600Y-58697817D01*
X192370447Y-58648601D01*
X192365600Y-58599385D01*
X192365600Y-53414623D01*
X192370448Y-53365400D01*
X192351102Y-53168973D01*
X192293806Y-52980096D01*
X192270176Y-52935887D01*
X192200764Y-52806025D01*
X192075549Y-52653451D01*
X192037315Y-52622073D01*
X189262132Y-49846891D01*
X189230749Y-49808651D01*
X189078175Y-49683436D01*
X188904104Y-49590394D01*
X188715226Y-49533098D01*
X188568023Y-49518600D01*
X188568016Y-49518600D01*
X188518800Y-49513753D01*
X188469584Y-49518600D01*
X173937612Y-49518600D01*
X173888399Y-49513753D01*
X173839186Y-49518600D01*
X173839177Y-49518600D01*
X173691974Y-49533098D01*
X173503096Y-49590394D01*
X173329025Y-49683436D01*
X173176451Y-49808651D01*
X173145073Y-49846885D01*
X166275189Y-56716769D01*
X166271321Y-56716000D01*
X165960679Y-56716000D01*
X165656006Y-56776604D01*
X165369011Y-56895481D01*
X165110721Y-57068064D01*
X164891064Y-57287721D01*
X164804428Y-57417381D01*
X164675752Y-57372853D01*
X163755605Y-58293000D01*
X163396395Y-58293000D01*
X162476248Y-57372853D01*
X162347572Y-57417381D01*
X162260936Y-57287721D01*
X162166463Y-57193248D01*
X162655853Y-57193248D01*
X163576000Y-58113395D01*
X164496147Y-57193248D01*
X164406421Y-56933958D01*
X164125329Y-56798065D01*
X163823127Y-56719621D01*
X163511427Y-56701641D01*
X163202209Y-56744816D01*
X162907356Y-56847487D01*
X162745579Y-56933958D01*
X162655853Y-57193248D01*
X162166463Y-57193248D01*
X162041279Y-57068064D01*
X161782989Y-56895481D01*
X161495994Y-56776604D01*
X161191321Y-56716000D01*
X160880679Y-56716000D01*
X160576006Y-56776604D01*
X160289011Y-56895481D01*
X160030721Y-57068064D01*
X159811064Y-57287721D01*
X159638481Y-57546011D01*
X159519604Y-57833006D01*
X159459000Y-58137679D01*
X159459000Y-58448321D01*
X159519604Y-58752994D01*
X159638481Y-59039989D01*
X159811064Y-59298279D01*
X159856201Y-59343416D01*
X159856200Y-64330273D01*
X159852921Y-64332464D01*
X159633264Y-64552121D01*
X159460681Y-64810411D01*
X159341804Y-65097406D01*
X159281200Y-65402079D01*
X159281200Y-65712721D01*
X159341804Y-66017394D01*
X159460681Y-66304389D01*
X159633264Y-66562679D01*
X159852921Y-66782336D01*
X159856200Y-66784527D01*
X159856201Y-73229774D01*
X159851353Y-73279000D01*
X159870698Y-73475426D01*
X159927994Y-73664303D01*
X159965774Y-73734984D01*
X160021037Y-73838375D01*
X160146252Y-73990949D01*
X160184486Y-74022327D01*
X171397769Y-85235611D01*
X171397000Y-85239479D01*
X171397000Y-85550121D01*
X171457604Y-85854794D01*
X171576481Y-86141789D01*
X171749064Y-86400079D01*
X171968721Y-86619736D01*
X172036164Y-86664800D01*
X171968721Y-86709864D01*
X171749064Y-86929521D01*
X171746873Y-86932800D01*
X149500114Y-86932800D01*
X149450901Y-86927953D01*
X149401688Y-86932800D01*
X149401679Y-86932800D01*
X149254476Y-86947298D01*
X149065598Y-87004594D01*
X148891527Y-87097636D01*
X148738953Y-87222851D01*
X148707575Y-87261085D01*
X141616538Y-94352123D01*
X141543479Y-94279064D01*
X141285189Y-94106481D01*
X140998194Y-93987604D01*
X140693521Y-93927000D01*
X140382879Y-93927000D01*
X140078206Y-93987604D01*
X139791211Y-94106481D01*
X139532921Y-94279064D01*
X139313264Y-94498721D01*
X139140681Y-94757011D01*
X139021804Y-95044006D01*
X138961200Y-95348679D01*
X138961200Y-95659321D01*
X139021804Y-95963994D01*
X139140681Y-96250989D01*
X139313264Y-96509279D01*
X139532921Y-96728936D01*
X139791211Y-96901519D01*
X140078206Y-97020396D01*
X140382879Y-97081000D01*
X140693521Y-97081000D01*
X140998194Y-97020396D01*
X141285189Y-96901519D01*
X141449324Y-96791848D01*
X154375453Y-96791848D01*
X155295600Y-97711995D01*
X156215747Y-96791848D01*
X156126021Y-96532558D01*
X155844929Y-96396665D01*
X155542727Y-96318221D01*
X155231027Y-96300241D01*
X154921809Y-96343416D01*
X154626956Y-96446087D01*
X154465179Y-96532558D01*
X154375453Y-96791848D01*
X141449324Y-96791848D01*
X141543479Y-96728936D01*
X141763136Y-96509279D01*
X141765327Y-96506000D01*
X141832486Y-96506000D01*
X141881702Y-96510847D01*
X141930918Y-96506000D01*
X141930925Y-96506000D01*
X142078128Y-96491502D01*
X142267006Y-96434206D01*
X142441077Y-96341164D01*
X142593651Y-96215949D01*
X142625034Y-96177709D01*
X149865944Y-88936800D01*
X171746873Y-88936800D01*
X171749064Y-88940079D01*
X171968721Y-89159736D01*
X172036164Y-89204800D01*
X171968721Y-89249864D01*
X171749064Y-89469521D01*
X171746873Y-89472800D01*
X165301623Y-89472800D01*
X165252400Y-89467952D01*
X165055973Y-89487298D01*
X164975202Y-89511800D01*
X164867096Y-89544594D01*
X164693025Y-89637636D01*
X164540451Y-89762851D01*
X164509073Y-89801085D01*
X156830500Y-97479659D01*
X156741113Y-97222956D01*
X156654642Y-97061179D01*
X156395352Y-96971453D01*
X155475205Y-97891600D01*
X155489348Y-97905743D01*
X155309743Y-98085348D01*
X155295600Y-98071205D01*
X154375453Y-98991352D01*
X154419981Y-99120028D01*
X154290321Y-99206664D01*
X154070664Y-99426321D01*
X153898081Y-99684611D01*
X153779204Y-99971606D01*
X153718600Y-100276279D01*
X153718600Y-100586921D01*
X153779204Y-100891594D01*
X153898081Y-101178589D01*
X154070664Y-101436879D01*
X154290321Y-101656536D01*
X154357764Y-101701600D01*
X154298798Y-101741000D01*
X141882956Y-101741000D01*
X141785703Y-101622497D01*
X141545573Y-101425428D01*
X141271612Y-101278993D01*
X140974346Y-101188818D01*
X140742669Y-101166000D01*
X140587731Y-101166000D01*
X140356054Y-101188818D01*
X140058788Y-101278993D01*
X139784827Y-101425428D01*
X139544697Y-101622497D01*
X139347628Y-101862627D01*
X139201193Y-102136588D01*
X139111018Y-102433854D01*
X139080570Y-102743000D01*
X139111018Y-103052146D01*
X139201193Y-103349412D01*
X139347628Y-103623373D01*
X139544697Y-103863503D01*
X139612401Y-103919066D01*
X139612400Y-106519673D01*
X139609121Y-106521864D01*
X139389464Y-106741521D01*
X139216881Y-106999811D01*
X139098004Y-107286806D01*
X139037400Y-107591479D01*
X139037400Y-107902121D01*
X139098004Y-108206794D01*
X139216881Y-108493789D01*
X139389464Y-108752079D01*
X139609121Y-108971736D01*
X139867411Y-109144319D01*
X140154406Y-109263196D01*
X140459079Y-109323800D01*
X140769721Y-109323800D01*
X141074394Y-109263196D01*
X141361389Y-109144319D01*
X141619679Y-108971736D01*
X141839336Y-108752079D01*
X142011919Y-108493789D01*
X142130796Y-108206794D01*
X142173444Y-107992388D01*
X146312814Y-107992388D01*
X146365446Y-108165911D01*
X146500578Y-108445703D01*
X146687698Y-108693756D01*
X146919615Y-108900537D01*
X147187417Y-109058100D01*
X147480812Y-109160390D01*
X147726400Y-109040958D01*
X147726400Y-107746800D01*
X147980400Y-107746800D01*
X147980400Y-109040958D01*
X148225988Y-109160390D01*
X148519383Y-109058100D01*
X148787185Y-108900537D01*
X149019102Y-108693756D01*
X149206222Y-108445703D01*
X149341354Y-108165911D01*
X149393986Y-107992388D01*
X149273984Y-107746800D01*
X147980400Y-107746800D01*
X147726400Y-107746800D01*
X146432816Y-107746800D01*
X146312814Y-107992388D01*
X142173444Y-107992388D01*
X142191400Y-107902121D01*
X142191400Y-107591479D01*
X142130796Y-107286806D01*
X142114396Y-107247212D01*
X146312814Y-107247212D01*
X146432816Y-107492800D01*
X147726400Y-107492800D01*
X147726400Y-106198642D01*
X147980400Y-106198642D01*
X147980400Y-107492800D01*
X149273984Y-107492800D01*
X149393986Y-107247212D01*
X149341354Y-107073689D01*
X149206222Y-106793897D01*
X149019102Y-106545844D01*
X148787185Y-106339063D01*
X148519383Y-106181500D01*
X148225988Y-106079210D01*
X147980400Y-106198642D01*
X147726400Y-106198642D01*
X147480812Y-106079210D01*
X147187417Y-106181500D01*
X146919615Y-106339063D01*
X146687698Y-106545844D01*
X146500578Y-106793897D01*
X146365446Y-107073689D01*
X146312814Y-107247212D01*
X142114396Y-107247212D01*
X142011919Y-106999811D01*
X141839336Y-106741521D01*
X141619679Y-106521864D01*
X141616400Y-106519673D01*
X141616400Y-104002446D01*
X141785703Y-103863503D01*
X141882956Y-103745000D01*
X153915728Y-103745000D01*
X154070664Y-103976879D01*
X154290321Y-104196536D01*
X154357764Y-104241600D01*
X154290321Y-104286664D01*
X154070664Y-104506321D01*
X153898081Y-104764611D01*
X153779204Y-105051606D01*
X153718600Y-105356279D01*
X153718600Y-105666921D01*
X153779204Y-105971594D01*
X153898081Y-106258589D01*
X154070664Y-106516879D01*
X154290321Y-106736536D01*
X154357764Y-106781600D01*
X154290321Y-106826664D01*
X154070664Y-107046321D01*
X153898081Y-107304611D01*
X153779204Y-107591606D01*
X153718600Y-107896279D01*
X153718600Y-108206921D01*
X153719369Y-108210789D01*
X152513689Y-109416470D01*
X152513684Y-109416474D01*
X151680159Y-110250000D01*
X139353042Y-110250000D01*
X138238200Y-109135159D01*
X138238200Y-97956173D01*
X153704241Y-97956173D01*
X153747416Y-98265391D01*
X153850087Y-98560244D01*
X153936558Y-98722021D01*
X154195848Y-98811747D01*
X155115995Y-97891600D01*
X154195848Y-96971453D01*
X153936558Y-97061179D01*
X153800665Y-97342271D01*
X153722221Y-97644473D01*
X153704241Y-97956173D01*
X138238200Y-97956173D01*
X138238200Y-90752623D01*
X138243048Y-90703400D01*
X138223702Y-90506973D01*
X138166406Y-90318096D01*
X138145174Y-90278374D01*
X138073364Y-90144025D01*
X137948149Y-89991451D01*
X137909915Y-89960073D01*
X136409400Y-88459559D01*
X136409400Y-86113927D01*
X136412679Y-86111736D01*
X136632336Y-85892079D01*
X136804919Y-85633789D01*
X136923796Y-85346794D01*
X136984400Y-85042121D01*
X136984400Y-84731479D01*
X136923796Y-84426806D01*
X136804919Y-84139811D01*
X136632336Y-83881521D01*
X136412679Y-83661864D01*
X136154389Y-83489281D01*
X135867394Y-83370404D01*
X135562721Y-83309800D01*
X135252079Y-83309800D01*
X135248211Y-83310569D01*
X132467732Y-80530091D01*
X132436349Y-80491851D01*
X132283775Y-80366636D01*
X132109704Y-80273594D01*
X131920826Y-80216298D01*
X131773623Y-80201800D01*
X131773616Y-80201800D01*
X131724400Y-80196953D01*
X131675184Y-80201800D01*
X124531925Y-80201800D01*
X124482702Y-80196952D01*
X124286275Y-80216298D01*
X124214652Y-80238025D01*
X124097398Y-80273594D01*
X123923327Y-80366636D01*
X123770753Y-80491851D01*
X123739370Y-80530091D01*
X123684138Y-80585323D01*
X123611079Y-80512264D01*
X123352789Y-80339681D01*
X123065794Y-80220804D01*
X122761121Y-80160200D01*
X122668000Y-80160200D01*
X122668000Y-73286552D01*
X134487253Y-73286552D01*
X134576979Y-73545842D01*
X134858071Y-73681735D01*
X135160273Y-73760179D01*
X135471973Y-73778159D01*
X135781191Y-73734984D01*
X136076044Y-73632313D01*
X136237821Y-73545842D01*
X136327547Y-73286552D01*
X135407400Y-72366405D01*
X134487253Y-73286552D01*
X122668000Y-73286552D01*
X122668000Y-72397606D01*
X122673512Y-72395323D01*
X122888949Y-72251373D01*
X133816041Y-72251373D01*
X133859216Y-72560591D01*
X133961887Y-72855444D01*
X134048358Y-73017221D01*
X134307648Y-73106947D01*
X135227795Y-72186800D01*
X135587005Y-72186800D01*
X136507152Y-73106947D01*
X136766442Y-73017221D01*
X136902335Y-72736129D01*
X136980779Y-72433927D01*
X136998759Y-72122227D01*
X136955584Y-71813009D01*
X136852913Y-71518156D01*
X136766442Y-71356379D01*
X136507152Y-71266653D01*
X135587005Y-72186800D01*
X135227795Y-72186800D01*
X134307648Y-71266653D01*
X134048358Y-71356379D01*
X133912465Y-71637471D01*
X133834021Y-71939673D01*
X133816041Y-72251373D01*
X122888949Y-72251373D01*
X123021884Y-72162549D01*
X123318149Y-71866284D01*
X123550923Y-71517912D01*
X123711261Y-71130823D01*
X123719968Y-71087048D01*
X134487253Y-71087048D01*
X135407400Y-72007195D01*
X136327547Y-71087048D01*
X136237821Y-70827758D01*
X135956729Y-70691865D01*
X135654527Y-70613421D01*
X135342827Y-70595441D01*
X135033609Y-70638616D01*
X134738756Y-70741287D01*
X134576979Y-70827758D01*
X134487253Y-71087048D01*
X123719968Y-71087048D01*
X123793000Y-70719891D01*
X123793000Y-70300909D01*
X123711261Y-69889977D01*
X123550923Y-69502888D01*
X123318149Y-69154516D01*
X123021884Y-68858251D01*
X122673512Y-68625477D01*
X122286423Y-68465139D01*
X121875491Y-68383400D01*
X121456509Y-68383400D01*
X121045577Y-68465139D01*
X120658488Y-68625477D01*
X120310116Y-68858251D01*
X120013851Y-69154516D01*
X119781077Y-69502888D01*
X119620739Y-69889977D01*
X119539000Y-70300909D01*
X119539000Y-70719891D01*
X119620739Y-71130823D01*
X119781077Y-71517912D01*
X120013851Y-71866284D01*
X120310116Y-72162549D01*
X120658488Y-72395323D01*
X120664000Y-72397606D01*
X120664001Y-80748174D01*
X120659153Y-80797400D01*
X120678498Y-80993826D01*
X120735794Y-81182703D01*
X120809223Y-81320079D01*
X120828837Y-81356775D01*
X120954052Y-81509349D01*
X120992286Y-81540727D01*
X121029569Y-81578011D01*
X121028800Y-81581879D01*
X121028800Y-81892521D01*
X121076522Y-82132434D01*
X119265091Y-83943866D01*
X119226851Y-83975249D01*
X119101636Y-84127823D01*
X119035093Y-84252319D01*
X119008594Y-84301895D01*
X118987572Y-84371196D01*
X118951298Y-84490773D01*
X118936800Y-84637976D01*
X118936800Y-84637982D01*
X118931953Y-84687198D01*
X118936800Y-84736414D01*
X118936801Y-94390568D01*
X118936800Y-94390578D01*
X118936800Y-94559964D01*
X118815887Y-94571873D01*
X118697697Y-94607725D01*
X118588772Y-94665947D01*
X118493299Y-94744299D01*
X118414947Y-94839772D01*
X118356725Y-94948697D01*
X118320873Y-95066887D01*
X118308767Y-95189800D01*
X118308767Y-97189800D01*
X118320873Y-97312713D01*
X118356725Y-97430903D01*
X118414947Y-97539828D01*
X118493299Y-97635301D01*
X118588772Y-97713653D01*
X118697697Y-97771875D01*
X118815887Y-97807727D01*
X118936800Y-97819636D01*
X118936801Y-104114240D01*
X118846038Y-104333359D01*
X118791200Y-104609053D01*
X118791200Y-104890147D01*
X118846038Y-105165841D01*
X118953609Y-105425538D01*
X119109776Y-105659260D01*
X119216200Y-105765684D01*
X119216201Y-107416515D01*
X119135176Y-107497540D01*
X118979009Y-107731262D01*
X118871438Y-107990959D01*
X118816600Y-108266653D01*
X118816600Y-108547747D01*
X118871438Y-108823441D01*
X118979009Y-109083138D01*
X119135176Y-109316860D01*
X119241600Y-109423284D01*
X119241601Y-111099515D01*
X119109776Y-111231340D01*
X118953609Y-111465062D01*
X118846038Y-111724759D01*
X118791200Y-112000453D01*
X118791200Y-112281547D01*
X118846038Y-112557241D01*
X118953609Y-112816938D01*
X119109776Y-113050660D01*
X119216200Y-113157084D01*
X119216201Y-114966171D01*
X119196887Y-114968073D01*
X119078697Y-115003925D01*
X118969772Y-115062147D01*
X118874299Y-115140499D01*
X118795947Y-115235972D01*
X118737725Y-115344897D01*
X118701873Y-115463087D01*
X118689767Y-115586000D01*
X118689767Y-117586000D01*
X118701873Y-117708913D01*
X118737725Y-117827103D01*
X118795947Y-117936028D01*
X118874299Y-118031501D01*
X118969772Y-118109853D01*
X119078697Y-118168075D01*
X119196887Y-118203927D01*
X119319800Y-118216033D01*
X121319800Y-118216033D01*
X121442713Y-118203927D01*
X121560903Y-118168075D01*
X121669828Y-118109853D01*
X121765301Y-118031501D01*
X121843653Y-117936028D01*
X121901875Y-117827103D01*
X121937727Y-117708913D01*
X121949833Y-117586000D01*
X121949833Y-116966434D01*
X123809676Y-116966434D01*
X123866298Y-117153107D01*
X124006401Y-117441382D01*
X124200052Y-117696785D01*
X124439808Y-117909501D01*
X124716456Y-118071356D01*
X125019365Y-118176129D01*
X125272800Y-118057315D01*
X125272800Y-116713000D01*
X125526800Y-116713000D01*
X125526800Y-118057315D01*
X125780235Y-118176129D01*
X126083144Y-118071356D01*
X126359792Y-117909501D01*
X126599548Y-117696785D01*
X126793199Y-117441382D01*
X126933302Y-117153107D01*
X126989924Y-116966434D01*
X126870577Y-116713000D01*
X125526800Y-116713000D01*
X125272800Y-116713000D01*
X123929023Y-116713000D01*
X123809676Y-116966434D01*
X121949833Y-116966434D01*
X121949833Y-116205566D01*
X123809676Y-116205566D01*
X123929023Y-116459000D01*
X125272800Y-116459000D01*
X125272800Y-115114685D01*
X125526800Y-115114685D01*
X125526800Y-116459000D01*
X126870577Y-116459000D01*
X126989924Y-116205566D01*
X126933302Y-116018893D01*
X126793199Y-115730618D01*
X126599548Y-115475215D01*
X126359792Y-115262499D01*
X126083144Y-115100644D01*
X125780235Y-114995871D01*
X125526800Y-115114685D01*
X125272800Y-115114685D01*
X125019365Y-114995871D01*
X124716456Y-115100644D01*
X124439808Y-115262499D01*
X124200052Y-115475215D01*
X124006401Y-115730618D01*
X123866298Y-116018893D01*
X123809676Y-116205566D01*
X121949833Y-116205566D01*
X121949833Y-115586000D01*
X121937727Y-115463087D01*
X121901875Y-115344897D01*
X121843653Y-115235972D01*
X121765301Y-115140499D01*
X121669828Y-115062147D01*
X121560903Y-115003925D01*
X121442713Y-114968073D01*
X121319800Y-114955967D01*
X121220200Y-114955967D01*
X121220200Y-113157084D01*
X121243582Y-113133702D01*
X124405103Y-113133702D01*
X124476686Y-113377671D01*
X124732196Y-113498571D01*
X125006384Y-113567300D01*
X125288712Y-113581217D01*
X125568330Y-113539787D01*
X125834492Y-113444603D01*
X125959714Y-113377671D01*
X126031297Y-113133702D01*
X125218200Y-112320605D01*
X124405103Y-113133702D01*
X121243582Y-113133702D01*
X121326624Y-113050660D01*
X121482791Y-112816938D01*
X121590362Y-112557241D01*
X121645200Y-112281547D01*
X121645200Y-112211512D01*
X123777983Y-112211512D01*
X123819413Y-112491130D01*
X123914597Y-112757292D01*
X123981529Y-112882514D01*
X124225498Y-112954097D01*
X125038595Y-112141000D01*
X125397805Y-112141000D01*
X126210902Y-112954097D01*
X126454871Y-112882514D01*
X126575771Y-112627004D01*
X126644500Y-112352816D01*
X126658417Y-112070488D01*
X126616987Y-111790870D01*
X126521803Y-111524708D01*
X126454871Y-111399486D01*
X126210902Y-111327903D01*
X125397805Y-112141000D01*
X125038595Y-112141000D01*
X124225498Y-111327903D01*
X123981529Y-111399486D01*
X123860629Y-111654996D01*
X123791900Y-111929184D01*
X123777983Y-112211512D01*
X121645200Y-112211512D01*
X121645200Y-112000453D01*
X121590362Y-111724759D01*
X121482791Y-111465062D01*
X121326624Y-111231340D01*
X121245600Y-111150316D01*
X121245600Y-111148298D01*
X124405103Y-111148298D01*
X125218200Y-111961395D01*
X126031297Y-111148298D01*
X125959714Y-110904329D01*
X125704204Y-110783429D01*
X125430016Y-110714700D01*
X125147688Y-110700783D01*
X124868070Y-110742213D01*
X124601908Y-110837397D01*
X124476686Y-110904329D01*
X124405103Y-111148298D01*
X121245600Y-111148298D01*
X121245600Y-109423284D01*
X121268982Y-109399902D01*
X124430503Y-109399902D01*
X124502086Y-109643871D01*
X124757596Y-109764771D01*
X125031784Y-109833500D01*
X125314112Y-109847417D01*
X125593730Y-109805987D01*
X125859892Y-109710803D01*
X125985114Y-109643871D01*
X126056697Y-109399902D01*
X125243600Y-108586805D01*
X124430503Y-109399902D01*
X121268982Y-109399902D01*
X121352024Y-109316860D01*
X121508191Y-109083138D01*
X121615762Y-108823441D01*
X121670600Y-108547747D01*
X121670600Y-108477712D01*
X123803383Y-108477712D01*
X123844813Y-108757330D01*
X123939997Y-109023492D01*
X124006929Y-109148714D01*
X124250898Y-109220297D01*
X125063995Y-108407200D01*
X125423205Y-108407200D01*
X126236302Y-109220297D01*
X126480271Y-109148714D01*
X126601171Y-108893204D01*
X126669900Y-108619016D01*
X126683817Y-108336688D01*
X126642387Y-108057070D01*
X126547203Y-107790908D01*
X126480271Y-107665686D01*
X126236302Y-107594103D01*
X125423205Y-108407200D01*
X125063995Y-108407200D01*
X124250898Y-107594103D01*
X124006929Y-107665686D01*
X123886029Y-107921196D01*
X123817300Y-108195384D01*
X123803383Y-108477712D01*
X121670600Y-108477712D01*
X121670600Y-108266653D01*
X121615762Y-107990959D01*
X121508191Y-107731262D01*
X121352024Y-107497540D01*
X121268982Y-107414498D01*
X124430503Y-107414498D01*
X125243600Y-108227595D01*
X126056697Y-107414498D01*
X125985114Y-107170529D01*
X125729604Y-107049629D01*
X125455416Y-106980900D01*
X125173088Y-106966983D01*
X124893470Y-107008413D01*
X124627308Y-107103597D01*
X124502086Y-107170529D01*
X124430503Y-107414498D01*
X121268982Y-107414498D01*
X121220200Y-107365716D01*
X121220200Y-105765684D01*
X121243582Y-105742302D01*
X124405103Y-105742302D01*
X124476686Y-105986271D01*
X124732196Y-106107171D01*
X125006384Y-106175900D01*
X125288712Y-106189817D01*
X125568330Y-106148387D01*
X125834492Y-106053203D01*
X125959714Y-105986271D01*
X126031297Y-105742302D01*
X125218200Y-104929205D01*
X124405103Y-105742302D01*
X121243582Y-105742302D01*
X121326624Y-105659260D01*
X121482791Y-105425538D01*
X121590362Y-105165841D01*
X121645200Y-104890147D01*
X121645200Y-104820112D01*
X123777983Y-104820112D01*
X123819413Y-105099730D01*
X123914597Y-105365892D01*
X123981529Y-105491114D01*
X124225498Y-105562697D01*
X125038595Y-104749600D01*
X125397805Y-104749600D01*
X126210902Y-105562697D01*
X126454871Y-105491114D01*
X126575771Y-105235604D01*
X126644500Y-104961416D01*
X126658417Y-104679088D01*
X126616987Y-104399470D01*
X126521803Y-104133308D01*
X126454871Y-104008086D01*
X126210902Y-103936503D01*
X125397805Y-104749600D01*
X125038595Y-104749600D01*
X124225498Y-103936503D01*
X123981529Y-104008086D01*
X123860629Y-104263596D01*
X123791900Y-104537784D01*
X123777983Y-104820112D01*
X121645200Y-104820112D01*
X121645200Y-104609053D01*
X121590362Y-104333359D01*
X121482791Y-104073662D01*
X121326624Y-103839940D01*
X121243582Y-103756898D01*
X124405103Y-103756898D01*
X125218200Y-104569995D01*
X126031297Y-103756898D01*
X125959714Y-103512929D01*
X125704204Y-103392029D01*
X125430016Y-103323300D01*
X125147688Y-103309383D01*
X124868070Y-103350813D01*
X124601908Y-103445997D01*
X124476686Y-103512929D01*
X124405103Y-103756898D01*
X121243582Y-103756898D01*
X121127860Y-103641176D01*
X120940800Y-103516187D01*
X120940800Y-97819636D01*
X121061713Y-97807727D01*
X121179903Y-97771875D01*
X121288828Y-97713653D01*
X121384301Y-97635301D01*
X121462653Y-97539828D01*
X121520875Y-97430903D01*
X121552935Y-97325213D01*
X123982992Y-97325213D01*
X124078756Y-97589614D01*
X124368371Y-97730504D01*
X124679908Y-97812184D01*
X125001395Y-97831518D01*
X125320475Y-97787761D01*
X125624888Y-97682595D01*
X125798844Y-97589614D01*
X125894608Y-97325213D01*
X124938800Y-96369405D01*
X123982992Y-97325213D01*
X121552935Y-97325213D01*
X121556727Y-97312713D01*
X121568833Y-97189800D01*
X121568833Y-96252395D01*
X123297082Y-96252395D01*
X123340839Y-96571475D01*
X123446005Y-96875888D01*
X123538986Y-97049844D01*
X123803387Y-97145608D01*
X124759195Y-96189800D01*
X125118405Y-96189800D01*
X126074213Y-97145608D01*
X126338614Y-97049844D01*
X126479504Y-96760229D01*
X126561184Y-96448692D01*
X126580518Y-96127205D01*
X126536761Y-95808125D01*
X126431595Y-95503712D01*
X126338614Y-95329756D01*
X126074213Y-95233992D01*
X125118405Y-96189800D01*
X124759195Y-96189800D01*
X123803387Y-95233992D01*
X123538986Y-95329756D01*
X123398096Y-95619371D01*
X123316416Y-95930908D01*
X123297082Y-96252395D01*
X121568833Y-96252395D01*
X121568833Y-95189800D01*
X121556727Y-95066887D01*
X121552936Y-95054387D01*
X123982992Y-95054387D01*
X124938800Y-96010195D01*
X125894608Y-95054387D01*
X125798844Y-94789986D01*
X125509229Y-94649096D01*
X125197692Y-94567416D01*
X124876205Y-94548082D01*
X124557125Y-94591839D01*
X124252712Y-94697005D01*
X124078756Y-94789986D01*
X123982992Y-95054387D01*
X121552936Y-95054387D01*
X121520875Y-94948697D01*
X121462653Y-94839772D01*
X121384301Y-94744299D01*
X121288828Y-94665947D01*
X121179903Y-94607725D01*
X121061713Y-94571873D01*
X120940800Y-94559964D01*
X120940800Y-85102239D01*
X121143992Y-84899047D01*
X121160287Y-84945844D01*
X121246758Y-85107621D01*
X121506048Y-85197347D01*
X122426195Y-84277200D01*
X122785405Y-84277200D01*
X123705552Y-85197347D01*
X123964842Y-85107621D01*
X124100735Y-84826529D01*
X124179179Y-84524327D01*
X124197159Y-84212627D01*
X124153984Y-83903409D01*
X124051313Y-83608556D01*
X123964842Y-83446779D01*
X123705552Y-83357053D01*
X122785405Y-84277200D01*
X122426195Y-84277200D01*
X122412053Y-84263058D01*
X122591658Y-84083453D01*
X122605800Y-84097595D01*
X123525947Y-83177448D01*
X123481419Y-83048772D01*
X123611079Y-82962136D01*
X123830736Y-82742479D01*
X123832927Y-82739200D01*
X123900086Y-82739200D01*
X123949302Y-82744047D01*
X123998518Y-82739200D01*
X123998525Y-82739200D01*
X124145728Y-82724702D01*
X124334606Y-82667406D01*
X124508677Y-82574364D01*
X124661251Y-82449149D01*
X124692634Y-82410909D01*
X124897743Y-82205800D01*
X131309359Y-82205800D01*
X133831169Y-84727611D01*
X133830400Y-84731479D01*
X133830400Y-85042121D01*
X133891004Y-85346794D01*
X134009881Y-85633789D01*
X134182464Y-85892079D01*
X134402121Y-86111736D01*
X134405400Y-86113927D01*
X134405401Y-88825374D01*
X134400553Y-88874600D01*
X134419898Y-89071026D01*
X134477194Y-89259903D01*
X134496919Y-89296806D01*
X134570237Y-89433975D01*
X134695452Y-89586549D01*
X134733686Y-89617927D01*
X136234200Y-91118442D01*
X136234201Y-109163160D01*
X135281831Y-108210789D01*
X135282600Y-108206921D01*
X135282600Y-107896279D01*
X135221996Y-107591606D01*
X135103119Y-107304611D01*
X134930536Y-107046321D01*
X134710879Y-106826664D01*
X134643436Y-106781600D01*
X134710879Y-106736536D01*
X134930536Y-106516879D01*
X135103119Y-106258589D01*
X135221996Y-105971594D01*
X135282600Y-105666921D01*
X135282600Y-105356279D01*
X135221996Y-105051606D01*
X135103119Y-104764611D01*
X134930536Y-104506321D01*
X134710879Y-104286664D01*
X134643436Y-104241600D01*
X134710879Y-104196536D01*
X134930536Y-103976879D01*
X135103119Y-103718589D01*
X135221996Y-103431594D01*
X135282600Y-103126921D01*
X135282600Y-102816279D01*
X135221996Y-102511606D01*
X135103119Y-102224611D01*
X134930536Y-101966321D01*
X134710879Y-101746664D01*
X134643436Y-101701600D01*
X134710879Y-101656536D01*
X134930536Y-101436879D01*
X135103119Y-101178589D01*
X135221996Y-100891594D01*
X135282600Y-100586921D01*
X135282600Y-100276279D01*
X135221996Y-99971606D01*
X135103119Y-99684611D01*
X134930536Y-99426321D01*
X134710879Y-99206664D01*
X134643436Y-99161600D01*
X134710879Y-99116536D01*
X134930536Y-98896879D01*
X135103119Y-98638589D01*
X135221996Y-98351594D01*
X135282600Y-98046921D01*
X135282600Y-97736279D01*
X135221996Y-97431606D01*
X135103119Y-97144611D01*
X134930536Y-96886321D01*
X134710879Y-96666664D01*
X134643436Y-96621600D01*
X134710879Y-96576536D01*
X134930536Y-96356879D01*
X135103119Y-96098589D01*
X135221996Y-95811594D01*
X135282600Y-95506921D01*
X135282600Y-95196279D01*
X135221996Y-94891606D01*
X135103119Y-94604611D01*
X134930536Y-94346321D01*
X134710879Y-94126664D01*
X134452589Y-93954081D01*
X134165594Y-93835204D01*
X133860921Y-93774600D01*
X133550279Y-93774600D01*
X133245606Y-93835204D01*
X132958611Y-93954081D01*
X132700321Y-94126664D01*
X132480664Y-94346321D01*
X132308081Y-94604611D01*
X132189204Y-94891606D01*
X132128600Y-95196279D01*
X132128600Y-95506921D01*
X132189204Y-95811594D01*
X132308081Y-96098589D01*
X132480664Y-96356879D01*
X132700321Y-96576536D01*
X132767764Y-96621600D01*
X132700321Y-96666664D01*
X132480664Y-96886321D01*
X132308081Y-97144611D01*
X132189204Y-97431606D01*
X132128600Y-97736279D01*
X132128600Y-98046921D01*
X132189204Y-98351594D01*
X132308081Y-98638589D01*
X132480664Y-98896879D01*
X132700321Y-99116536D01*
X132767764Y-99161600D01*
X132700321Y-99206664D01*
X132480664Y-99426321D01*
X132308081Y-99684611D01*
X132189204Y-99971606D01*
X132128600Y-100276279D01*
X132128600Y-100586921D01*
X132189204Y-100891594D01*
X132308081Y-101178589D01*
X132480664Y-101436879D01*
X132700321Y-101656536D01*
X132767764Y-101701600D01*
X132700321Y-101746664D01*
X132480664Y-101966321D01*
X132308081Y-102224611D01*
X132189204Y-102511606D01*
X132128600Y-102816279D01*
X132128600Y-103126921D01*
X132189204Y-103431594D01*
X132308081Y-103718589D01*
X132480664Y-103976879D01*
X132700321Y-104196536D01*
X132767764Y-104241600D01*
X132700321Y-104286664D01*
X132480664Y-104506321D01*
X132308081Y-104764611D01*
X132189204Y-105051606D01*
X132128600Y-105356279D01*
X132128600Y-105666921D01*
X132189204Y-105971594D01*
X132308081Y-106258589D01*
X132480664Y-106516879D01*
X132700321Y-106736536D01*
X132767764Y-106781600D01*
X132700321Y-106826664D01*
X132480664Y-107046321D01*
X132308081Y-107304611D01*
X132189204Y-107591606D01*
X132128600Y-107896279D01*
X132128600Y-108206921D01*
X132189204Y-108511594D01*
X132308081Y-108798589D01*
X132480664Y-109056879D01*
X132700321Y-109276536D01*
X132958611Y-109449119D01*
X133245606Y-109567996D01*
X133550279Y-109628600D01*
X133860921Y-109628600D01*
X133864789Y-109627831D01*
X137254873Y-113017915D01*
X137286251Y-113056149D01*
X137438825Y-113181364D01*
X137612896Y-113274406D01*
X137757813Y-113318366D01*
X137801773Y-113331702D01*
X137821812Y-113333676D01*
X137948977Y-113346200D01*
X137948983Y-113346200D01*
X137998199Y-113351047D01*
X138047415Y-113346200D01*
X155474984Y-113346200D01*
X155524200Y-113351047D01*
X155573416Y-113346200D01*
X155573423Y-113346200D01*
X155720626Y-113331702D01*
X155909504Y-113274406D01*
X156083575Y-113181364D01*
X156236149Y-113056149D01*
X156267532Y-113017909D01*
X165595915Y-103689527D01*
X165634149Y-103658149D01*
X165759364Y-103505575D01*
X165852406Y-103331504D01*
X165898637Y-103179103D01*
X165909702Y-103142627D01*
X165918613Y-103052146D01*
X165924200Y-102995423D01*
X165924200Y-102995417D01*
X165929047Y-102946201D01*
X165924200Y-102896985D01*
X165924200Y-100138139D01*
X166495917Y-99566422D01*
X166485600Y-99671178D01*
X166485600Y-99671184D01*
X166480753Y-99720400D01*
X166485600Y-99769616D01*
X166485601Y-102795375D01*
X166480753Y-102844600D01*
X166500098Y-103041026D01*
X166557394Y-103229903D01*
X166623284Y-103353175D01*
X166650437Y-103403975D01*
X166775652Y-103556549D01*
X166813886Y-103587927D01*
X174948473Y-111722515D01*
X174979851Y-111760749D01*
X175132425Y-111885964D01*
X175273548Y-111961395D01*
X175306496Y-111979006D01*
X175495373Y-112036302D01*
X175513557Y-112038093D01*
X175642577Y-112050800D01*
X175642584Y-112050800D01*
X175691800Y-112055647D01*
X175741016Y-112050800D01*
X183430873Y-112050800D01*
X183433064Y-112054079D01*
X183652721Y-112273736D01*
X183782381Y-112360372D01*
X183737853Y-112489048D01*
X184658000Y-113409195D01*
X185578147Y-112489048D01*
X185533619Y-112360372D01*
X185663279Y-112273736D01*
X185882936Y-112054079D01*
X185885127Y-112050800D01*
X188977584Y-112050800D01*
X189026800Y-112055647D01*
X189076016Y-112050800D01*
X189076023Y-112050800D01*
X189223226Y-112036302D01*
X189412104Y-111979006D01*
X189586175Y-111885964D01*
X189738749Y-111760749D01*
X189770132Y-111722509D01*
X192830011Y-108662631D01*
X192833879Y-108663400D01*
X193144521Y-108663400D01*
X193449194Y-108602796D01*
X193736189Y-108483919D01*
X193994479Y-108311336D01*
X194214136Y-108091679D01*
X194386719Y-107833389D01*
X194505596Y-107546394D01*
X194566200Y-107241721D01*
X194566200Y-106931079D01*
X194505596Y-106626406D01*
X194386719Y-106339411D01*
X194214136Y-106081121D01*
X193994479Y-105861464D01*
X193736189Y-105688881D01*
X193449194Y-105570004D01*
X193144521Y-105509400D01*
X192833879Y-105509400D01*
X192529206Y-105570004D01*
X192242211Y-105688881D01*
X191983921Y-105861464D01*
X191764264Y-106081121D01*
X191591681Y-106339411D01*
X191472804Y-106626406D01*
X191412200Y-106931079D01*
X191412200Y-107241721D01*
X191412969Y-107245589D01*
X188611759Y-110046800D01*
X185885127Y-110046800D01*
X185882936Y-110043521D01*
X185663279Y-109823864D01*
X185404989Y-109651281D01*
X185117994Y-109532404D01*
X184813321Y-109471800D01*
X184502679Y-109471800D01*
X184198006Y-109532404D01*
X183911011Y-109651281D01*
X183652721Y-109823864D01*
X183433064Y-110043521D01*
X183430873Y-110046800D01*
X176106842Y-110046800D01*
X168489600Y-102429559D01*
X168489600Y-100135441D01*
X169528242Y-99096800D01*
X171746873Y-99096800D01*
X171749064Y-99100079D01*
X171968721Y-99319736D01*
X172036164Y-99364800D01*
X171968721Y-99409864D01*
X171749064Y-99629521D01*
X171576481Y-99887811D01*
X171457604Y-100174806D01*
X171397000Y-100479479D01*
X171397000Y-100790121D01*
X171457604Y-101094794D01*
X171576481Y-101381789D01*
X171749064Y-101640079D01*
X171968721Y-101859736D01*
X172227011Y-102032319D01*
X172514006Y-102151196D01*
X172818679Y-102211800D01*
X173129321Y-102211800D01*
X173433994Y-102151196D01*
X173720989Y-102032319D01*
X173979279Y-101859736D01*
X174198936Y-101640079D01*
X174371519Y-101381789D01*
X174490396Y-101094794D01*
X174551000Y-100790121D01*
X174551000Y-100479479D01*
X174490396Y-100174806D01*
X174371519Y-99887811D01*
X174198936Y-99629521D01*
X173979279Y-99409864D01*
X173911836Y-99364800D01*
X173979279Y-99319736D01*
X174198936Y-99100079D01*
X174371519Y-98841789D01*
X174490396Y-98554794D01*
X174501439Y-98499280D01*
X177102800Y-101100642D01*
X177102801Y-103963774D01*
X177097953Y-104013000D01*
X177117298Y-104209426D01*
X177174594Y-104398303D01*
X177174595Y-104398304D01*
X177267637Y-104572375D01*
X177392852Y-104724949D01*
X177431086Y-104756327D01*
X178098072Y-105423314D01*
X178129451Y-105461549D01*
X178282025Y-105586764D01*
X178417657Y-105659260D01*
X178456096Y-105679806D01*
X178644973Y-105737102D01*
X178841400Y-105756448D01*
X178890623Y-105751600D01*
X189841184Y-105751600D01*
X189890400Y-105756447D01*
X189939616Y-105751600D01*
X189939623Y-105751600D01*
X190086826Y-105737102D01*
X190275704Y-105679806D01*
X190449775Y-105586764D01*
X190602349Y-105461549D01*
X190633732Y-105423309D01*
X193307315Y-102749727D01*
X193345549Y-102718349D01*
X193470764Y-102565775D01*
X193563806Y-102391704D01*
X193596106Y-102285225D01*
X193621102Y-102202827D01*
X193640448Y-102006400D01*
X193635600Y-101957177D01*
X193635600Y-99043241D01*
X195093961Y-97584880D01*
X195105004Y-97640394D01*
X195223881Y-97927389D01*
X195396464Y-98185679D01*
X195616121Y-98405336D01*
X195874411Y-98577919D01*
X196161406Y-98696796D01*
X196466079Y-98757400D01*
X196776721Y-98757400D01*
X196780589Y-98756631D01*
X197905401Y-99881443D01*
X197905400Y-113935758D01*
X194325758Y-117515401D01*
X185421329Y-117515401D01*
X185663279Y-117353736D01*
X185882936Y-117134079D01*
X185885127Y-117130800D01*
X191263584Y-117130800D01*
X191312800Y-117135647D01*
X191362016Y-117130800D01*
X191362023Y-117130800D01*
X191509226Y-117116302D01*
X191698104Y-117059006D01*
X191872175Y-116965964D01*
X192024749Y-116840749D01*
X192056132Y-116802510D01*
X192963638Y-115895004D01*
X193038731Y-115902400D01*
X193193669Y-115902400D01*
X193425346Y-115879582D01*
X193722612Y-115789407D01*
X193996573Y-115642972D01*
X194236703Y-115445903D01*
X194433772Y-115205773D01*
X194580207Y-114931812D01*
X194670382Y-114634546D01*
X194700830Y-114325400D01*
X194670382Y-114016254D01*
X194580207Y-113718988D01*
X194433772Y-113445027D01*
X194236703Y-113204897D01*
X193996573Y-113007828D01*
X193722612Y-112861393D01*
X193425346Y-112771218D01*
X193193669Y-112748400D01*
X193038731Y-112748400D01*
X192807054Y-112771218D01*
X192509788Y-112861393D01*
X192235827Y-113007828D01*
X191995697Y-113204897D01*
X191798628Y-113445027D01*
X191652193Y-113718988D01*
X191562018Y-114016254D01*
X191531570Y-114325400D01*
X191546596Y-114477962D01*
X190897759Y-115126800D01*
X185885127Y-115126800D01*
X185882936Y-115123521D01*
X185663279Y-114903864D01*
X185533619Y-114817228D01*
X185578147Y-114688552D01*
X184658000Y-113768405D01*
X183737853Y-114688552D01*
X183782381Y-114817228D01*
X183652721Y-114903864D01*
X183433064Y-115123521D01*
X183430873Y-115126800D01*
X182279042Y-115126800D01*
X180805615Y-113653373D01*
X183066641Y-113653373D01*
X183109816Y-113962591D01*
X183212487Y-114257444D01*
X183298958Y-114419221D01*
X183558248Y-114508947D01*
X184478395Y-113588800D01*
X184837605Y-113588800D01*
X185757752Y-114508947D01*
X186017042Y-114419221D01*
X186152935Y-114138129D01*
X186231379Y-113835927D01*
X186249359Y-113524227D01*
X186206184Y-113215009D01*
X186103513Y-112920156D01*
X186017042Y-112758379D01*
X185757752Y-112668653D01*
X184837605Y-113588800D01*
X184478395Y-113588800D01*
X183558248Y-112668653D01*
X183298958Y-112758379D01*
X183163065Y-113039471D01*
X183084621Y-113341673D01*
X183066641Y-113653373D01*
X180805615Y-113653373D01*
X180016532Y-112864291D01*
X179985149Y-112826051D01*
X179832575Y-112700836D01*
X179658504Y-112607794D01*
X179469626Y-112550498D01*
X179322423Y-112536000D01*
X179322416Y-112536000D01*
X179273200Y-112531153D01*
X179223984Y-112536000D01*
X173089719Y-112536000D01*
X173032628Y-112489147D01*
X172923703Y-112430925D01*
X172805513Y-112395073D01*
X172682600Y-112382967D01*
X171182600Y-112382967D01*
X171059687Y-112395073D01*
X170941497Y-112430925D01*
X170832572Y-112489147D01*
X170737099Y-112567499D01*
X170658747Y-112662972D01*
X170600525Y-112771897D01*
X170564673Y-112890087D01*
X170552567Y-113013000D01*
X170552567Y-114063000D01*
X170564673Y-114185913D01*
X170600525Y-114304103D01*
X170658747Y-114413028D01*
X170681703Y-114441000D01*
X164498327Y-114441000D01*
X164496136Y-114437721D01*
X164276479Y-114218064D01*
X164018189Y-114045481D01*
X163731194Y-113926604D01*
X163426521Y-113866000D01*
X163115879Y-113866000D01*
X162811206Y-113926604D01*
X162524211Y-114045481D01*
X162265921Y-114218064D01*
X162046264Y-114437721D01*
X161873681Y-114696011D01*
X161754804Y-114983006D01*
X161694200Y-115287679D01*
X161694200Y-115598321D01*
X161754804Y-115902994D01*
X161873681Y-116189989D01*
X161893065Y-116219000D01*
X157473443Y-116219000D01*
X157496207Y-116176412D01*
X157586382Y-115879146D01*
X157616830Y-115570000D01*
X157586382Y-115260854D01*
X157496207Y-114963588D01*
X157349772Y-114689627D01*
X157152703Y-114449497D01*
X156912573Y-114252428D01*
X156638612Y-114105993D01*
X156341346Y-114015818D01*
X156109669Y-113993000D01*
X155954731Y-113993000D01*
X155723054Y-114015818D01*
X155425788Y-114105993D01*
X155151827Y-114252428D01*
X154911697Y-114449497D01*
X154714628Y-114689627D01*
X154568193Y-114963588D01*
X154478018Y-115260854D01*
X154447570Y-115570000D01*
X154478018Y-115879146D01*
X154568193Y-116176412D01*
X154590957Y-116219000D01*
X137448042Y-116219000D01*
X130923000Y-109693959D01*
X130923000Y-89889016D01*
X130927847Y-89839800D01*
X130923000Y-89790584D01*
X130923000Y-89790577D01*
X130908502Y-89643374D01*
X130906762Y-89637636D01*
X130851206Y-89454496D01*
X130807885Y-89373448D01*
X130758164Y-89280425D01*
X130632949Y-89127851D01*
X130594715Y-89096473D01*
X127641732Y-86143491D01*
X127610349Y-86105251D01*
X127457775Y-85980036D01*
X127283704Y-85886994D01*
X127094826Y-85829698D01*
X126947623Y-85815200D01*
X126947616Y-85815200D01*
X126898400Y-85810353D01*
X126849184Y-85815200D01*
X123832927Y-85815200D01*
X123830736Y-85811921D01*
X123611079Y-85592264D01*
X123481419Y-85505628D01*
X123525947Y-85376952D01*
X122605800Y-84456805D01*
X121685653Y-85376952D01*
X121730181Y-85505628D01*
X121600521Y-85592264D01*
X121380864Y-85811921D01*
X121208281Y-86070211D01*
X121089404Y-86357206D01*
X121028800Y-86661879D01*
X121028800Y-86972521D01*
X121089404Y-87277194D01*
X121208281Y-87564189D01*
X121380864Y-87822479D01*
X121600521Y-88042136D01*
X121858811Y-88214719D01*
X122145806Y-88333596D01*
X122450479Y-88394200D01*
X122761121Y-88394200D01*
X123065794Y-88333596D01*
X123352789Y-88214719D01*
X123611079Y-88042136D01*
X123830736Y-87822479D01*
X123832927Y-87819200D01*
X126483359Y-87819200D01*
X128919000Y-90254842D01*
X128919001Y-110059774D01*
X128914153Y-110109000D01*
X128933498Y-110305426D01*
X128990794Y-110494303D01*
X128990795Y-110494304D01*
X129083837Y-110668375D01*
X129209052Y-110820949D01*
X129247286Y-110852327D01*
X136289673Y-117894715D01*
X136321051Y-117932949D01*
X136473625Y-118058164D01*
X136611945Y-118132097D01*
X136647696Y-118151206D01*
X136836573Y-118208502D01*
X137033000Y-118227848D01*
X137082223Y-118223000D01*
X171138408Y-118223000D01*
X171264616Y-118290459D01*
X171481769Y-118356332D01*
X171651005Y-118373000D01*
X172214195Y-118373000D01*
X172383431Y-118356332D01*
X172600584Y-118290459D01*
X172726792Y-118223000D01*
X179442359Y-118223000D01*
X180410469Y-119191110D01*
X180441852Y-119229350D01*
X180594426Y-119354565D01*
X180768497Y-119447607D01*
X180873124Y-119479346D01*
X115002400Y-119515430D01*
X115002400Y-117736483D01*
X115002434Y-117736134D01*
X115002400Y-117704026D01*
X115002400Y-117670348D01*
X115002364Y-117669982D01*
X114949602Y-67843400D01*
X147557753Y-67843400D01*
X147562600Y-67892616D01*
X147562601Y-78944774D01*
X147557753Y-78994000D01*
X147577098Y-79190426D01*
X147634394Y-79379303D01*
X147690558Y-79484379D01*
X147727437Y-79553375D01*
X147852652Y-79705949D01*
X147890886Y-79737327D01*
X152881169Y-84727611D01*
X152880400Y-84731479D01*
X152880400Y-85042121D01*
X152941004Y-85346794D01*
X153059881Y-85633789D01*
X153232464Y-85892079D01*
X153452121Y-86111736D01*
X153710411Y-86284319D01*
X153997406Y-86403196D01*
X154302079Y-86463800D01*
X154612721Y-86463800D01*
X154917394Y-86403196D01*
X155204389Y-86284319D01*
X155462679Y-86111736D01*
X155682336Y-85892079D01*
X155854919Y-85633789D01*
X155973796Y-85346794D01*
X156034400Y-85042121D01*
X156034400Y-84731479D01*
X155973796Y-84426806D01*
X155854919Y-84139811D01*
X155682336Y-83881521D01*
X155462679Y-83661864D01*
X155204389Y-83489281D01*
X154917394Y-83370404D01*
X154612721Y-83309800D01*
X154302079Y-83309800D01*
X154298211Y-83310569D01*
X149566600Y-78578959D01*
X149566600Y-73286552D01*
X153537253Y-73286552D01*
X153626979Y-73545842D01*
X153908071Y-73681735D01*
X154210273Y-73760179D01*
X154521973Y-73778159D01*
X154831191Y-73734984D01*
X155126044Y-73632313D01*
X155287821Y-73545842D01*
X155377547Y-73286552D01*
X154457400Y-72366405D01*
X153537253Y-73286552D01*
X149566600Y-73286552D01*
X149566600Y-72251373D01*
X152866041Y-72251373D01*
X152909216Y-72560591D01*
X153011887Y-72855444D01*
X153098358Y-73017221D01*
X153357648Y-73106947D01*
X154277795Y-72186800D01*
X154637005Y-72186800D01*
X155557152Y-73106947D01*
X155816442Y-73017221D01*
X155952335Y-72736129D01*
X156030779Y-72433927D01*
X156048759Y-72122227D01*
X156005584Y-71813009D01*
X155902913Y-71518156D01*
X155816442Y-71356379D01*
X155557152Y-71266653D01*
X154637005Y-72186800D01*
X154277795Y-72186800D01*
X153357648Y-71266653D01*
X153098358Y-71356379D01*
X152962465Y-71637471D01*
X152884021Y-71939673D01*
X152866041Y-72251373D01*
X149566600Y-72251373D01*
X149566600Y-71087048D01*
X153537253Y-71087048D01*
X154457400Y-72007195D01*
X155377547Y-71087048D01*
X155287821Y-70827758D01*
X155006729Y-70691865D01*
X154704527Y-70613421D01*
X154392827Y-70595441D01*
X154083609Y-70638616D01*
X153788756Y-70741287D01*
X153626979Y-70827758D01*
X153537253Y-71087048D01*
X149566600Y-71087048D01*
X149566600Y-68258441D01*
X153968011Y-63857031D01*
X153971879Y-63857800D01*
X154282521Y-63857800D01*
X154587194Y-63797196D01*
X154874189Y-63678319D01*
X155132479Y-63505736D01*
X155352136Y-63286079D01*
X155524719Y-63027789D01*
X155643596Y-62740794D01*
X155704200Y-62436121D01*
X155704200Y-62125479D01*
X155643596Y-61820806D01*
X155524719Y-61533811D01*
X155352136Y-61275521D01*
X155132479Y-61055864D01*
X154874189Y-60883281D01*
X154587194Y-60764404D01*
X154282521Y-60703800D01*
X153971879Y-60703800D01*
X153667206Y-60764404D01*
X153380211Y-60883281D01*
X153121921Y-61055864D01*
X152902264Y-61275521D01*
X152729681Y-61533811D01*
X152610804Y-61820806D01*
X152550200Y-62125479D01*
X152550200Y-62436121D01*
X152550969Y-62439989D01*
X147890891Y-67100068D01*
X147852651Y-67131451D01*
X147727436Y-67284025D01*
X147634394Y-67458097D01*
X147577098Y-67646975D01*
X147562600Y-67794178D01*
X147562600Y-67794184D01*
X147557753Y-67843400D01*
X114949602Y-67843400D01*
X114948635Y-66930400D01*
X119527928Y-66930400D01*
X119540188Y-67054882D01*
X119576498Y-67174580D01*
X119635463Y-67284894D01*
X119714815Y-67381585D01*
X119811506Y-67460937D01*
X119921820Y-67519902D01*
X120041518Y-67556212D01*
X120166000Y-67568472D01*
X121380250Y-67565400D01*
X121539000Y-67406650D01*
X121539000Y-65557400D01*
X121793000Y-65557400D01*
X121793000Y-67406650D01*
X121951750Y-67565400D01*
X123166000Y-67568472D01*
X123290482Y-67556212D01*
X123410180Y-67519902D01*
X123520494Y-67460937D01*
X123617185Y-67381585D01*
X123696537Y-67284894D01*
X123755502Y-67174580D01*
X123791812Y-67054882D01*
X123804072Y-66930400D01*
X123801000Y-65716150D01*
X123642250Y-65557400D01*
X121793000Y-65557400D01*
X121539000Y-65557400D01*
X119689750Y-65557400D01*
X119531000Y-65716150D01*
X119527928Y-66930400D01*
X114948635Y-66930400D01*
X114945459Y-63930400D01*
X119527928Y-63930400D01*
X119531000Y-65144650D01*
X119689750Y-65303400D01*
X121539000Y-65303400D01*
X121539000Y-63454150D01*
X121793000Y-63454150D01*
X121793000Y-65303400D01*
X123642250Y-65303400D01*
X123801000Y-65144650D01*
X123804072Y-63930400D01*
X123791812Y-63805918D01*
X123755502Y-63686220D01*
X123696537Y-63575906D01*
X123617185Y-63479215D01*
X123520494Y-63399863D01*
X123410180Y-63340898D01*
X123290482Y-63304588D01*
X123166000Y-63292328D01*
X121951750Y-63295400D01*
X121793000Y-63454150D01*
X121539000Y-63454150D01*
X121380250Y-63295400D01*
X120166000Y-63292328D01*
X120041518Y-63304588D01*
X119921820Y-63340898D01*
X119811506Y-63399863D01*
X119714815Y-63479215D01*
X119635463Y-63575906D01*
X119576498Y-63686220D01*
X119540188Y-63805918D01*
X119527928Y-63930400D01*
X114945459Y-63930400D01*
X114936146Y-55137109D01*
X119310400Y-55137109D01*
X119310400Y-55556091D01*
X119392139Y-55967023D01*
X119552477Y-56354112D01*
X119785251Y-56702484D01*
X120081516Y-56998749D01*
X120429888Y-57231523D01*
X120816977Y-57391861D01*
X121227909Y-57473600D01*
X121646891Y-57473600D01*
X122057823Y-57391861D01*
X122063336Y-57389577D01*
X127628273Y-62954515D01*
X127659651Y-62992749D01*
X127812225Y-63117964D01*
X127986296Y-63211006D01*
X128175173Y-63268302D01*
X128371600Y-63287648D01*
X128420823Y-63282800D01*
X133850073Y-63282800D01*
X133852264Y-63286079D01*
X134071921Y-63505736D01*
X134330211Y-63678319D01*
X134617206Y-63797196D01*
X134921879Y-63857800D01*
X135232521Y-63857800D01*
X135537194Y-63797196D01*
X135824189Y-63678319D01*
X136082479Y-63505736D01*
X136302136Y-63286079D01*
X136474719Y-63027789D01*
X136593596Y-62740794D01*
X136654200Y-62436121D01*
X136654200Y-62125479D01*
X136593596Y-61820806D01*
X136474719Y-61533811D01*
X136302136Y-61275521D01*
X136082479Y-61055864D01*
X135824189Y-60883281D01*
X135537194Y-60764404D01*
X135232521Y-60703800D01*
X134921879Y-60703800D01*
X134617206Y-60764404D01*
X134330211Y-60883281D01*
X134071921Y-61055864D01*
X133852264Y-61275521D01*
X133850073Y-61278800D01*
X128786642Y-61278800D01*
X123480377Y-55972536D01*
X123482661Y-55967023D01*
X123564400Y-55556091D01*
X123564400Y-55137109D01*
X123482661Y-54726177D01*
X123322323Y-54339088D01*
X123089549Y-53990716D01*
X122793284Y-53694451D01*
X122444912Y-53461677D01*
X122057823Y-53301339D01*
X121646891Y-53219600D01*
X121227909Y-53219600D01*
X120816977Y-53301339D01*
X120429888Y-53461677D01*
X120081516Y-53694451D01*
X119785251Y-53990716D01*
X119552477Y-54339088D01*
X119392139Y-54726177D01*
X119310400Y-55137109D01*
X114936146Y-55137109D01*
X114932576Y-51766600D01*
X119299328Y-51766600D01*
X119311588Y-51891082D01*
X119347898Y-52010780D01*
X119406863Y-52121094D01*
X119486215Y-52217785D01*
X119582906Y-52297137D01*
X119693220Y-52356102D01*
X119812918Y-52392412D01*
X119937400Y-52404672D01*
X121151650Y-52401600D01*
X121310400Y-52242850D01*
X121310400Y-50393600D01*
X121564400Y-50393600D01*
X121564400Y-52242850D01*
X121723150Y-52401600D01*
X122937400Y-52404672D01*
X123061882Y-52392412D01*
X123181580Y-52356102D01*
X123291894Y-52297137D01*
X123388585Y-52217785D01*
X123467937Y-52121094D01*
X123526902Y-52010780D01*
X123563212Y-51891082D01*
X123575472Y-51766600D01*
X123572725Y-50680552D01*
X134157053Y-50680552D01*
X134246779Y-50939842D01*
X134527871Y-51075735D01*
X134830073Y-51154179D01*
X135141773Y-51172159D01*
X135450991Y-51128984D01*
X135745844Y-51026313D01*
X135907621Y-50939842D01*
X135997347Y-50680552D01*
X153207053Y-50680552D01*
X153296779Y-50939842D01*
X153577871Y-51075735D01*
X153880073Y-51154179D01*
X154191773Y-51172159D01*
X154500991Y-51128984D01*
X154795844Y-51026313D01*
X154957621Y-50939842D01*
X155047347Y-50680552D01*
X154127200Y-49760405D01*
X153207053Y-50680552D01*
X135997347Y-50680552D01*
X135077200Y-49760405D01*
X134157053Y-50680552D01*
X123572725Y-50680552D01*
X123572400Y-50552350D01*
X123413650Y-50393600D01*
X121564400Y-50393600D01*
X121310400Y-50393600D01*
X119461150Y-50393600D01*
X119302400Y-50552350D01*
X119299328Y-51766600D01*
X114932576Y-51766600D01*
X114929399Y-48766600D01*
X119299328Y-48766600D01*
X119302400Y-49980850D01*
X119461150Y-50139600D01*
X121310400Y-50139600D01*
X121310400Y-48290350D01*
X121564400Y-48290350D01*
X121564400Y-50139600D01*
X123413650Y-50139600D01*
X123572400Y-49980850D01*
X123573248Y-49645373D01*
X133485841Y-49645373D01*
X133529016Y-49954591D01*
X133631687Y-50249444D01*
X133718158Y-50411221D01*
X133977448Y-50500947D01*
X134897595Y-49580800D01*
X135256805Y-49580800D01*
X136176952Y-50500947D01*
X136436242Y-50411221D01*
X136572135Y-50130129D01*
X136650579Y-49827927D01*
X136661109Y-49645373D01*
X152535841Y-49645373D01*
X152579016Y-49954591D01*
X152681687Y-50249444D01*
X152768158Y-50411221D01*
X153027448Y-50500947D01*
X153947595Y-49580800D01*
X154306805Y-49580800D01*
X155226952Y-50500947D01*
X155486242Y-50411221D01*
X155622135Y-50130129D01*
X155700579Y-49827927D01*
X155718559Y-49516227D01*
X155675384Y-49207009D01*
X155572713Y-48912156D01*
X155486242Y-48750379D01*
X155226952Y-48660653D01*
X154306805Y-49580800D01*
X153947595Y-49580800D01*
X153027448Y-48660653D01*
X152768158Y-48750379D01*
X152632265Y-49031471D01*
X152553821Y-49333673D01*
X152535841Y-49645373D01*
X136661109Y-49645373D01*
X136668559Y-49516227D01*
X136625384Y-49207009D01*
X136522713Y-48912156D01*
X136436242Y-48750379D01*
X136176952Y-48660653D01*
X135256805Y-49580800D01*
X134897595Y-49580800D01*
X133977448Y-48660653D01*
X133718158Y-48750379D01*
X133582265Y-49031471D01*
X133503821Y-49333673D01*
X133485841Y-49645373D01*
X123573248Y-49645373D01*
X123575472Y-48766600D01*
X123563212Y-48642118D01*
X123526902Y-48522420D01*
X123504788Y-48481048D01*
X134157053Y-48481048D01*
X135077200Y-49401195D01*
X135997347Y-48481048D01*
X153207053Y-48481048D01*
X154127200Y-49401195D01*
X155047347Y-48481048D01*
X154957621Y-48221758D01*
X154676529Y-48085865D01*
X154374327Y-48007421D01*
X154062627Y-47989441D01*
X153753409Y-48032616D01*
X153458556Y-48135287D01*
X153296779Y-48221758D01*
X153207053Y-48481048D01*
X135997347Y-48481048D01*
X135907621Y-48221758D01*
X135626529Y-48085865D01*
X135324327Y-48007421D01*
X135012627Y-47989441D01*
X134703409Y-48032616D01*
X134408556Y-48135287D01*
X134246779Y-48221758D01*
X134157053Y-48481048D01*
X123504788Y-48481048D01*
X123467937Y-48412106D01*
X123388585Y-48315415D01*
X123291894Y-48236063D01*
X123181580Y-48177098D01*
X123061882Y-48140788D01*
X122937400Y-48128528D01*
X121723150Y-48131600D01*
X121564400Y-48290350D01*
X121310400Y-48290350D01*
X121151650Y-48131600D01*
X119937400Y-48128528D01*
X119812918Y-48140788D01*
X119693220Y-48177098D01*
X119582906Y-48236063D01*
X119486215Y-48315415D01*
X119406863Y-48412106D01*
X119347898Y-48522420D01*
X119311588Y-48642118D01*
X119299328Y-48766600D01*
X114929399Y-48766600D01*
X114926917Y-46422956D01*
X206408722Y-46498044D01*
X206408722Y-46498044D01*
G37*
X206408722Y-46498044D02*
X206358421Y-117724520D01*
X206358085Y-117728352D01*
X206358398Y-117757752D01*
X206358377Y-117787173D01*
X206358752Y-117791003D01*
X206376564Y-119465375D01*
X195047071Y-119471581D01*
X195126103Y-119447607D01*
X195300174Y-119354565D01*
X195452748Y-119229350D01*
X195484131Y-119191110D01*
X199581115Y-115094127D01*
X199619349Y-115062749D01*
X199744564Y-114910175D01*
X199837606Y-114736104D01*
X199868414Y-114634546D01*
X199894902Y-114547227D01*
X199914248Y-114350800D01*
X199909400Y-114301577D01*
X199909400Y-99515615D01*
X199914247Y-99466399D01*
X199909400Y-99417183D01*
X199909400Y-99417177D01*
X199894902Y-99269974D01*
X199837606Y-99081096D01*
X199744564Y-98907025D01*
X199619349Y-98754451D01*
X199581115Y-98723073D01*
X198197631Y-97339589D01*
X198198400Y-97335721D01*
X198198400Y-97025079D01*
X198137796Y-96720406D01*
X198018919Y-96433411D01*
X197846336Y-96175121D01*
X197626679Y-95955464D01*
X197559236Y-95910400D01*
X197626679Y-95865336D01*
X197846336Y-95645679D01*
X198018919Y-95387389D01*
X198137796Y-95100394D01*
X198198400Y-94795721D01*
X198198400Y-94485079D01*
X198137796Y-94180406D01*
X198018919Y-93893411D01*
X197846336Y-93635121D01*
X197626679Y-93415464D01*
X197497019Y-93328828D01*
X197541547Y-93200152D01*
X196621400Y-92280005D01*
X195701253Y-93200152D01*
X195745781Y-93328828D01*
X195616121Y-93415464D01*
X195396464Y-93635121D01*
X195223881Y-93893411D01*
X195105004Y-94180406D01*
X195044400Y-94485079D01*
X195044400Y-94795721D01*
X195045169Y-94799589D01*
X191959886Y-97884873D01*
X191921652Y-97916251D01*
X191890274Y-97954485D01*
X191796437Y-98068825D01*
X191703394Y-98242897D01*
X191646098Y-98431774D01*
X191626753Y-98628200D01*
X191631601Y-98677426D01*
X191631600Y-101591358D01*
X189475359Y-103747600D01*
X179256442Y-103747600D01*
X179106800Y-103597959D01*
X179106800Y-101734552D01*
X179673853Y-101734552D01*
X179763579Y-101993842D01*
X180044671Y-102129735D01*
X180346873Y-102208179D01*
X180658573Y-102226159D01*
X180967791Y-102182984D01*
X181262644Y-102080313D01*
X181424421Y-101993842D01*
X181514147Y-101734552D01*
X180594000Y-100814405D01*
X179673853Y-101734552D01*
X179106800Y-101734552D01*
X179106800Y-101183726D01*
X179148487Y-101303444D01*
X179234958Y-101465221D01*
X179494248Y-101554947D01*
X180414395Y-100634800D01*
X179494248Y-99714653D01*
X179234958Y-99804379D01*
X179099065Y-100085471D01*
X179039476Y-100315033D01*
X179035006Y-100300296D01*
X178941963Y-100126224D01*
X178848126Y-100011884D01*
X178816749Y-99973651D01*
X178778515Y-99942273D01*
X178371290Y-99535048D01*
X179673853Y-99535048D01*
X180594000Y-100455195D01*
X181514147Y-99535048D01*
X181424421Y-99275758D01*
X181143329Y-99139865D01*
X180841127Y-99061421D01*
X180529427Y-99043441D01*
X180220209Y-99086616D01*
X179925356Y-99189287D01*
X179763579Y-99275758D01*
X179673853Y-99535048D01*
X178371290Y-99535048D01*
X174550231Y-95713989D01*
X174551000Y-95710121D01*
X174551000Y-95399479D01*
X174490396Y-95094806D01*
X174371519Y-94807811D01*
X174198936Y-94549521D01*
X173979279Y-94329864D01*
X173911836Y-94284800D01*
X173979279Y-94239736D01*
X174198936Y-94020079D01*
X174371519Y-93761789D01*
X174490396Y-93474794D01*
X174551000Y-93170121D01*
X174551000Y-92859479D01*
X174490396Y-92554806D01*
X174371519Y-92267811D01*
X174198936Y-92009521D01*
X173979279Y-91789864D01*
X173911836Y-91744800D01*
X173979279Y-91699736D01*
X174198936Y-91480079D01*
X174371519Y-91221789D01*
X174490396Y-90934794D01*
X174551000Y-90630121D01*
X174551000Y-90319479D01*
X174490396Y-90014806D01*
X174371519Y-89727811D01*
X174198936Y-89469521D01*
X173979279Y-89249864D01*
X173911836Y-89204800D01*
X173979279Y-89159736D01*
X174198936Y-88940079D01*
X174371519Y-88681789D01*
X174490396Y-88394794D01*
X174551000Y-88090121D01*
X174551000Y-87779479D01*
X174490396Y-87474806D01*
X174371519Y-87187811D01*
X174198936Y-86929521D01*
X173979279Y-86709864D01*
X173911836Y-86664800D01*
X173979279Y-86619736D01*
X174198936Y-86400079D01*
X174371519Y-86141789D01*
X174490396Y-85854794D01*
X174551000Y-85550121D01*
X174551000Y-85239479D01*
X174490396Y-84934806D01*
X174371519Y-84647811D01*
X174198936Y-84389521D01*
X173979279Y-84169864D01*
X173911836Y-84124800D01*
X173979279Y-84079736D01*
X174198936Y-83860079D01*
X174371519Y-83601789D01*
X174490396Y-83314794D01*
X174551000Y-83010121D01*
X174551000Y-82699479D01*
X174490396Y-82394806D01*
X174371519Y-82107811D01*
X174198936Y-81849521D01*
X173979279Y-81629864D01*
X173849619Y-81543228D01*
X173894147Y-81414552D01*
X172974000Y-80494405D01*
X172053853Y-81414552D01*
X172098381Y-81543228D01*
X171968721Y-81629864D01*
X171749064Y-81849521D01*
X171576481Y-82107811D01*
X171457604Y-82394806D01*
X171446562Y-82450320D01*
X169375615Y-80379373D01*
X171382641Y-80379373D01*
X171425816Y-80688591D01*
X171528487Y-80983444D01*
X171614958Y-81145221D01*
X171874248Y-81234947D01*
X172794395Y-80314800D01*
X173153605Y-80314800D01*
X174073752Y-81234947D01*
X174333042Y-81145221D01*
X174468935Y-80864129D01*
X174547379Y-80561927D01*
X174565359Y-80250227D01*
X174522184Y-79941009D01*
X174419513Y-79646156D01*
X174333042Y-79484379D01*
X174073752Y-79394653D01*
X173153605Y-80314800D01*
X172794395Y-80314800D01*
X171874248Y-79394653D01*
X171614958Y-79484379D01*
X171479065Y-79765471D01*
X171400621Y-80067673D01*
X171382641Y-80379373D01*
X169375615Y-80379373D01*
X161860200Y-72863959D01*
X161860200Y-72539479D01*
X171397000Y-72539479D01*
X171397000Y-72850121D01*
X171457604Y-73154794D01*
X171576481Y-73441789D01*
X171749064Y-73700079D01*
X171968721Y-73919736D01*
X172036164Y-73964800D01*
X171968721Y-74009864D01*
X171749064Y-74229521D01*
X171576481Y-74487811D01*
X171457604Y-74774806D01*
X171397000Y-75079479D01*
X171397000Y-75390121D01*
X171457604Y-75694794D01*
X171576481Y-75981789D01*
X171749064Y-76240079D01*
X171968721Y-76459736D01*
X172036164Y-76504800D01*
X171968721Y-76549864D01*
X171749064Y-76769521D01*
X171576481Y-77027811D01*
X171457604Y-77314806D01*
X171397000Y-77619479D01*
X171397000Y-77930121D01*
X171457604Y-78234794D01*
X171576481Y-78521789D01*
X171749064Y-78780079D01*
X171968721Y-78999736D01*
X172098381Y-79086372D01*
X172053853Y-79215048D01*
X172974000Y-80135195D01*
X173894147Y-79215048D01*
X173849619Y-79086372D01*
X173979279Y-78999736D01*
X174198936Y-78780079D01*
X174371519Y-78521789D01*
X174490396Y-78234794D01*
X174551000Y-77930121D01*
X174551000Y-77619479D01*
X174490396Y-77314806D01*
X174371519Y-77027811D01*
X174198936Y-76769521D01*
X173979279Y-76549864D01*
X173911836Y-76504800D01*
X173979279Y-76459736D01*
X174198936Y-76240079D01*
X174371519Y-75981789D01*
X174490396Y-75694794D01*
X174551000Y-75390121D01*
X174551000Y-75079479D01*
X174490396Y-74774806D01*
X174371519Y-74487811D01*
X174198936Y-74229521D01*
X173979279Y-74009864D01*
X173911836Y-73964800D01*
X173979279Y-73919736D01*
X174198936Y-73700079D01*
X174371519Y-73441789D01*
X174490396Y-73154794D01*
X174551000Y-72850121D01*
X174551000Y-72539479D01*
X174490396Y-72234806D01*
X174371519Y-71947811D01*
X174198936Y-71689521D01*
X173979279Y-71469864D01*
X173720989Y-71297281D01*
X173433994Y-71178404D01*
X173129321Y-71117800D01*
X172818679Y-71117800D01*
X172514006Y-71178404D01*
X172227011Y-71297281D01*
X171968721Y-71469864D01*
X171749064Y-71689521D01*
X171576481Y-71947811D01*
X171457604Y-72234806D01*
X171397000Y-72539479D01*
X161860200Y-72539479D01*
X161860200Y-66784527D01*
X161863479Y-66782336D01*
X162083136Y-66562679D01*
X162255719Y-66304389D01*
X162374596Y-66017394D01*
X162435200Y-65712721D01*
X162435200Y-65402079D01*
X162374596Y-65097406D01*
X162255719Y-64810411D01*
X162083136Y-64552121D01*
X161863479Y-64332464D01*
X161860200Y-64330273D01*
X161860200Y-59638929D01*
X162041279Y-59517936D01*
X162166463Y-59392752D01*
X162655853Y-59392752D01*
X162745579Y-59652042D01*
X163026671Y-59787935D01*
X163328873Y-59866379D01*
X163640573Y-59884359D01*
X163949791Y-59841184D01*
X164244644Y-59738513D01*
X164406421Y-59652042D01*
X164496147Y-59392752D01*
X163576000Y-58472605D01*
X162655853Y-59392752D01*
X162166463Y-59392752D01*
X162260936Y-59298279D01*
X162347572Y-59168619D01*
X162476248Y-59213147D01*
X163396395Y-58293000D01*
X163755605Y-58293000D01*
X164675752Y-59213147D01*
X164804428Y-59168619D01*
X164891064Y-59298279D01*
X165110721Y-59517936D01*
X165114000Y-59520127D01*
X165114001Y-63399974D01*
X165109153Y-63449200D01*
X165128498Y-63645626D01*
X165185794Y-63834503D01*
X165208091Y-63876218D01*
X165278837Y-64008575D01*
X165404052Y-64161149D01*
X165442286Y-64192527D01*
X166527596Y-65277838D01*
X166512570Y-65430400D01*
X166543018Y-65739546D01*
X166633193Y-66036812D01*
X166779628Y-66310773D01*
X166976697Y-66550903D01*
X167216827Y-66747972D01*
X167490788Y-66894407D01*
X167788054Y-66984582D01*
X168019731Y-67007400D01*
X168174669Y-67007400D01*
X168406346Y-66984582D01*
X168703612Y-66894407D01*
X168977573Y-66747972D01*
X169217703Y-66550903D01*
X169414772Y-66310773D01*
X169561207Y-66036812D01*
X169651382Y-65739546D01*
X169681830Y-65430400D01*
X169651382Y-65121254D01*
X169561207Y-64823988D01*
X169414772Y-64550027D01*
X169217703Y-64309897D01*
X168977573Y-64112828D01*
X168703612Y-63966393D01*
X168406346Y-63876218D01*
X168174669Y-63853400D01*
X168019731Y-63853400D01*
X167944638Y-63860796D01*
X167118000Y-63034159D01*
X167118000Y-59520127D01*
X167121279Y-59517936D01*
X167340936Y-59298279D01*
X167513519Y-59039989D01*
X167632396Y-58752994D01*
X167693000Y-58448321D01*
X167693000Y-58137679D01*
X167692231Y-58133811D01*
X171599963Y-54226079D01*
X173048000Y-54226079D01*
X173048000Y-54536721D01*
X173108604Y-54841394D01*
X173227481Y-55128389D01*
X173400064Y-55386679D01*
X173619721Y-55606336D01*
X173878011Y-55778919D01*
X174165006Y-55897796D01*
X174469679Y-55958400D01*
X174780321Y-55958400D01*
X175084994Y-55897796D01*
X175371989Y-55778919D01*
X175630279Y-55606336D01*
X175849936Y-55386679D01*
X175895000Y-55319236D01*
X175940064Y-55386679D01*
X176159721Y-55606336D01*
X176418011Y-55778919D01*
X176705006Y-55897796D01*
X177009679Y-55958400D01*
X177320321Y-55958400D01*
X177624994Y-55897796D01*
X177911989Y-55778919D01*
X178170279Y-55606336D01*
X178389936Y-55386679D01*
X178435000Y-55319236D01*
X178480064Y-55386679D01*
X178699721Y-55606336D01*
X178703001Y-55608527D01*
X178703000Y-58062822D01*
X178703001Y-58062832D01*
X178703000Y-75566584D01*
X178698153Y-75615800D01*
X178703000Y-75665016D01*
X178703000Y-75665022D01*
X178711972Y-75756115D01*
X178717498Y-75812226D01*
X178745169Y-75903444D01*
X178774794Y-76001103D01*
X178867836Y-76175175D01*
X178993051Y-76327749D01*
X179031291Y-76359132D01*
X184097769Y-81425611D01*
X184097000Y-81429479D01*
X184097000Y-81740121D01*
X184157604Y-82044794D01*
X184276481Y-82331789D01*
X184449064Y-82590079D01*
X184668721Y-82809736D01*
X184736164Y-82854800D01*
X184668721Y-82899864D01*
X184449064Y-83119521D01*
X184276481Y-83377811D01*
X184157604Y-83664806D01*
X184097000Y-83969479D01*
X184097000Y-84280121D01*
X184157604Y-84584794D01*
X184276481Y-84871789D01*
X184449064Y-85130079D01*
X184668721Y-85349736D01*
X184927011Y-85522319D01*
X185214006Y-85641196D01*
X185518679Y-85701800D01*
X185829321Y-85701800D01*
X186133994Y-85641196D01*
X186420989Y-85522319D01*
X186637000Y-85377986D01*
X186637000Y-85550121D01*
X186697604Y-85854794D01*
X186816481Y-86141789D01*
X186989064Y-86400079D01*
X187208721Y-86619736D01*
X187276164Y-86664800D01*
X187208721Y-86709864D01*
X186989064Y-86929521D01*
X186816481Y-87187811D01*
X186697604Y-87474806D01*
X186637000Y-87779479D01*
X186637000Y-88090121D01*
X186697604Y-88394794D01*
X186816481Y-88681789D01*
X186989064Y-88940079D01*
X187208721Y-89159736D01*
X187276164Y-89204800D01*
X187208721Y-89249864D01*
X186989064Y-89469521D01*
X186816481Y-89727811D01*
X186697604Y-90014806D01*
X186637000Y-90319479D01*
X186637000Y-90630121D01*
X186697604Y-90934794D01*
X186816481Y-91221789D01*
X186989064Y-91480079D01*
X187208721Y-91699736D01*
X187276164Y-91744800D01*
X187208721Y-91789864D01*
X186989064Y-92009521D01*
X186816481Y-92267811D01*
X186697604Y-92554806D01*
X186637000Y-92859479D01*
X186637000Y-93170121D01*
X186697604Y-93474794D01*
X186816481Y-93761789D01*
X186989064Y-94020079D01*
X187208721Y-94239736D01*
X187276164Y-94284800D01*
X187208721Y-94329864D01*
X186989064Y-94549521D01*
X186816481Y-94807811D01*
X186697604Y-95094806D01*
X186637000Y-95399479D01*
X186637000Y-95710121D01*
X186697604Y-96014794D01*
X186816481Y-96301789D01*
X186989064Y-96560079D01*
X187208721Y-96779736D01*
X187276164Y-96824800D01*
X187208721Y-96869864D01*
X186989064Y-97089521D01*
X186816481Y-97347811D01*
X186697604Y-97634806D01*
X186637000Y-97939479D01*
X186637000Y-98250121D01*
X186697604Y-98554794D01*
X186816481Y-98841789D01*
X186989064Y-99100079D01*
X187208721Y-99319736D01*
X187276164Y-99364800D01*
X187208721Y-99409864D01*
X186989064Y-99629521D01*
X186944000Y-99696964D01*
X186898936Y-99629521D01*
X186679279Y-99409864D01*
X186420989Y-99237281D01*
X186133994Y-99118404D01*
X185829321Y-99057800D01*
X185518679Y-99057800D01*
X185214006Y-99118404D01*
X184927011Y-99237281D01*
X184668721Y-99409864D01*
X184449064Y-99629521D01*
X184404000Y-99696964D01*
X184358936Y-99629521D01*
X184139279Y-99409864D01*
X183880989Y-99237281D01*
X183593994Y-99118404D01*
X183289321Y-99057800D01*
X182978679Y-99057800D01*
X182674006Y-99118404D01*
X182387011Y-99237281D01*
X182128721Y-99409864D01*
X181909064Y-99629521D01*
X181822428Y-99759181D01*
X181693752Y-99714653D01*
X180773605Y-100634800D01*
X181693752Y-101554947D01*
X181822428Y-101510419D01*
X181909064Y-101640079D01*
X182128721Y-101859736D01*
X182387011Y-102032319D01*
X182674006Y-102151196D01*
X182978679Y-102211800D01*
X183289321Y-102211800D01*
X183593994Y-102151196D01*
X183880989Y-102032319D01*
X184139279Y-101859736D01*
X184358936Y-101640079D01*
X184404000Y-101572636D01*
X184449064Y-101640079D01*
X184668721Y-101859736D01*
X184927011Y-102032319D01*
X185214006Y-102151196D01*
X185518679Y-102211800D01*
X185829321Y-102211800D01*
X186133994Y-102151196D01*
X186420989Y-102032319D01*
X186679279Y-101859736D01*
X186898936Y-101640079D01*
X186944000Y-101572636D01*
X186989064Y-101640079D01*
X187208721Y-101859736D01*
X187467011Y-102032319D01*
X187754006Y-102151196D01*
X188058679Y-102211800D01*
X188369321Y-102211800D01*
X188673994Y-102151196D01*
X188960989Y-102032319D01*
X189219279Y-101859736D01*
X189438936Y-101640079D01*
X189611519Y-101381789D01*
X189730396Y-101094794D01*
X189791000Y-100790121D01*
X189791000Y-100479479D01*
X189730396Y-100174806D01*
X189611519Y-99887811D01*
X189438936Y-99629521D01*
X189219279Y-99409864D01*
X189151836Y-99364800D01*
X189219279Y-99319736D01*
X189438936Y-99100079D01*
X189611519Y-98841789D01*
X189730396Y-98554794D01*
X189791000Y-98250121D01*
X189791000Y-97939479D01*
X189730396Y-97634806D01*
X189611519Y-97347811D01*
X189438936Y-97089521D01*
X189219279Y-96869864D01*
X189151836Y-96824800D01*
X189219279Y-96779736D01*
X189438936Y-96560079D01*
X189611519Y-96301789D01*
X189730396Y-96014794D01*
X189791000Y-95710121D01*
X189791000Y-95399479D01*
X189730396Y-95094806D01*
X189611519Y-94807811D01*
X189438936Y-94549521D01*
X189219279Y-94329864D01*
X189151836Y-94284800D01*
X189219279Y-94239736D01*
X189438936Y-94020079D01*
X189611519Y-93761789D01*
X189730396Y-93474794D01*
X189791000Y-93170121D01*
X189791000Y-92859479D01*
X189730396Y-92554806D01*
X189611519Y-92267811D01*
X189542806Y-92164973D01*
X195030041Y-92164973D01*
X195073216Y-92474191D01*
X195175887Y-92769044D01*
X195262358Y-92930821D01*
X195521648Y-93020547D01*
X196441795Y-92100400D01*
X196801005Y-92100400D01*
X197721152Y-93020547D01*
X197980442Y-92930821D01*
X198116335Y-92649729D01*
X198194779Y-92347527D01*
X198212759Y-92035827D01*
X198169584Y-91726609D01*
X198066913Y-91431756D01*
X197980442Y-91269979D01*
X197721152Y-91180253D01*
X196801005Y-92100400D01*
X196441795Y-92100400D01*
X195521648Y-91180253D01*
X195262358Y-91269979D01*
X195126465Y-91551071D01*
X195048021Y-91853273D01*
X195030041Y-92164973D01*
X189542806Y-92164973D01*
X189438936Y-92009521D01*
X189219279Y-91789864D01*
X189151836Y-91744800D01*
X189219279Y-91699736D01*
X189438936Y-91480079D01*
X189611519Y-91221789D01*
X189703118Y-91000648D01*
X195701253Y-91000648D01*
X196621400Y-91920795D01*
X197541547Y-91000648D01*
X197451821Y-90741358D01*
X197170729Y-90605465D01*
X196868527Y-90527021D01*
X196556827Y-90509041D01*
X196247609Y-90552216D01*
X195952756Y-90654887D01*
X195790979Y-90741358D01*
X195701253Y-91000648D01*
X189703118Y-91000648D01*
X189730396Y-90934794D01*
X189791000Y-90630121D01*
X189791000Y-90319479D01*
X189730396Y-90014806D01*
X189611519Y-89727811D01*
X189438936Y-89469521D01*
X189219279Y-89249864D01*
X189151836Y-89204800D01*
X189219279Y-89159736D01*
X189438936Y-88940079D01*
X189611519Y-88681789D01*
X189730396Y-88394794D01*
X189791000Y-88090121D01*
X189791000Y-87779479D01*
X189730396Y-87474806D01*
X189611519Y-87187811D01*
X189438936Y-86929521D01*
X189219279Y-86709864D01*
X189151836Y-86664800D01*
X189219279Y-86619736D01*
X189438936Y-86400079D01*
X189611519Y-86141789D01*
X189730396Y-85854794D01*
X189791000Y-85550121D01*
X189791000Y-85239479D01*
X189730396Y-84934806D01*
X189611519Y-84647811D01*
X189438936Y-84389521D01*
X189219279Y-84169864D01*
X189151836Y-84124800D01*
X189219279Y-84079736D01*
X189438936Y-83860079D01*
X189441127Y-83856800D01*
X193625784Y-83856800D01*
X193675000Y-83861647D01*
X193724216Y-83856800D01*
X193724223Y-83856800D01*
X193871426Y-83842302D01*
X194060304Y-83785006D01*
X194234375Y-83691964D01*
X194386949Y-83566749D01*
X194418332Y-83528509D01*
X196208211Y-81738631D01*
X196212079Y-81739400D01*
X196522721Y-81739400D01*
X196827394Y-81678796D01*
X197114389Y-81559919D01*
X197372679Y-81387336D01*
X197592336Y-81167679D01*
X197764919Y-80909389D01*
X197883796Y-80622394D01*
X197944400Y-80317721D01*
X197944400Y-80007079D01*
X197883796Y-79702406D01*
X197764919Y-79415411D01*
X197592336Y-79157121D01*
X197372679Y-78937464D01*
X197243019Y-78850828D01*
X197287547Y-78722152D01*
X196367400Y-77802005D01*
X195447253Y-78722152D01*
X195491781Y-78850828D01*
X195362121Y-78937464D01*
X195142464Y-79157121D01*
X194969881Y-79415411D01*
X194851004Y-79702406D01*
X194790400Y-80007079D01*
X194790400Y-80317721D01*
X194791169Y-80321589D01*
X193259959Y-81852800D01*
X189441127Y-81852800D01*
X189438936Y-81849521D01*
X189219279Y-81629864D01*
X189151836Y-81584800D01*
X189219279Y-81539736D01*
X189438936Y-81320079D01*
X189611519Y-81061789D01*
X189730396Y-80774794D01*
X189791000Y-80470121D01*
X189791000Y-80159479D01*
X189730396Y-79854806D01*
X189611519Y-79567811D01*
X189438936Y-79309521D01*
X189219279Y-79089864D01*
X189151836Y-79044800D01*
X189219279Y-78999736D01*
X189438936Y-78780079D01*
X189611519Y-78521789D01*
X189730396Y-78234794D01*
X189791000Y-77930121D01*
X189791000Y-77686973D01*
X194776041Y-77686973D01*
X194819216Y-77996191D01*
X194921887Y-78291044D01*
X195008358Y-78452821D01*
X195267648Y-78542547D01*
X196187795Y-77622400D01*
X195267648Y-76702253D01*
X195008358Y-76791979D01*
X194872465Y-77073071D01*
X194794021Y-77375273D01*
X194776041Y-77686973D01*
X189791000Y-77686973D01*
X189791000Y-77619479D01*
X189730396Y-77314806D01*
X189611519Y-77027811D01*
X189438936Y-76769521D01*
X189219279Y-76549864D01*
X189089619Y-76463228D01*
X189134147Y-76334552D01*
X188214000Y-75414405D01*
X187293853Y-76334552D01*
X187338381Y-76463228D01*
X187208721Y-76549864D01*
X186989064Y-76769521D01*
X186816481Y-77027811D01*
X186697604Y-77314806D01*
X186637000Y-77619479D01*
X186637000Y-77930121D01*
X186697604Y-78234794D01*
X186816481Y-78521789D01*
X186989064Y-78780079D01*
X187208721Y-78999736D01*
X187276164Y-79044800D01*
X187208721Y-79089864D01*
X186989064Y-79309521D01*
X186816481Y-79567811D01*
X186697604Y-79854806D01*
X186637000Y-80159479D01*
X186637000Y-80331614D01*
X186420989Y-80187281D01*
X186133994Y-80068404D01*
X185829321Y-80007800D01*
X185518679Y-80007800D01*
X185514811Y-80008569D01*
X180805615Y-75299373D01*
X186622641Y-75299373D01*
X186665816Y-75608591D01*
X186768487Y-75903444D01*
X186854958Y-76065221D01*
X187114248Y-76154947D01*
X188034395Y-75234800D01*
X188393605Y-75234800D01*
X189313752Y-76154947D01*
X189573042Y-76065221D01*
X189708935Y-75784129D01*
X189787379Y-75481927D01*
X189805359Y-75170227D01*
X189762184Y-74861009D01*
X189659513Y-74566156D01*
X189573042Y-74404379D01*
X189313752Y-74314653D01*
X188393605Y-75234800D01*
X188034395Y-75234800D01*
X187114248Y-74314653D01*
X186854958Y-74404379D01*
X186719065Y-74685471D01*
X186640621Y-74987673D01*
X186622641Y-75299373D01*
X180805615Y-75299373D01*
X180707000Y-75200759D01*
X180707000Y-72539479D01*
X186637000Y-72539479D01*
X186637000Y-72850121D01*
X186697604Y-73154794D01*
X186816481Y-73441789D01*
X186989064Y-73700079D01*
X187208721Y-73919736D01*
X187338381Y-74006372D01*
X187293853Y-74135048D01*
X188214000Y-75055195D01*
X189134147Y-74135048D01*
X189089619Y-74006372D01*
X189219279Y-73919736D01*
X189438936Y-73700079D01*
X189611519Y-73441789D01*
X189730396Y-73154794D01*
X189791000Y-72850121D01*
X189791000Y-72539479D01*
X189730396Y-72234806D01*
X189611519Y-71947811D01*
X189438936Y-71689521D01*
X189219279Y-71469864D01*
X188960989Y-71297281D01*
X188673994Y-71178404D01*
X188369321Y-71117800D01*
X188058679Y-71117800D01*
X187754006Y-71178404D01*
X187467011Y-71297281D01*
X187208721Y-71469864D01*
X186989064Y-71689521D01*
X186816481Y-71947811D01*
X186697604Y-72234806D01*
X186637000Y-72539479D01*
X180707000Y-72539479D01*
X180707000Y-55608527D01*
X180710279Y-55606336D01*
X180929936Y-55386679D01*
X180975000Y-55319236D01*
X181020064Y-55386679D01*
X181239721Y-55606336D01*
X181498011Y-55778919D01*
X181785006Y-55897796D01*
X182089679Y-55958400D01*
X182400321Y-55958400D01*
X182704994Y-55897796D01*
X182991989Y-55778919D01*
X183250279Y-55606336D01*
X183469936Y-55386679D01*
X183515000Y-55319236D01*
X183560064Y-55386679D01*
X183779721Y-55606336D01*
X184038011Y-55778919D01*
X184325006Y-55897796D01*
X184629679Y-55958400D01*
X184940321Y-55958400D01*
X185244994Y-55897796D01*
X185531989Y-55778919D01*
X185790279Y-55606336D01*
X185915463Y-55481152D01*
X186404853Y-55481152D01*
X186494579Y-55740442D01*
X186775671Y-55876335D01*
X187077873Y-55954779D01*
X187389573Y-55972759D01*
X187698791Y-55929584D01*
X187993644Y-55826913D01*
X188155421Y-55740442D01*
X188245147Y-55481152D01*
X187325000Y-54561005D01*
X186404853Y-55481152D01*
X185915463Y-55481152D01*
X186009936Y-55386679D01*
X186096572Y-55257019D01*
X186225248Y-55301547D01*
X187145395Y-54381400D01*
X187504605Y-54381400D01*
X188424752Y-55301547D01*
X188684042Y-55211821D01*
X188819935Y-54930729D01*
X188898379Y-54628527D01*
X188916359Y-54316827D01*
X188873184Y-54007609D01*
X188770513Y-53712756D01*
X188684042Y-53550979D01*
X188424752Y-53461253D01*
X187504605Y-54381400D01*
X187145395Y-54381400D01*
X186225248Y-53461253D01*
X186096572Y-53505781D01*
X186009936Y-53376121D01*
X185915463Y-53281648D01*
X186404853Y-53281648D01*
X187325000Y-54201795D01*
X188245147Y-53281648D01*
X188155421Y-53022358D01*
X187874329Y-52886465D01*
X187572127Y-52808021D01*
X187260427Y-52790041D01*
X186951209Y-52833216D01*
X186656356Y-52935887D01*
X186494579Y-53022358D01*
X186404853Y-53281648D01*
X185915463Y-53281648D01*
X185790279Y-53156464D01*
X185531989Y-52983881D01*
X185244994Y-52865004D01*
X184940321Y-52804400D01*
X184629679Y-52804400D01*
X184325006Y-52865004D01*
X184038011Y-52983881D01*
X183779721Y-53156464D01*
X183560064Y-53376121D01*
X183515000Y-53443564D01*
X183469936Y-53376121D01*
X183250279Y-53156464D01*
X182991989Y-52983881D01*
X182704994Y-52865004D01*
X182400321Y-52804400D01*
X182089679Y-52804400D01*
X181785006Y-52865004D01*
X181498011Y-52983881D01*
X181239721Y-53156464D01*
X181020064Y-53376121D01*
X180975000Y-53443564D01*
X180929936Y-53376121D01*
X180710279Y-53156464D01*
X180451989Y-52983881D01*
X180164994Y-52865004D01*
X179860321Y-52804400D01*
X179549679Y-52804400D01*
X179245006Y-52865004D01*
X178958011Y-52983881D01*
X178699721Y-53156464D01*
X178480064Y-53376121D01*
X178435000Y-53443564D01*
X178389936Y-53376121D01*
X178170279Y-53156464D01*
X177911989Y-52983881D01*
X177624994Y-52865004D01*
X177320321Y-52804400D01*
X177009679Y-52804400D01*
X176705006Y-52865004D01*
X176418011Y-52983881D01*
X176159721Y-53156464D01*
X175940064Y-53376121D01*
X175895000Y-53443564D01*
X175849936Y-53376121D01*
X175630279Y-53156464D01*
X175371989Y-52983881D01*
X175084994Y-52865004D01*
X174780321Y-52804400D01*
X174469679Y-52804400D01*
X174165006Y-52865004D01*
X173878011Y-52983881D01*
X173619721Y-53156464D01*
X173400064Y-53376121D01*
X173227481Y-53634411D01*
X173108604Y-53921406D01*
X173048000Y-54226079D01*
X171599963Y-54226079D01*
X174303442Y-51522600D01*
X188103759Y-51522600D01*
X190361601Y-53780443D01*
X190361600Y-58233558D01*
X187565686Y-61029473D01*
X187527452Y-61060851D01*
X187496074Y-61099085D01*
X187402237Y-61213425D01*
X187309194Y-61387497D01*
X187251898Y-61576374D01*
X187232553Y-61772800D01*
X187237401Y-61822025D01*
X187237400Y-64009584D01*
X187232553Y-64058800D01*
X187237400Y-64108016D01*
X187237400Y-64108022D01*
X187249924Y-64235187D01*
X187251898Y-64255226D01*
X187275328Y-64332464D01*
X187309194Y-64444103D01*
X187402236Y-64618175D01*
X187527451Y-64770749D01*
X187565691Y-64802132D01*
X194415402Y-71651844D01*
X194415401Y-74083185D01*
X194410554Y-74132401D01*
X194415401Y-74181617D01*
X194415401Y-74181623D01*
X194423761Y-74266502D01*
X194429899Y-74328827D01*
X194442526Y-74370451D01*
X194487195Y-74517704D01*
X194580237Y-74691776D01*
X194705452Y-74844350D01*
X194743691Y-74875732D01*
X194791169Y-74923211D01*
X194790400Y-74927079D01*
X194790400Y-75237721D01*
X194851004Y-75542394D01*
X194969881Y-75829389D01*
X195142464Y-76087679D01*
X195362121Y-76307336D01*
X195491781Y-76393972D01*
X195447253Y-76522648D01*
X196367400Y-77442795D01*
X196381543Y-77428653D01*
X196561148Y-77608258D01*
X196547005Y-77622400D01*
X197467152Y-78542547D01*
X197726442Y-78452821D01*
X197862335Y-78171729D01*
X197898884Y-78030925D01*
X202477401Y-82609443D01*
X202477400Y-87139473D01*
X202474121Y-87141664D01*
X202254464Y-87361321D01*
X202081881Y-87619611D01*
X201963004Y-87906606D01*
X201902400Y-88211279D01*
X201902400Y-88521921D01*
X201963004Y-88826594D01*
X202081881Y-89113589D01*
X202254464Y-89371879D01*
X202474121Y-89591536D01*
X202732411Y-89764119D01*
X203019406Y-89882996D01*
X203324079Y-89943600D01*
X203634721Y-89943600D01*
X203939394Y-89882996D01*
X204226389Y-89764119D01*
X204484679Y-89591536D01*
X204704336Y-89371879D01*
X204876919Y-89113589D01*
X204995796Y-88826594D01*
X205056400Y-88521921D01*
X205056400Y-88211279D01*
X204995796Y-87906606D01*
X204876919Y-87619611D01*
X204704336Y-87361321D01*
X204484679Y-87141664D01*
X204481400Y-87139473D01*
X204481400Y-82243623D01*
X204486248Y-82194400D01*
X204466902Y-81997973D01*
X204409606Y-81809096D01*
X204357878Y-81712319D01*
X204316564Y-81635025D01*
X204191349Y-81482451D01*
X204153115Y-81451073D01*
X197943631Y-75241589D01*
X197944400Y-75237721D01*
X197944400Y-74927079D01*
X197883796Y-74622406D01*
X197764919Y-74335411D01*
X197592336Y-74077121D01*
X197372679Y-73857464D01*
X197114389Y-73684881D01*
X196827394Y-73566004D01*
X196522721Y-73505400D01*
X196419401Y-73505400D01*
X196419401Y-71286013D01*
X196424248Y-71236800D01*
X196419401Y-71187587D01*
X196419401Y-71187578D01*
X196404903Y-71040375D01*
X196347607Y-70851497D01*
X196254565Y-70677426D01*
X196129350Y-70524852D01*
X196091116Y-70493474D01*
X189241400Y-63643759D01*
X189241400Y-62187841D01*
X192037315Y-59391927D01*
X192075549Y-59360549D01*
X192200764Y-59207975D01*
X192293806Y-59033904D01*
X192297888Y-59020448D01*
X192351102Y-58845027D01*
X192362869Y-58725549D01*
X192365600Y-58697823D01*
X192365600Y-58697817D01*
X192370447Y-58648601D01*
X192365600Y-58599385D01*
X192365600Y-53414623D01*
X192370448Y-53365400D01*
X192351102Y-53168973D01*
X192293806Y-52980096D01*
X192270176Y-52935887D01*
X192200764Y-52806025D01*
X192075549Y-52653451D01*
X192037315Y-52622073D01*
X189262132Y-49846891D01*
X189230749Y-49808651D01*
X189078175Y-49683436D01*
X188904104Y-49590394D01*
X188715226Y-49533098D01*
X188568023Y-49518600D01*
X188568016Y-49518600D01*
X188518800Y-49513753D01*
X188469584Y-49518600D01*
X173937612Y-49518600D01*
X173888399Y-49513753D01*
X173839186Y-49518600D01*
X173839177Y-49518600D01*
X173691974Y-49533098D01*
X173503096Y-49590394D01*
X173329025Y-49683436D01*
X173176451Y-49808651D01*
X173145073Y-49846885D01*
X166275189Y-56716769D01*
X166271321Y-56716000D01*
X165960679Y-56716000D01*
X165656006Y-56776604D01*
X165369011Y-56895481D01*
X165110721Y-57068064D01*
X164891064Y-57287721D01*
X164804428Y-57417381D01*
X164675752Y-57372853D01*
X163755605Y-58293000D01*
X163396395Y-58293000D01*
X162476248Y-57372853D01*
X162347572Y-57417381D01*
X162260936Y-57287721D01*
X162166463Y-57193248D01*
X162655853Y-57193248D01*
X163576000Y-58113395D01*
X164496147Y-57193248D01*
X164406421Y-56933958D01*
X164125329Y-56798065D01*
X163823127Y-56719621D01*
X163511427Y-56701641D01*
X163202209Y-56744816D01*
X162907356Y-56847487D01*
X162745579Y-56933958D01*
X162655853Y-57193248D01*
X162166463Y-57193248D01*
X162041279Y-57068064D01*
X161782989Y-56895481D01*
X161495994Y-56776604D01*
X161191321Y-56716000D01*
X160880679Y-56716000D01*
X160576006Y-56776604D01*
X160289011Y-56895481D01*
X160030721Y-57068064D01*
X159811064Y-57287721D01*
X159638481Y-57546011D01*
X159519604Y-57833006D01*
X159459000Y-58137679D01*
X159459000Y-58448321D01*
X159519604Y-58752994D01*
X159638481Y-59039989D01*
X159811064Y-59298279D01*
X159856201Y-59343416D01*
X159856200Y-64330273D01*
X159852921Y-64332464D01*
X159633264Y-64552121D01*
X159460681Y-64810411D01*
X159341804Y-65097406D01*
X159281200Y-65402079D01*
X159281200Y-65712721D01*
X159341804Y-66017394D01*
X159460681Y-66304389D01*
X159633264Y-66562679D01*
X159852921Y-66782336D01*
X159856200Y-66784527D01*
X159856201Y-73229774D01*
X159851353Y-73279000D01*
X159870698Y-73475426D01*
X159927994Y-73664303D01*
X159965774Y-73734984D01*
X160021037Y-73838375D01*
X160146252Y-73990949D01*
X160184486Y-74022327D01*
X171397769Y-85235611D01*
X171397000Y-85239479D01*
X171397000Y-85550121D01*
X171457604Y-85854794D01*
X171576481Y-86141789D01*
X171749064Y-86400079D01*
X171968721Y-86619736D01*
X172036164Y-86664800D01*
X171968721Y-86709864D01*
X171749064Y-86929521D01*
X171746873Y-86932800D01*
X149500114Y-86932800D01*
X149450901Y-86927953D01*
X149401688Y-86932800D01*
X149401679Y-86932800D01*
X149254476Y-86947298D01*
X149065598Y-87004594D01*
X148891527Y-87097636D01*
X148738953Y-87222851D01*
X148707575Y-87261085D01*
X141616538Y-94352123D01*
X141543479Y-94279064D01*
X141285189Y-94106481D01*
X140998194Y-93987604D01*
X140693521Y-93927000D01*
X140382879Y-93927000D01*
X140078206Y-93987604D01*
X139791211Y-94106481D01*
X139532921Y-94279064D01*
X139313264Y-94498721D01*
X139140681Y-94757011D01*
X139021804Y-95044006D01*
X138961200Y-95348679D01*
X138961200Y-95659321D01*
X139021804Y-95963994D01*
X139140681Y-96250989D01*
X139313264Y-96509279D01*
X139532921Y-96728936D01*
X139791211Y-96901519D01*
X140078206Y-97020396D01*
X140382879Y-97081000D01*
X140693521Y-97081000D01*
X140998194Y-97020396D01*
X141285189Y-96901519D01*
X141449324Y-96791848D01*
X154375453Y-96791848D01*
X155295600Y-97711995D01*
X156215747Y-96791848D01*
X156126021Y-96532558D01*
X155844929Y-96396665D01*
X155542727Y-96318221D01*
X155231027Y-96300241D01*
X154921809Y-96343416D01*
X154626956Y-96446087D01*
X154465179Y-96532558D01*
X154375453Y-96791848D01*
X141449324Y-96791848D01*
X141543479Y-96728936D01*
X141763136Y-96509279D01*
X141765327Y-96506000D01*
X141832486Y-96506000D01*
X141881702Y-96510847D01*
X141930918Y-96506000D01*
X141930925Y-96506000D01*
X142078128Y-96491502D01*
X142267006Y-96434206D01*
X142441077Y-96341164D01*
X142593651Y-96215949D01*
X142625034Y-96177709D01*
X149865944Y-88936800D01*
X171746873Y-88936800D01*
X171749064Y-88940079D01*
X171968721Y-89159736D01*
X172036164Y-89204800D01*
X171968721Y-89249864D01*
X171749064Y-89469521D01*
X171746873Y-89472800D01*
X165301623Y-89472800D01*
X165252400Y-89467952D01*
X165055973Y-89487298D01*
X164975202Y-89511800D01*
X164867096Y-89544594D01*
X164693025Y-89637636D01*
X164540451Y-89762851D01*
X164509073Y-89801085D01*
X156830500Y-97479659D01*
X156741113Y-97222956D01*
X156654642Y-97061179D01*
X156395352Y-96971453D01*
X155475205Y-97891600D01*
X155489348Y-97905743D01*
X155309743Y-98085348D01*
X155295600Y-98071205D01*
X154375453Y-98991352D01*
X154419981Y-99120028D01*
X154290321Y-99206664D01*
X154070664Y-99426321D01*
X153898081Y-99684611D01*
X153779204Y-99971606D01*
X153718600Y-100276279D01*
X153718600Y-100586921D01*
X153779204Y-100891594D01*
X153898081Y-101178589D01*
X154070664Y-101436879D01*
X154290321Y-101656536D01*
X154357764Y-101701600D01*
X154298798Y-101741000D01*
X141882956Y-101741000D01*
X141785703Y-101622497D01*
X141545573Y-101425428D01*
X141271612Y-101278993D01*
X140974346Y-101188818D01*
X140742669Y-101166000D01*
X140587731Y-101166000D01*
X140356054Y-101188818D01*
X140058788Y-101278993D01*
X139784827Y-101425428D01*
X139544697Y-101622497D01*
X139347628Y-101862627D01*
X139201193Y-102136588D01*
X139111018Y-102433854D01*
X139080570Y-102743000D01*
X139111018Y-103052146D01*
X139201193Y-103349412D01*
X139347628Y-103623373D01*
X139544697Y-103863503D01*
X139612401Y-103919066D01*
X139612400Y-106519673D01*
X139609121Y-106521864D01*
X139389464Y-106741521D01*
X139216881Y-106999811D01*
X139098004Y-107286806D01*
X139037400Y-107591479D01*
X139037400Y-107902121D01*
X139098004Y-108206794D01*
X139216881Y-108493789D01*
X139389464Y-108752079D01*
X139609121Y-108971736D01*
X139867411Y-109144319D01*
X140154406Y-109263196D01*
X140459079Y-109323800D01*
X140769721Y-109323800D01*
X141074394Y-109263196D01*
X141361389Y-109144319D01*
X141619679Y-108971736D01*
X141839336Y-108752079D01*
X142011919Y-108493789D01*
X142130796Y-108206794D01*
X142173444Y-107992388D01*
X146312814Y-107992388D01*
X146365446Y-108165911D01*
X146500578Y-108445703D01*
X146687698Y-108693756D01*
X146919615Y-108900537D01*
X147187417Y-109058100D01*
X147480812Y-109160390D01*
X147726400Y-109040958D01*
X147726400Y-107746800D01*
X147980400Y-107746800D01*
X147980400Y-109040958D01*
X148225988Y-109160390D01*
X148519383Y-109058100D01*
X148787185Y-108900537D01*
X149019102Y-108693756D01*
X149206222Y-108445703D01*
X149341354Y-108165911D01*
X149393986Y-107992388D01*
X149273984Y-107746800D01*
X147980400Y-107746800D01*
X147726400Y-107746800D01*
X146432816Y-107746800D01*
X146312814Y-107992388D01*
X142173444Y-107992388D01*
X142191400Y-107902121D01*
X142191400Y-107591479D01*
X142130796Y-107286806D01*
X142114396Y-107247212D01*
X146312814Y-107247212D01*
X146432816Y-107492800D01*
X147726400Y-107492800D01*
X147726400Y-106198642D01*
X147980400Y-106198642D01*
X147980400Y-107492800D01*
X149273984Y-107492800D01*
X149393986Y-107247212D01*
X149341354Y-107073689D01*
X149206222Y-106793897D01*
X149019102Y-106545844D01*
X148787185Y-106339063D01*
X148519383Y-106181500D01*
X148225988Y-106079210D01*
X147980400Y-106198642D01*
X147726400Y-106198642D01*
X147480812Y-106079210D01*
X147187417Y-106181500D01*
X146919615Y-106339063D01*
X146687698Y-106545844D01*
X146500578Y-106793897D01*
X146365446Y-107073689D01*
X146312814Y-107247212D01*
X142114396Y-107247212D01*
X142011919Y-106999811D01*
X141839336Y-106741521D01*
X141619679Y-106521864D01*
X141616400Y-106519673D01*
X141616400Y-104002446D01*
X141785703Y-103863503D01*
X141882956Y-103745000D01*
X153915728Y-103745000D01*
X154070664Y-103976879D01*
X154290321Y-104196536D01*
X154357764Y-104241600D01*
X154290321Y-104286664D01*
X154070664Y-104506321D01*
X153898081Y-104764611D01*
X153779204Y-105051606D01*
X153718600Y-105356279D01*
X153718600Y-105666921D01*
X153779204Y-105971594D01*
X153898081Y-106258589D01*
X154070664Y-106516879D01*
X154290321Y-106736536D01*
X154357764Y-106781600D01*
X154290321Y-106826664D01*
X154070664Y-107046321D01*
X153898081Y-107304611D01*
X153779204Y-107591606D01*
X153718600Y-107896279D01*
X153718600Y-108206921D01*
X153719369Y-108210789D01*
X152513689Y-109416470D01*
X152513684Y-109416474D01*
X151680159Y-110250000D01*
X139353042Y-110250000D01*
X138238200Y-109135159D01*
X138238200Y-97956173D01*
X153704241Y-97956173D01*
X153747416Y-98265391D01*
X153850087Y-98560244D01*
X153936558Y-98722021D01*
X154195848Y-98811747D01*
X155115995Y-97891600D01*
X154195848Y-96971453D01*
X153936558Y-97061179D01*
X153800665Y-97342271D01*
X153722221Y-97644473D01*
X153704241Y-97956173D01*
X138238200Y-97956173D01*
X138238200Y-90752623D01*
X138243048Y-90703400D01*
X138223702Y-90506973D01*
X138166406Y-90318096D01*
X138145174Y-90278374D01*
X138073364Y-90144025D01*
X137948149Y-89991451D01*
X137909915Y-89960073D01*
X136409400Y-88459559D01*
X136409400Y-86113927D01*
X136412679Y-86111736D01*
X136632336Y-85892079D01*
X136804919Y-85633789D01*
X136923796Y-85346794D01*
X136984400Y-85042121D01*
X136984400Y-84731479D01*
X136923796Y-84426806D01*
X136804919Y-84139811D01*
X136632336Y-83881521D01*
X136412679Y-83661864D01*
X136154389Y-83489281D01*
X135867394Y-83370404D01*
X135562721Y-83309800D01*
X135252079Y-83309800D01*
X135248211Y-83310569D01*
X132467732Y-80530091D01*
X132436349Y-80491851D01*
X132283775Y-80366636D01*
X132109704Y-80273594D01*
X131920826Y-80216298D01*
X131773623Y-80201800D01*
X131773616Y-80201800D01*
X131724400Y-80196953D01*
X131675184Y-80201800D01*
X124531925Y-80201800D01*
X124482702Y-80196952D01*
X124286275Y-80216298D01*
X124214652Y-80238025D01*
X124097398Y-80273594D01*
X123923327Y-80366636D01*
X123770753Y-80491851D01*
X123739370Y-80530091D01*
X123684138Y-80585323D01*
X123611079Y-80512264D01*
X123352789Y-80339681D01*
X123065794Y-80220804D01*
X122761121Y-80160200D01*
X122668000Y-80160200D01*
X122668000Y-73286552D01*
X134487253Y-73286552D01*
X134576979Y-73545842D01*
X134858071Y-73681735D01*
X135160273Y-73760179D01*
X135471973Y-73778159D01*
X135781191Y-73734984D01*
X136076044Y-73632313D01*
X136237821Y-73545842D01*
X136327547Y-73286552D01*
X135407400Y-72366405D01*
X134487253Y-73286552D01*
X122668000Y-73286552D01*
X122668000Y-72397606D01*
X122673512Y-72395323D01*
X122888949Y-72251373D01*
X133816041Y-72251373D01*
X133859216Y-72560591D01*
X133961887Y-72855444D01*
X134048358Y-73017221D01*
X134307648Y-73106947D01*
X135227795Y-72186800D01*
X135587005Y-72186800D01*
X136507152Y-73106947D01*
X136766442Y-73017221D01*
X136902335Y-72736129D01*
X136980779Y-72433927D01*
X136998759Y-72122227D01*
X136955584Y-71813009D01*
X136852913Y-71518156D01*
X136766442Y-71356379D01*
X136507152Y-71266653D01*
X135587005Y-72186800D01*
X135227795Y-72186800D01*
X134307648Y-71266653D01*
X134048358Y-71356379D01*
X133912465Y-71637471D01*
X133834021Y-71939673D01*
X133816041Y-72251373D01*
X122888949Y-72251373D01*
X123021884Y-72162549D01*
X123318149Y-71866284D01*
X123550923Y-71517912D01*
X123711261Y-71130823D01*
X123719968Y-71087048D01*
X134487253Y-71087048D01*
X135407400Y-72007195D01*
X136327547Y-71087048D01*
X136237821Y-70827758D01*
X135956729Y-70691865D01*
X135654527Y-70613421D01*
X135342827Y-70595441D01*
X135033609Y-70638616D01*
X134738756Y-70741287D01*
X134576979Y-70827758D01*
X134487253Y-71087048D01*
X123719968Y-71087048D01*
X123793000Y-70719891D01*
X123793000Y-70300909D01*
X123711261Y-69889977D01*
X123550923Y-69502888D01*
X123318149Y-69154516D01*
X123021884Y-68858251D01*
X122673512Y-68625477D01*
X122286423Y-68465139D01*
X121875491Y-68383400D01*
X121456509Y-68383400D01*
X121045577Y-68465139D01*
X120658488Y-68625477D01*
X120310116Y-68858251D01*
X120013851Y-69154516D01*
X119781077Y-69502888D01*
X119620739Y-69889977D01*
X119539000Y-70300909D01*
X119539000Y-70719891D01*
X119620739Y-71130823D01*
X119781077Y-71517912D01*
X120013851Y-71866284D01*
X120310116Y-72162549D01*
X120658488Y-72395323D01*
X120664000Y-72397606D01*
X120664001Y-80748174D01*
X120659153Y-80797400D01*
X120678498Y-80993826D01*
X120735794Y-81182703D01*
X120809223Y-81320079D01*
X120828837Y-81356775D01*
X120954052Y-81509349D01*
X120992286Y-81540727D01*
X121029569Y-81578011D01*
X121028800Y-81581879D01*
X121028800Y-81892521D01*
X121076522Y-82132434D01*
X119265091Y-83943866D01*
X119226851Y-83975249D01*
X119101636Y-84127823D01*
X119035093Y-84252319D01*
X119008594Y-84301895D01*
X118987572Y-84371196D01*
X118951298Y-84490773D01*
X118936800Y-84637976D01*
X118936800Y-84637982D01*
X118931953Y-84687198D01*
X118936800Y-84736414D01*
X118936801Y-94390568D01*
X118936800Y-94390578D01*
X118936800Y-94559964D01*
X118815887Y-94571873D01*
X118697697Y-94607725D01*
X118588772Y-94665947D01*
X118493299Y-94744299D01*
X118414947Y-94839772D01*
X118356725Y-94948697D01*
X118320873Y-95066887D01*
X118308767Y-95189800D01*
X118308767Y-97189800D01*
X118320873Y-97312713D01*
X118356725Y-97430903D01*
X118414947Y-97539828D01*
X118493299Y-97635301D01*
X118588772Y-97713653D01*
X118697697Y-97771875D01*
X118815887Y-97807727D01*
X118936800Y-97819636D01*
X118936801Y-104114240D01*
X118846038Y-104333359D01*
X118791200Y-104609053D01*
X118791200Y-104890147D01*
X118846038Y-105165841D01*
X118953609Y-105425538D01*
X119109776Y-105659260D01*
X119216200Y-105765684D01*
X119216201Y-107416515D01*
X119135176Y-107497540D01*
X118979009Y-107731262D01*
X118871438Y-107990959D01*
X118816600Y-108266653D01*
X118816600Y-108547747D01*
X118871438Y-108823441D01*
X118979009Y-109083138D01*
X119135176Y-109316860D01*
X119241600Y-109423284D01*
X119241601Y-111099515D01*
X119109776Y-111231340D01*
X118953609Y-111465062D01*
X118846038Y-111724759D01*
X118791200Y-112000453D01*
X118791200Y-112281547D01*
X118846038Y-112557241D01*
X118953609Y-112816938D01*
X119109776Y-113050660D01*
X119216200Y-113157084D01*
X119216201Y-114966171D01*
X119196887Y-114968073D01*
X119078697Y-115003925D01*
X118969772Y-115062147D01*
X118874299Y-115140499D01*
X118795947Y-115235972D01*
X118737725Y-115344897D01*
X118701873Y-115463087D01*
X118689767Y-115586000D01*
X118689767Y-117586000D01*
X118701873Y-117708913D01*
X118737725Y-117827103D01*
X118795947Y-117936028D01*
X118874299Y-118031501D01*
X118969772Y-118109853D01*
X119078697Y-118168075D01*
X119196887Y-118203927D01*
X119319800Y-118216033D01*
X121319800Y-118216033D01*
X121442713Y-118203927D01*
X121560903Y-118168075D01*
X121669828Y-118109853D01*
X121765301Y-118031501D01*
X121843653Y-117936028D01*
X121901875Y-117827103D01*
X121937727Y-117708913D01*
X121949833Y-117586000D01*
X121949833Y-116966434D01*
X123809676Y-116966434D01*
X123866298Y-117153107D01*
X124006401Y-117441382D01*
X124200052Y-117696785D01*
X124439808Y-117909501D01*
X124716456Y-118071356D01*
X125019365Y-118176129D01*
X125272800Y-118057315D01*
X125272800Y-116713000D01*
X125526800Y-116713000D01*
X125526800Y-118057315D01*
X125780235Y-118176129D01*
X126083144Y-118071356D01*
X126359792Y-117909501D01*
X126599548Y-117696785D01*
X126793199Y-117441382D01*
X126933302Y-117153107D01*
X126989924Y-116966434D01*
X126870577Y-116713000D01*
X125526800Y-116713000D01*
X125272800Y-116713000D01*
X123929023Y-116713000D01*
X123809676Y-116966434D01*
X121949833Y-116966434D01*
X121949833Y-116205566D01*
X123809676Y-116205566D01*
X123929023Y-116459000D01*
X125272800Y-116459000D01*
X125272800Y-115114685D01*
X125526800Y-115114685D01*
X125526800Y-116459000D01*
X126870577Y-116459000D01*
X126989924Y-116205566D01*
X126933302Y-116018893D01*
X126793199Y-115730618D01*
X126599548Y-115475215D01*
X126359792Y-115262499D01*
X126083144Y-115100644D01*
X125780235Y-114995871D01*
X125526800Y-115114685D01*
X125272800Y-115114685D01*
X125019365Y-114995871D01*
X124716456Y-115100644D01*
X124439808Y-115262499D01*
X124200052Y-115475215D01*
X124006401Y-115730618D01*
X123866298Y-116018893D01*
X123809676Y-116205566D01*
X121949833Y-116205566D01*
X121949833Y-115586000D01*
X121937727Y-115463087D01*
X121901875Y-115344897D01*
X121843653Y-115235972D01*
X121765301Y-115140499D01*
X121669828Y-115062147D01*
X121560903Y-115003925D01*
X121442713Y-114968073D01*
X121319800Y-114955967D01*
X121220200Y-114955967D01*
X121220200Y-113157084D01*
X121243582Y-113133702D01*
X124405103Y-113133702D01*
X124476686Y-113377671D01*
X124732196Y-113498571D01*
X125006384Y-113567300D01*
X125288712Y-113581217D01*
X125568330Y-113539787D01*
X125834492Y-113444603D01*
X125959714Y-113377671D01*
X126031297Y-113133702D01*
X125218200Y-112320605D01*
X124405103Y-113133702D01*
X121243582Y-113133702D01*
X121326624Y-113050660D01*
X121482791Y-112816938D01*
X121590362Y-112557241D01*
X121645200Y-112281547D01*
X121645200Y-112211512D01*
X123777983Y-112211512D01*
X123819413Y-112491130D01*
X123914597Y-112757292D01*
X123981529Y-112882514D01*
X124225498Y-112954097D01*
X125038595Y-112141000D01*
X125397805Y-112141000D01*
X126210902Y-112954097D01*
X126454871Y-112882514D01*
X126575771Y-112627004D01*
X126644500Y-112352816D01*
X126658417Y-112070488D01*
X126616987Y-111790870D01*
X126521803Y-111524708D01*
X126454871Y-111399486D01*
X126210902Y-111327903D01*
X125397805Y-112141000D01*
X125038595Y-112141000D01*
X124225498Y-111327903D01*
X123981529Y-111399486D01*
X123860629Y-111654996D01*
X123791900Y-111929184D01*
X123777983Y-112211512D01*
X121645200Y-112211512D01*
X121645200Y-112000453D01*
X121590362Y-111724759D01*
X121482791Y-111465062D01*
X121326624Y-111231340D01*
X121245600Y-111150316D01*
X121245600Y-111148298D01*
X124405103Y-111148298D01*
X125218200Y-111961395D01*
X126031297Y-111148298D01*
X125959714Y-110904329D01*
X125704204Y-110783429D01*
X125430016Y-110714700D01*
X125147688Y-110700783D01*
X124868070Y-110742213D01*
X124601908Y-110837397D01*
X124476686Y-110904329D01*
X124405103Y-111148298D01*
X121245600Y-111148298D01*
X121245600Y-109423284D01*
X121268982Y-109399902D01*
X124430503Y-109399902D01*
X124502086Y-109643871D01*
X124757596Y-109764771D01*
X125031784Y-109833500D01*
X125314112Y-109847417D01*
X125593730Y-109805987D01*
X125859892Y-109710803D01*
X125985114Y-109643871D01*
X126056697Y-109399902D01*
X125243600Y-108586805D01*
X124430503Y-109399902D01*
X121268982Y-109399902D01*
X121352024Y-109316860D01*
X121508191Y-109083138D01*
X121615762Y-108823441D01*
X121670600Y-108547747D01*
X121670600Y-108477712D01*
X123803383Y-108477712D01*
X123844813Y-108757330D01*
X123939997Y-109023492D01*
X124006929Y-109148714D01*
X124250898Y-109220297D01*
X125063995Y-108407200D01*
X125423205Y-108407200D01*
X126236302Y-109220297D01*
X126480271Y-109148714D01*
X126601171Y-108893204D01*
X126669900Y-108619016D01*
X126683817Y-108336688D01*
X126642387Y-108057070D01*
X126547203Y-107790908D01*
X126480271Y-107665686D01*
X126236302Y-107594103D01*
X125423205Y-108407200D01*
X125063995Y-108407200D01*
X124250898Y-107594103D01*
X124006929Y-107665686D01*
X123886029Y-107921196D01*
X123817300Y-108195384D01*
X123803383Y-108477712D01*
X121670600Y-108477712D01*
X121670600Y-108266653D01*
X121615762Y-107990959D01*
X121508191Y-107731262D01*
X121352024Y-107497540D01*
X121268982Y-107414498D01*
X124430503Y-107414498D01*
X125243600Y-108227595D01*
X126056697Y-107414498D01*
X125985114Y-107170529D01*
X125729604Y-107049629D01*
X125455416Y-106980900D01*
X125173088Y-106966983D01*
X124893470Y-107008413D01*
X124627308Y-107103597D01*
X124502086Y-107170529D01*
X124430503Y-107414498D01*
X121268982Y-107414498D01*
X121220200Y-107365716D01*
X121220200Y-105765684D01*
X121243582Y-105742302D01*
X124405103Y-105742302D01*
X124476686Y-105986271D01*
X124732196Y-106107171D01*
X125006384Y-106175900D01*
X125288712Y-106189817D01*
X125568330Y-106148387D01*
X125834492Y-106053203D01*
X125959714Y-105986271D01*
X126031297Y-105742302D01*
X125218200Y-104929205D01*
X124405103Y-105742302D01*
X121243582Y-105742302D01*
X121326624Y-105659260D01*
X121482791Y-105425538D01*
X121590362Y-105165841D01*
X121645200Y-104890147D01*
X121645200Y-104820112D01*
X123777983Y-104820112D01*
X123819413Y-105099730D01*
X123914597Y-105365892D01*
X123981529Y-105491114D01*
X124225498Y-105562697D01*
X125038595Y-104749600D01*
X125397805Y-104749600D01*
X126210902Y-105562697D01*
X126454871Y-105491114D01*
X126575771Y-105235604D01*
X126644500Y-104961416D01*
X126658417Y-104679088D01*
X126616987Y-104399470D01*
X126521803Y-104133308D01*
X126454871Y-104008086D01*
X126210902Y-103936503D01*
X125397805Y-104749600D01*
X125038595Y-104749600D01*
X124225498Y-103936503D01*
X123981529Y-104008086D01*
X123860629Y-104263596D01*
X123791900Y-104537784D01*
X123777983Y-104820112D01*
X121645200Y-104820112D01*
X121645200Y-104609053D01*
X121590362Y-104333359D01*
X121482791Y-104073662D01*
X121326624Y-103839940D01*
X121243582Y-103756898D01*
X124405103Y-103756898D01*
X125218200Y-104569995D01*
X126031297Y-103756898D01*
X125959714Y-103512929D01*
X125704204Y-103392029D01*
X125430016Y-103323300D01*
X125147688Y-103309383D01*
X124868070Y-103350813D01*
X124601908Y-103445997D01*
X124476686Y-103512929D01*
X124405103Y-103756898D01*
X121243582Y-103756898D01*
X121127860Y-103641176D01*
X120940800Y-103516187D01*
X120940800Y-97819636D01*
X121061713Y-97807727D01*
X121179903Y-97771875D01*
X121288828Y-97713653D01*
X121384301Y-97635301D01*
X121462653Y-97539828D01*
X121520875Y-97430903D01*
X121552935Y-97325213D01*
X123982992Y-97325213D01*
X124078756Y-97589614D01*
X124368371Y-97730504D01*
X124679908Y-97812184D01*
X125001395Y-97831518D01*
X125320475Y-97787761D01*
X125624888Y-97682595D01*
X125798844Y-97589614D01*
X125894608Y-97325213D01*
X124938800Y-96369405D01*
X123982992Y-97325213D01*
X121552935Y-97325213D01*
X121556727Y-97312713D01*
X121568833Y-97189800D01*
X121568833Y-96252395D01*
X123297082Y-96252395D01*
X123340839Y-96571475D01*
X123446005Y-96875888D01*
X123538986Y-97049844D01*
X123803387Y-97145608D01*
X124759195Y-96189800D01*
X125118405Y-96189800D01*
X126074213Y-97145608D01*
X126338614Y-97049844D01*
X126479504Y-96760229D01*
X126561184Y-96448692D01*
X126580518Y-96127205D01*
X126536761Y-95808125D01*
X126431595Y-95503712D01*
X126338614Y-95329756D01*
X126074213Y-95233992D01*
X125118405Y-96189800D01*
X124759195Y-96189800D01*
X123803387Y-95233992D01*
X123538986Y-95329756D01*
X123398096Y-95619371D01*
X123316416Y-95930908D01*
X123297082Y-96252395D01*
X121568833Y-96252395D01*
X121568833Y-95189800D01*
X121556727Y-95066887D01*
X121552936Y-95054387D01*
X123982992Y-95054387D01*
X124938800Y-96010195D01*
X125894608Y-95054387D01*
X125798844Y-94789986D01*
X125509229Y-94649096D01*
X125197692Y-94567416D01*
X124876205Y-94548082D01*
X124557125Y-94591839D01*
X124252712Y-94697005D01*
X124078756Y-94789986D01*
X123982992Y-95054387D01*
X121552936Y-95054387D01*
X121520875Y-94948697D01*
X121462653Y-94839772D01*
X121384301Y-94744299D01*
X121288828Y-94665947D01*
X121179903Y-94607725D01*
X121061713Y-94571873D01*
X120940800Y-94559964D01*
X120940800Y-85102239D01*
X121143992Y-84899047D01*
X121160287Y-84945844D01*
X121246758Y-85107621D01*
X121506048Y-85197347D01*
X122426195Y-84277200D01*
X122785405Y-84277200D01*
X123705552Y-85197347D01*
X123964842Y-85107621D01*
X124100735Y-84826529D01*
X124179179Y-84524327D01*
X124197159Y-84212627D01*
X124153984Y-83903409D01*
X124051313Y-83608556D01*
X123964842Y-83446779D01*
X123705552Y-83357053D01*
X122785405Y-84277200D01*
X122426195Y-84277200D01*
X122412053Y-84263058D01*
X122591658Y-84083453D01*
X122605800Y-84097595D01*
X123525947Y-83177448D01*
X123481419Y-83048772D01*
X123611079Y-82962136D01*
X123830736Y-82742479D01*
X123832927Y-82739200D01*
X123900086Y-82739200D01*
X123949302Y-82744047D01*
X123998518Y-82739200D01*
X123998525Y-82739200D01*
X124145728Y-82724702D01*
X124334606Y-82667406D01*
X124508677Y-82574364D01*
X124661251Y-82449149D01*
X124692634Y-82410909D01*
X124897743Y-82205800D01*
X131309359Y-82205800D01*
X133831169Y-84727611D01*
X133830400Y-84731479D01*
X133830400Y-85042121D01*
X133891004Y-85346794D01*
X134009881Y-85633789D01*
X134182464Y-85892079D01*
X134402121Y-86111736D01*
X134405400Y-86113927D01*
X134405401Y-88825374D01*
X134400553Y-88874600D01*
X134419898Y-89071026D01*
X134477194Y-89259903D01*
X134496919Y-89296806D01*
X134570237Y-89433975D01*
X134695452Y-89586549D01*
X134733686Y-89617927D01*
X136234200Y-91118442D01*
X136234201Y-109163160D01*
X135281831Y-108210789D01*
X135282600Y-108206921D01*
X135282600Y-107896279D01*
X135221996Y-107591606D01*
X135103119Y-107304611D01*
X134930536Y-107046321D01*
X134710879Y-106826664D01*
X134643436Y-106781600D01*
X134710879Y-106736536D01*
X134930536Y-106516879D01*
X135103119Y-106258589D01*
X135221996Y-105971594D01*
X135282600Y-105666921D01*
X135282600Y-105356279D01*
X135221996Y-105051606D01*
X135103119Y-104764611D01*
X134930536Y-104506321D01*
X134710879Y-104286664D01*
X134643436Y-104241600D01*
X134710879Y-104196536D01*
X134930536Y-103976879D01*
X135103119Y-103718589D01*
X135221996Y-103431594D01*
X135282600Y-103126921D01*
X135282600Y-102816279D01*
X135221996Y-102511606D01*
X135103119Y-102224611D01*
X134930536Y-101966321D01*
X134710879Y-101746664D01*
X134643436Y-101701600D01*
X134710879Y-101656536D01*
X134930536Y-101436879D01*
X135103119Y-101178589D01*
X135221996Y-100891594D01*
X135282600Y-100586921D01*
X135282600Y-100276279D01*
X135221996Y-99971606D01*
X135103119Y-99684611D01*
X134930536Y-99426321D01*
X134710879Y-99206664D01*
X134643436Y-99161600D01*
X134710879Y-99116536D01*
X134930536Y-98896879D01*
X135103119Y-98638589D01*
X135221996Y-98351594D01*
X135282600Y-98046921D01*
X135282600Y-97736279D01*
X135221996Y-97431606D01*
X135103119Y-97144611D01*
X134930536Y-96886321D01*
X134710879Y-96666664D01*
X134643436Y-96621600D01*
X134710879Y-96576536D01*
X134930536Y-96356879D01*
X135103119Y-96098589D01*
X135221996Y-95811594D01*
X135282600Y-95506921D01*
X135282600Y-95196279D01*
X135221996Y-94891606D01*
X135103119Y-94604611D01*
X134930536Y-94346321D01*
X134710879Y-94126664D01*
X134452589Y-93954081D01*
X134165594Y-93835204D01*
X133860921Y-93774600D01*
X133550279Y-93774600D01*
X133245606Y-93835204D01*
X132958611Y-93954081D01*
X132700321Y-94126664D01*
X132480664Y-94346321D01*
X132308081Y-94604611D01*
X132189204Y-94891606D01*
X132128600Y-95196279D01*
X132128600Y-95506921D01*
X132189204Y-95811594D01*
X132308081Y-96098589D01*
X132480664Y-96356879D01*
X132700321Y-96576536D01*
X132767764Y-96621600D01*
X132700321Y-96666664D01*
X132480664Y-96886321D01*
X132308081Y-97144611D01*
X132189204Y-97431606D01*
X132128600Y-97736279D01*
X132128600Y-98046921D01*
X132189204Y-98351594D01*
X132308081Y-98638589D01*
X132480664Y-98896879D01*
X132700321Y-99116536D01*
X132767764Y-99161600D01*
X132700321Y-99206664D01*
X132480664Y-99426321D01*
X132308081Y-99684611D01*
X132189204Y-99971606D01*
X132128600Y-100276279D01*
X132128600Y-100586921D01*
X132189204Y-100891594D01*
X132308081Y-101178589D01*
X132480664Y-101436879D01*
X132700321Y-101656536D01*
X132767764Y-101701600D01*
X132700321Y-101746664D01*
X132480664Y-101966321D01*
X132308081Y-102224611D01*
X132189204Y-102511606D01*
X132128600Y-102816279D01*
X132128600Y-103126921D01*
X132189204Y-103431594D01*
X132308081Y-103718589D01*
X132480664Y-103976879D01*
X132700321Y-104196536D01*
X132767764Y-104241600D01*
X132700321Y-104286664D01*
X132480664Y-104506321D01*
X132308081Y-104764611D01*
X132189204Y-105051606D01*
X132128600Y-105356279D01*
X132128600Y-105666921D01*
X132189204Y-105971594D01*
X132308081Y-106258589D01*
X132480664Y-106516879D01*
X132700321Y-106736536D01*
X132767764Y-106781600D01*
X132700321Y-106826664D01*
X132480664Y-107046321D01*
X132308081Y-107304611D01*
X132189204Y-107591606D01*
X132128600Y-107896279D01*
X132128600Y-108206921D01*
X132189204Y-108511594D01*
X132308081Y-108798589D01*
X132480664Y-109056879D01*
X132700321Y-109276536D01*
X132958611Y-109449119D01*
X133245606Y-109567996D01*
X133550279Y-109628600D01*
X133860921Y-109628600D01*
X133864789Y-109627831D01*
X137254873Y-113017915D01*
X137286251Y-113056149D01*
X137438825Y-113181364D01*
X137612896Y-113274406D01*
X137757813Y-113318366D01*
X137801773Y-113331702D01*
X137821812Y-113333676D01*
X137948977Y-113346200D01*
X137948983Y-113346200D01*
X137998199Y-113351047D01*
X138047415Y-113346200D01*
X155474984Y-113346200D01*
X155524200Y-113351047D01*
X155573416Y-113346200D01*
X155573423Y-113346200D01*
X155720626Y-113331702D01*
X155909504Y-113274406D01*
X156083575Y-113181364D01*
X156236149Y-113056149D01*
X156267532Y-113017909D01*
X165595915Y-103689527D01*
X165634149Y-103658149D01*
X165759364Y-103505575D01*
X165852406Y-103331504D01*
X165898637Y-103179103D01*
X165909702Y-103142627D01*
X165918613Y-103052146D01*
X165924200Y-102995423D01*
X165924200Y-102995417D01*
X165929047Y-102946201D01*
X165924200Y-102896985D01*
X165924200Y-100138139D01*
X166495917Y-99566422D01*
X166485600Y-99671178D01*
X166485600Y-99671184D01*
X166480753Y-99720400D01*
X166485600Y-99769616D01*
X166485601Y-102795375D01*
X166480753Y-102844600D01*
X166500098Y-103041026D01*
X166557394Y-103229903D01*
X166623284Y-103353175D01*
X166650437Y-103403975D01*
X166775652Y-103556549D01*
X166813886Y-103587927D01*
X174948473Y-111722515D01*
X174979851Y-111760749D01*
X175132425Y-111885964D01*
X175273548Y-111961395D01*
X175306496Y-111979006D01*
X175495373Y-112036302D01*
X175513557Y-112038093D01*
X175642577Y-112050800D01*
X175642584Y-112050800D01*
X175691800Y-112055647D01*
X175741016Y-112050800D01*
X183430873Y-112050800D01*
X183433064Y-112054079D01*
X183652721Y-112273736D01*
X183782381Y-112360372D01*
X183737853Y-112489048D01*
X184658000Y-113409195D01*
X185578147Y-112489048D01*
X185533619Y-112360372D01*
X185663279Y-112273736D01*
X185882936Y-112054079D01*
X185885127Y-112050800D01*
X188977584Y-112050800D01*
X189026800Y-112055647D01*
X189076016Y-112050800D01*
X189076023Y-112050800D01*
X189223226Y-112036302D01*
X189412104Y-111979006D01*
X189586175Y-111885964D01*
X189738749Y-111760749D01*
X189770132Y-111722509D01*
X192830011Y-108662631D01*
X192833879Y-108663400D01*
X193144521Y-108663400D01*
X193449194Y-108602796D01*
X193736189Y-108483919D01*
X193994479Y-108311336D01*
X194214136Y-108091679D01*
X194386719Y-107833389D01*
X194505596Y-107546394D01*
X194566200Y-107241721D01*
X194566200Y-106931079D01*
X194505596Y-106626406D01*
X194386719Y-106339411D01*
X194214136Y-106081121D01*
X193994479Y-105861464D01*
X193736189Y-105688881D01*
X193449194Y-105570004D01*
X193144521Y-105509400D01*
X192833879Y-105509400D01*
X192529206Y-105570004D01*
X192242211Y-105688881D01*
X191983921Y-105861464D01*
X191764264Y-106081121D01*
X191591681Y-106339411D01*
X191472804Y-106626406D01*
X191412200Y-106931079D01*
X191412200Y-107241721D01*
X191412969Y-107245589D01*
X188611759Y-110046800D01*
X185885127Y-110046800D01*
X185882936Y-110043521D01*
X185663279Y-109823864D01*
X185404989Y-109651281D01*
X185117994Y-109532404D01*
X184813321Y-109471800D01*
X184502679Y-109471800D01*
X184198006Y-109532404D01*
X183911011Y-109651281D01*
X183652721Y-109823864D01*
X183433064Y-110043521D01*
X183430873Y-110046800D01*
X176106842Y-110046800D01*
X168489600Y-102429559D01*
X168489600Y-100135441D01*
X169528242Y-99096800D01*
X171746873Y-99096800D01*
X171749064Y-99100079D01*
X171968721Y-99319736D01*
X172036164Y-99364800D01*
X171968721Y-99409864D01*
X171749064Y-99629521D01*
X171576481Y-99887811D01*
X171457604Y-100174806D01*
X171397000Y-100479479D01*
X171397000Y-100790121D01*
X171457604Y-101094794D01*
X171576481Y-101381789D01*
X171749064Y-101640079D01*
X171968721Y-101859736D01*
X172227011Y-102032319D01*
X172514006Y-102151196D01*
X172818679Y-102211800D01*
X173129321Y-102211800D01*
X173433994Y-102151196D01*
X173720989Y-102032319D01*
X173979279Y-101859736D01*
X174198936Y-101640079D01*
X174371519Y-101381789D01*
X174490396Y-101094794D01*
X174551000Y-100790121D01*
X174551000Y-100479479D01*
X174490396Y-100174806D01*
X174371519Y-99887811D01*
X174198936Y-99629521D01*
X173979279Y-99409864D01*
X173911836Y-99364800D01*
X173979279Y-99319736D01*
X174198936Y-99100079D01*
X174371519Y-98841789D01*
X174490396Y-98554794D01*
X174501439Y-98499280D01*
X177102800Y-101100642D01*
X177102801Y-103963774D01*
X177097953Y-104013000D01*
X177117298Y-104209426D01*
X177174594Y-104398303D01*
X177174595Y-104398304D01*
X177267637Y-104572375D01*
X177392852Y-104724949D01*
X177431086Y-104756327D01*
X178098072Y-105423314D01*
X178129451Y-105461549D01*
X178282025Y-105586764D01*
X178417657Y-105659260D01*
X178456096Y-105679806D01*
X178644973Y-105737102D01*
X178841400Y-105756448D01*
X178890623Y-105751600D01*
X189841184Y-105751600D01*
X189890400Y-105756447D01*
X189939616Y-105751600D01*
X189939623Y-105751600D01*
X190086826Y-105737102D01*
X190275704Y-105679806D01*
X190449775Y-105586764D01*
X190602349Y-105461549D01*
X190633732Y-105423309D01*
X193307315Y-102749727D01*
X193345549Y-102718349D01*
X193470764Y-102565775D01*
X193563806Y-102391704D01*
X193596106Y-102285225D01*
X193621102Y-102202827D01*
X193640448Y-102006400D01*
X193635600Y-101957177D01*
X193635600Y-99043241D01*
X195093961Y-97584880D01*
X195105004Y-97640394D01*
X195223881Y-97927389D01*
X195396464Y-98185679D01*
X195616121Y-98405336D01*
X195874411Y-98577919D01*
X196161406Y-98696796D01*
X196466079Y-98757400D01*
X196776721Y-98757400D01*
X196780589Y-98756631D01*
X197905401Y-99881443D01*
X197905400Y-113935758D01*
X194325758Y-117515401D01*
X185421329Y-117515401D01*
X185663279Y-117353736D01*
X185882936Y-117134079D01*
X185885127Y-117130800D01*
X191263584Y-117130800D01*
X191312800Y-117135647D01*
X191362016Y-117130800D01*
X191362023Y-117130800D01*
X191509226Y-117116302D01*
X191698104Y-117059006D01*
X191872175Y-116965964D01*
X192024749Y-116840749D01*
X192056132Y-116802510D01*
X192963638Y-115895004D01*
X193038731Y-115902400D01*
X193193669Y-115902400D01*
X193425346Y-115879582D01*
X193722612Y-115789407D01*
X193996573Y-115642972D01*
X194236703Y-115445903D01*
X194433772Y-115205773D01*
X194580207Y-114931812D01*
X194670382Y-114634546D01*
X194700830Y-114325400D01*
X194670382Y-114016254D01*
X194580207Y-113718988D01*
X194433772Y-113445027D01*
X194236703Y-113204897D01*
X193996573Y-113007828D01*
X193722612Y-112861393D01*
X193425346Y-112771218D01*
X193193669Y-112748400D01*
X193038731Y-112748400D01*
X192807054Y-112771218D01*
X192509788Y-112861393D01*
X192235827Y-113007828D01*
X191995697Y-113204897D01*
X191798628Y-113445027D01*
X191652193Y-113718988D01*
X191562018Y-114016254D01*
X191531570Y-114325400D01*
X191546596Y-114477962D01*
X190897759Y-115126800D01*
X185885127Y-115126800D01*
X185882936Y-115123521D01*
X185663279Y-114903864D01*
X185533619Y-114817228D01*
X185578147Y-114688552D01*
X184658000Y-113768405D01*
X183737853Y-114688552D01*
X183782381Y-114817228D01*
X183652721Y-114903864D01*
X183433064Y-115123521D01*
X183430873Y-115126800D01*
X182279042Y-115126800D01*
X180805615Y-113653373D01*
X183066641Y-113653373D01*
X183109816Y-113962591D01*
X183212487Y-114257444D01*
X183298958Y-114419221D01*
X183558248Y-114508947D01*
X184478395Y-113588800D01*
X184837605Y-113588800D01*
X185757752Y-114508947D01*
X186017042Y-114419221D01*
X186152935Y-114138129D01*
X186231379Y-113835927D01*
X186249359Y-113524227D01*
X186206184Y-113215009D01*
X186103513Y-112920156D01*
X186017042Y-112758379D01*
X185757752Y-112668653D01*
X184837605Y-113588800D01*
X184478395Y-113588800D01*
X183558248Y-112668653D01*
X183298958Y-112758379D01*
X183163065Y-113039471D01*
X183084621Y-113341673D01*
X183066641Y-113653373D01*
X180805615Y-113653373D01*
X180016532Y-112864291D01*
X179985149Y-112826051D01*
X179832575Y-112700836D01*
X179658504Y-112607794D01*
X179469626Y-112550498D01*
X179322423Y-112536000D01*
X179322416Y-112536000D01*
X179273200Y-112531153D01*
X179223984Y-112536000D01*
X173089719Y-112536000D01*
X173032628Y-112489147D01*
X172923703Y-112430925D01*
X172805513Y-112395073D01*
X172682600Y-112382967D01*
X171182600Y-112382967D01*
X171059687Y-112395073D01*
X170941497Y-112430925D01*
X170832572Y-112489147D01*
X170737099Y-112567499D01*
X170658747Y-112662972D01*
X170600525Y-112771897D01*
X170564673Y-112890087D01*
X170552567Y-113013000D01*
X170552567Y-114063000D01*
X170564673Y-114185913D01*
X170600525Y-114304103D01*
X170658747Y-114413028D01*
X170681703Y-114441000D01*
X164498327Y-114441000D01*
X164496136Y-114437721D01*
X164276479Y-114218064D01*
X164018189Y-114045481D01*
X163731194Y-113926604D01*
X163426521Y-113866000D01*
X163115879Y-113866000D01*
X162811206Y-113926604D01*
X162524211Y-114045481D01*
X162265921Y-114218064D01*
X162046264Y-114437721D01*
X161873681Y-114696011D01*
X161754804Y-114983006D01*
X161694200Y-115287679D01*
X161694200Y-115598321D01*
X161754804Y-115902994D01*
X161873681Y-116189989D01*
X161893065Y-116219000D01*
X157473443Y-116219000D01*
X157496207Y-116176412D01*
X157586382Y-115879146D01*
X157616830Y-115570000D01*
X157586382Y-115260854D01*
X157496207Y-114963588D01*
X157349772Y-114689627D01*
X157152703Y-114449497D01*
X156912573Y-114252428D01*
X156638612Y-114105993D01*
X156341346Y-114015818D01*
X156109669Y-113993000D01*
X155954731Y-113993000D01*
X155723054Y-114015818D01*
X155425788Y-114105993D01*
X155151827Y-114252428D01*
X154911697Y-114449497D01*
X154714628Y-114689627D01*
X154568193Y-114963588D01*
X154478018Y-115260854D01*
X154447570Y-115570000D01*
X154478018Y-115879146D01*
X154568193Y-116176412D01*
X154590957Y-116219000D01*
X137448042Y-116219000D01*
X130923000Y-109693959D01*
X130923000Y-89889016D01*
X130927847Y-89839800D01*
X130923000Y-89790584D01*
X130923000Y-89790577D01*
X130908502Y-89643374D01*
X130906762Y-89637636D01*
X130851206Y-89454496D01*
X130807885Y-89373448D01*
X130758164Y-89280425D01*
X130632949Y-89127851D01*
X130594715Y-89096473D01*
X127641732Y-86143491D01*
X127610349Y-86105251D01*
X127457775Y-85980036D01*
X127283704Y-85886994D01*
X127094826Y-85829698D01*
X126947623Y-85815200D01*
X126947616Y-85815200D01*
X126898400Y-85810353D01*
X126849184Y-85815200D01*
X123832927Y-85815200D01*
X123830736Y-85811921D01*
X123611079Y-85592264D01*
X123481419Y-85505628D01*
X123525947Y-85376952D01*
X122605800Y-84456805D01*
X121685653Y-85376952D01*
X121730181Y-85505628D01*
X121600521Y-85592264D01*
X121380864Y-85811921D01*
X121208281Y-86070211D01*
X121089404Y-86357206D01*
X121028800Y-86661879D01*
X121028800Y-86972521D01*
X121089404Y-87277194D01*
X121208281Y-87564189D01*
X121380864Y-87822479D01*
X121600521Y-88042136D01*
X121858811Y-88214719D01*
X122145806Y-88333596D01*
X122450479Y-88394200D01*
X122761121Y-88394200D01*
X123065794Y-88333596D01*
X123352789Y-88214719D01*
X123611079Y-88042136D01*
X123830736Y-87822479D01*
X123832927Y-87819200D01*
X126483359Y-87819200D01*
X128919000Y-90254842D01*
X128919001Y-110059774D01*
X128914153Y-110109000D01*
X128933498Y-110305426D01*
X128990794Y-110494303D01*
X128990795Y-110494304D01*
X129083837Y-110668375D01*
X129209052Y-110820949D01*
X129247286Y-110852327D01*
X136289673Y-117894715D01*
X136321051Y-117932949D01*
X136473625Y-118058164D01*
X136611945Y-118132097D01*
X136647696Y-118151206D01*
X136836573Y-118208502D01*
X137033000Y-118227848D01*
X137082223Y-118223000D01*
X171138408Y-118223000D01*
X171264616Y-118290459D01*
X171481769Y-118356332D01*
X171651005Y-118373000D01*
X172214195Y-118373000D01*
X172383431Y-118356332D01*
X172600584Y-118290459D01*
X172726792Y-118223000D01*
X179442359Y-118223000D01*
X180410469Y-119191110D01*
X180441852Y-119229350D01*
X180594426Y-119354565D01*
X180768497Y-119447607D01*
X180873124Y-119479346D01*
X115002400Y-119515430D01*
X115002400Y-117736483D01*
X115002434Y-117736134D01*
X115002400Y-117704026D01*
X115002400Y-117670348D01*
X115002364Y-117669982D01*
X114949602Y-67843400D01*
X147557753Y-67843400D01*
X147562600Y-67892616D01*
X147562601Y-78944774D01*
X147557753Y-78994000D01*
X147577098Y-79190426D01*
X147634394Y-79379303D01*
X147690558Y-79484379D01*
X147727437Y-79553375D01*
X147852652Y-79705949D01*
X147890886Y-79737327D01*
X152881169Y-84727611D01*
X152880400Y-84731479D01*
X152880400Y-85042121D01*
X152941004Y-85346794D01*
X153059881Y-85633789D01*
X153232464Y-85892079D01*
X153452121Y-86111736D01*
X153710411Y-86284319D01*
X153997406Y-86403196D01*
X154302079Y-86463800D01*
X154612721Y-86463800D01*
X154917394Y-86403196D01*
X155204389Y-86284319D01*
X155462679Y-86111736D01*
X155682336Y-85892079D01*
X155854919Y-85633789D01*
X155973796Y-85346794D01*
X156034400Y-85042121D01*
X156034400Y-84731479D01*
X155973796Y-84426806D01*
X155854919Y-84139811D01*
X155682336Y-83881521D01*
X155462679Y-83661864D01*
X155204389Y-83489281D01*
X154917394Y-83370404D01*
X154612721Y-83309800D01*
X154302079Y-83309800D01*
X154298211Y-83310569D01*
X149566600Y-78578959D01*
X149566600Y-73286552D01*
X153537253Y-73286552D01*
X153626979Y-73545842D01*
X153908071Y-73681735D01*
X154210273Y-73760179D01*
X154521973Y-73778159D01*
X154831191Y-73734984D01*
X155126044Y-73632313D01*
X155287821Y-73545842D01*
X155377547Y-73286552D01*
X154457400Y-72366405D01*
X153537253Y-73286552D01*
X149566600Y-73286552D01*
X149566600Y-72251373D01*
X152866041Y-72251373D01*
X152909216Y-72560591D01*
X153011887Y-72855444D01*
X153098358Y-73017221D01*
X153357648Y-73106947D01*
X154277795Y-72186800D01*
X154637005Y-72186800D01*
X155557152Y-73106947D01*
X155816442Y-73017221D01*
X155952335Y-72736129D01*
X156030779Y-72433927D01*
X156048759Y-72122227D01*
X156005584Y-71813009D01*
X155902913Y-71518156D01*
X155816442Y-71356379D01*
X155557152Y-71266653D01*
X154637005Y-72186800D01*
X154277795Y-72186800D01*
X153357648Y-71266653D01*
X153098358Y-71356379D01*
X152962465Y-71637471D01*
X152884021Y-71939673D01*
X152866041Y-72251373D01*
X149566600Y-72251373D01*
X149566600Y-71087048D01*
X153537253Y-71087048D01*
X154457400Y-72007195D01*
X155377547Y-71087048D01*
X155287821Y-70827758D01*
X155006729Y-70691865D01*
X154704527Y-70613421D01*
X154392827Y-70595441D01*
X154083609Y-70638616D01*
X153788756Y-70741287D01*
X153626979Y-70827758D01*
X153537253Y-71087048D01*
X149566600Y-71087048D01*
X149566600Y-68258441D01*
X153968011Y-63857031D01*
X153971879Y-63857800D01*
X154282521Y-63857800D01*
X154587194Y-63797196D01*
X154874189Y-63678319D01*
X155132479Y-63505736D01*
X155352136Y-63286079D01*
X155524719Y-63027789D01*
X155643596Y-62740794D01*
X155704200Y-62436121D01*
X155704200Y-62125479D01*
X155643596Y-61820806D01*
X155524719Y-61533811D01*
X155352136Y-61275521D01*
X155132479Y-61055864D01*
X154874189Y-60883281D01*
X154587194Y-60764404D01*
X154282521Y-60703800D01*
X153971879Y-60703800D01*
X153667206Y-60764404D01*
X153380211Y-60883281D01*
X153121921Y-61055864D01*
X152902264Y-61275521D01*
X152729681Y-61533811D01*
X152610804Y-61820806D01*
X152550200Y-62125479D01*
X152550200Y-62436121D01*
X152550969Y-62439989D01*
X147890891Y-67100068D01*
X147852651Y-67131451D01*
X147727436Y-67284025D01*
X147634394Y-67458097D01*
X147577098Y-67646975D01*
X147562600Y-67794178D01*
X147562600Y-67794184D01*
X147557753Y-67843400D01*
X114949602Y-67843400D01*
X114948635Y-66930400D01*
X119527928Y-66930400D01*
X119540188Y-67054882D01*
X119576498Y-67174580D01*
X119635463Y-67284894D01*
X119714815Y-67381585D01*
X119811506Y-67460937D01*
X119921820Y-67519902D01*
X120041518Y-67556212D01*
X120166000Y-67568472D01*
X121380250Y-67565400D01*
X121539000Y-67406650D01*
X121539000Y-65557400D01*
X121793000Y-65557400D01*
X121793000Y-67406650D01*
X121951750Y-67565400D01*
X123166000Y-67568472D01*
X123290482Y-67556212D01*
X123410180Y-67519902D01*
X123520494Y-67460937D01*
X123617185Y-67381585D01*
X123696537Y-67284894D01*
X123755502Y-67174580D01*
X123791812Y-67054882D01*
X123804072Y-66930400D01*
X123801000Y-65716150D01*
X123642250Y-65557400D01*
X121793000Y-65557400D01*
X121539000Y-65557400D01*
X119689750Y-65557400D01*
X119531000Y-65716150D01*
X119527928Y-66930400D01*
X114948635Y-66930400D01*
X114945459Y-63930400D01*
X119527928Y-63930400D01*
X119531000Y-65144650D01*
X119689750Y-65303400D01*
X121539000Y-65303400D01*
X121539000Y-63454150D01*
X121793000Y-63454150D01*
X121793000Y-65303400D01*
X123642250Y-65303400D01*
X123801000Y-65144650D01*
X123804072Y-63930400D01*
X123791812Y-63805918D01*
X123755502Y-63686220D01*
X123696537Y-63575906D01*
X123617185Y-63479215D01*
X123520494Y-63399863D01*
X123410180Y-63340898D01*
X123290482Y-63304588D01*
X123166000Y-63292328D01*
X121951750Y-63295400D01*
X121793000Y-63454150D01*
X121539000Y-63454150D01*
X121380250Y-63295400D01*
X120166000Y-63292328D01*
X120041518Y-63304588D01*
X119921820Y-63340898D01*
X119811506Y-63399863D01*
X119714815Y-63479215D01*
X119635463Y-63575906D01*
X119576498Y-63686220D01*
X119540188Y-63805918D01*
X119527928Y-63930400D01*
X114945459Y-63930400D01*
X114936146Y-55137109D01*
X119310400Y-55137109D01*
X119310400Y-55556091D01*
X119392139Y-55967023D01*
X119552477Y-56354112D01*
X119785251Y-56702484D01*
X120081516Y-56998749D01*
X120429888Y-57231523D01*
X120816977Y-57391861D01*
X121227909Y-57473600D01*
X121646891Y-57473600D01*
X122057823Y-57391861D01*
X122063336Y-57389577D01*
X127628273Y-62954515D01*
X127659651Y-62992749D01*
X127812225Y-63117964D01*
X127986296Y-63211006D01*
X128175173Y-63268302D01*
X128371600Y-63287648D01*
X128420823Y-63282800D01*
X133850073Y-63282800D01*
X133852264Y-63286079D01*
X134071921Y-63505736D01*
X134330211Y-63678319D01*
X134617206Y-63797196D01*
X134921879Y-63857800D01*
X135232521Y-63857800D01*
X135537194Y-63797196D01*
X135824189Y-63678319D01*
X136082479Y-63505736D01*
X136302136Y-63286079D01*
X136474719Y-63027789D01*
X136593596Y-62740794D01*
X136654200Y-62436121D01*
X136654200Y-62125479D01*
X136593596Y-61820806D01*
X136474719Y-61533811D01*
X136302136Y-61275521D01*
X136082479Y-61055864D01*
X135824189Y-60883281D01*
X135537194Y-60764404D01*
X135232521Y-60703800D01*
X134921879Y-60703800D01*
X134617206Y-60764404D01*
X134330211Y-60883281D01*
X134071921Y-61055864D01*
X133852264Y-61275521D01*
X133850073Y-61278800D01*
X128786642Y-61278800D01*
X123480377Y-55972536D01*
X123482661Y-55967023D01*
X123564400Y-55556091D01*
X123564400Y-55137109D01*
X123482661Y-54726177D01*
X123322323Y-54339088D01*
X123089549Y-53990716D01*
X122793284Y-53694451D01*
X122444912Y-53461677D01*
X122057823Y-53301339D01*
X121646891Y-53219600D01*
X121227909Y-53219600D01*
X120816977Y-53301339D01*
X120429888Y-53461677D01*
X120081516Y-53694451D01*
X119785251Y-53990716D01*
X119552477Y-54339088D01*
X119392139Y-54726177D01*
X119310400Y-55137109D01*
X114936146Y-55137109D01*
X114932576Y-51766600D01*
X119299328Y-51766600D01*
X119311588Y-51891082D01*
X119347898Y-52010780D01*
X119406863Y-52121094D01*
X119486215Y-52217785D01*
X119582906Y-52297137D01*
X119693220Y-52356102D01*
X119812918Y-52392412D01*
X119937400Y-52404672D01*
X121151650Y-52401600D01*
X121310400Y-52242850D01*
X121310400Y-50393600D01*
X121564400Y-50393600D01*
X121564400Y-52242850D01*
X121723150Y-52401600D01*
X122937400Y-52404672D01*
X123061882Y-52392412D01*
X123181580Y-52356102D01*
X123291894Y-52297137D01*
X123388585Y-52217785D01*
X123467937Y-52121094D01*
X123526902Y-52010780D01*
X123563212Y-51891082D01*
X123575472Y-51766600D01*
X123572725Y-50680552D01*
X134157053Y-50680552D01*
X134246779Y-50939842D01*
X134527871Y-51075735D01*
X134830073Y-51154179D01*
X135141773Y-51172159D01*
X135450991Y-51128984D01*
X135745844Y-51026313D01*
X135907621Y-50939842D01*
X135997347Y-50680552D01*
X153207053Y-50680552D01*
X153296779Y-50939842D01*
X153577871Y-51075735D01*
X153880073Y-51154179D01*
X154191773Y-51172159D01*
X154500991Y-51128984D01*
X154795844Y-51026313D01*
X154957621Y-50939842D01*
X155047347Y-50680552D01*
X154127200Y-49760405D01*
X153207053Y-50680552D01*
X135997347Y-50680552D01*
X135077200Y-49760405D01*
X134157053Y-50680552D01*
X123572725Y-50680552D01*
X123572400Y-50552350D01*
X123413650Y-50393600D01*
X121564400Y-50393600D01*
X121310400Y-50393600D01*
X119461150Y-50393600D01*
X119302400Y-50552350D01*
X119299328Y-51766600D01*
X114932576Y-51766600D01*
X114929399Y-48766600D01*
X119299328Y-48766600D01*
X119302400Y-49980850D01*
X119461150Y-50139600D01*
X121310400Y-50139600D01*
X121310400Y-48290350D01*
X121564400Y-48290350D01*
X121564400Y-50139600D01*
X123413650Y-50139600D01*
X123572400Y-49980850D01*
X123573248Y-49645373D01*
X133485841Y-49645373D01*
X133529016Y-49954591D01*
X133631687Y-50249444D01*
X133718158Y-50411221D01*
X133977448Y-50500947D01*
X134897595Y-49580800D01*
X135256805Y-49580800D01*
X136176952Y-50500947D01*
X136436242Y-50411221D01*
X136572135Y-50130129D01*
X136650579Y-49827927D01*
X136661109Y-49645373D01*
X152535841Y-49645373D01*
X152579016Y-49954591D01*
X152681687Y-50249444D01*
X152768158Y-50411221D01*
X153027448Y-50500947D01*
X153947595Y-49580800D01*
X154306805Y-49580800D01*
X155226952Y-50500947D01*
X155486242Y-50411221D01*
X155622135Y-50130129D01*
X155700579Y-49827927D01*
X155718559Y-49516227D01*
X155675384Y-49207009D01*
X155572713Y-48912156D01*
X155486242Y-48750379D01*
X155226952Y-48660653D01*
X154306805Y-49580800D01*
X153947595Y-49580800D01*
X153027448Y-48660653D01*
X152768158Y-48750379D01*
X152632265Y-49031471D01*
X152553821Y-49333673D01*
X152535841Y-49645373D01*
X136661109Y-49645373D01*
X136668559Y-49516227D01*
X136625384Y-49207009D01*
X136522713Y-48912156D01*
X136436242Y-48750379D01*
X136176952Y-48660653D01*
X135256805Y-49580800D01*
X134897595Y-49580800D01*
X133977448Y-48660653D01*
X133718158Y-48750379D01*
X133582265Y-49031471D01*
X133503821Y-49333673D01*
X133485841Y-49645373D01*
X123573248Y-49645373D01*
X123575472Y-48766600D01*
X123563212Y-48642118D01*
X123526902Y-48522420D01*
X123504788Y-48481048D01*
X134157053Y-48481048D01*
X135077200Y-49401195D01*
X135997347Y-48481048D01*
X153207053Y-48481048D01*
X154127200Y-49401195D01*
X155047347Y-48481048D01*
X154957621Y-48221758D01*
X154676529Y-48085865D01*
X154374327Y-48007421D01*
X154062627Y-47989441D01*
X153753409Y-48032616D01*
X153458556Y-48135287D01*
X153296779Y-48221758D01*
X153207053Y-48481048D01*
X135997347Y-48481048D01*
X135907621Y-48221758D01*
X135626529Y-48085865D01*
X135324327Y-48007421D01*
X135012627Y-47989441D01*
X134703409Y-48032616D01*
X134408556Y-48135287D01*
X134246779Y-48221758D01*
X134157053Y-48481048D01*
X123504788Y-48481048D01*
X123467937Y-48412106D01*
X123388585Y-48315415D01*
X123291894Y-48236063D01*
X123181580Y-48177098D01*
X123061882Y-48140788D01*
X122937400Y-48128528D01*
X121723150Y-48131600D01*
X121564400Y-48290350D01*
X121310400Y-48290350D01*
X121151650Y-48131600D01*
X119937400Y-48128528D01*
X119812918Y-48140788D01*
X119693220Y-48177098D01*
X119582906Y-48236063D01*
X119486215Y-48315415D01*
X119406863Y-48412106D01*
X119347898Y-48522420D01*
X119311588Y-48642118D01*
X119299328Y-48766600D01*
X114929399Y-48766600D01*
X114926917Y-46422956D01*
X206408722Y-46498044D01*
M02*
