M48
; DRILL file {KiCad (5.1.4)-1} date 2/04/2020 5:53:50 p. m.
; FORMAT={-:-/ absolute / metric / decimal}
; #@! TF.CreationDate,2020-04-02T17:53:50-05:00
; #@! TF.GenerationSoftware,Kicad,Pcbnew,(5.1.4)-1
FMAT,2
METRIC
T1C0.700
T2C0.750
T3C0.762
T4C0.800
T5C1.000
T6C1.520
%
G90
G05
T1
X192.989Y-107.086
X193.116Y-114.325
X160.858Y-65.557
X168.097Y-65.43
X140.538Y-95.504
X140.665Y-102.743
X156.032Y-115.57
X163.271Y-115.443
X140.614Y-107.747
X147.853Y-107.62
T2
X171.933Y-113.538
X171.933Y-115.443
X171.933Y-117.221
T3
X184.658Y-111.049
X184.658Y-113.589
X184.658Y-116.129
X196.367Y-75.082
X196.367Y-77.622
X196.367Y-80.162
X135.407Y-72.187
X135.407Y-84.887
X154.457Y-72.187
X154.457Y-84.887
X122.606Y-81.737
X122.606Y-84.277
X122.606Y-86.817
X172.974Y-72.695
X172.974Y-75.235
X172.974Y-77.775
X172.974Y-80.315
X172.974Y-82.855
X172.974Y-85.395
X172.974Y-87.935
X172.974Y-90.475
X172.974Y-93.015
X172.974Y-95.555
X172.974Y-98.095
X172.974Y-100.635
X180.594Y-100.635
X183.134Y-100.635
X185.674Y-81.585
X185.674Y-84.125
X185.674Y-100.635
X188.214Y-72.695
X188.214Y-75.235
X188.214Y-77.775
X188.214Y-80.315
X188.214Y-82.855
X188.214Y-85.395
X188.214Y-87.935
X188.214Y-90.475
X188.214Y-93.015
X188.214Y-95.555
X188.214Y-98.095
X188.214Y-100.635
X174.625Y-54.381
X177.165Y-54.381
X179.705Y-54.381
X182.245Y-54.381
X184.785Y-54.381
X187.325Y-54.381
X196.621Y-92.1
X196.621Y-94.64
X196.621Y-97.18
X135.077Y-49.581
X135.077Y-62.281
X154.127Y-49.581
X154.127Y-62.281
X203.479Y-88.367
X161.036Y-58.293
X163.576Y-58.293
X166.116Y-58.293
X133.706Y-95.352
X133.706Y-97.892
X133.706Y-100.432
X133.706Y-102.972
X133.706Y-105.512
X133.706Y-108.052
X155.296Y-97.892
X155.296Y-100.432
X155.296Y-102.972
X155.296Y-105.512
X155.296Y-108.052
T4
X120.244Y-108.407
X125.244Y-108.407
X120.218Y-104.75
X125.218Y-104.75
X120.218Y-112.141
X125.218Y-112.141
T5
X119.939Y-96.19
X124.939Y-96.19
X120.32Y-116.586
X125.4Y-116.586
T6
X121.437Y-50.267
X121.437Y-55.347
X121.666Y-65.43
X121.666Y-70.51
T0
M30
