M48
; DRILL file {KiCad (5.1.5)-3} date 24/01/2021 1:34:45 p. m.
; FORMAT={-:-/ absolute / metric / decimal}
; #@! TF.CreationDate,2021-01-24T13:34:45-05:00
; #@! TF.GenerationSoftware,Kicad,Pcbnew,(5.1.5)-3
; #@! TF.FileFunction,Plated,1,2,PTH
FMAT,2
METRIC
T1C0.400
T2C0.700
T3C0.750
T4C0.762
T5C0.800
T6C1.000
T7C1.520
%
G90
G05
T1
X108.991Y-98.133
X109.753Y-72.669
X117.907Y-88.113
X118.085Y-93.091
X122.161Y-111.493
X122.758Y-78.549
X127.305Y-79.108
X127.305Y-81.42
X130.645Y-70.714
X134.163Y-49.543
X134.62Y-81.293
X135.458Y-95.441
X137.008Y-70.637
X140.525Y-60.592
X140.64Y-81.216
X141.783Y-49.962
X142.481Y-95.275
X147.206Y-89.941
X148.603Y-75.603
X149.911Y-65.862
X149.949Y-60.3
X149.962Y-62.928
X151.917Y-63.462
X152.502Y-109.728
X153.06Y-67.856
X154.584Y-48.959
X154.927Y-87.147
X162.154Y-100.724
X163.411Y-63.259
X163.678Y-72.873
X164.376Y-70.333
X165.227Y-46.533
X165.773Y-70.04
X167.411Y-66.84
X171.31Y-80.124
X173.723Y-76.314
X174.282Y-86.69
X178.879Y-86.157
X178.918Y-83.858
X178.943Y-81.699
X181.623Y-48.273
X182.029Y-112.078
X183.782Y-62.547
X183.845Y-60.541
X184.594Y-108.991
X185.776Y-71.717
X187.338Y-112.192
X190.665Y-71.742
X190.817Y-91.808
T2
X153.835Y-65.278
X153.962Y-72.517
X158.547Y-61.912
X165.786Y-61.785
X153.657Y-53.988
X153.784Y-61.227
X155.13Y-105.435
X155.257Y-112.674
X164.948Y-88.875
X172.187Y-88.748
X135.103Y-104.038
X142.342Y-103.911
X165.748Y-64.948
X165.875Y-72.187
X184.975Y-104.318
X185.102Y-111.557
X132.524Y-92.735
X132.651Y-99.974
T3
X163.919Y-110.769
X163.919Y-112.674
X163.919Y-114.452
T4
X127.063Y-46.812
X127.063Y-59.512
X146.113Y-46.812
X146.113Y-59.512
X181.724Y-53.924
X181.724Y-56.464
X181.724Y-59.004
X181.724Y-61.544
X181.724Y-64.084
X181.724Y-66.624
X161.201Y-69.888
X161.201Y-72.428
X161.201Y-74.968
X161.201Y-77.508
X161.201Y-80.048
X161.201Y-82.588
X161.201Y-85.128
X161.201Y-87.668
X161.201Y-90.208
X161.201Y-92.748
X161.201Y-95.288
X161.201Y-97.828
X168.821Y-97.828
X171.361Y-97.828
X173.901Y-78.778
X173.901Y-81.318
X173.901Y-97.828
X176.441Y-69.888
X176.441Y-72.428
X176.441Y-74.968
X176.441Y-77.508
X176.441Y-80.048
X176.441Y-82.588
X176.441Y-85.128
X176.441Y-87.668
X176.441Y-90.208
X176.441Y-92.748
X176.441Y-95.288
X176.441Y-97.828
X125.692Y-92.583
X125.692Y-95.123
X125.692Y-97.663
X125.692Y-100.203
X125.692Y-102.743
X125.692Y-105.283
X147.282Y-95.123
X147.282Y-97.663
X147.282Y-100.203
X147.282Y-102.743
X147.282Y-105.283
X176.644Y-108.28
X176.644Y-110.82
X176.644Y-113.36
X188.354Y-72.314
X188.354Y-74.854
X188.354Y-77.394
X114.592Y-78.969
X114.592Y-81.509
X114.592Y-84.049
X188.722Y-89.243
X188.722Y-91.783
X188.722Y-94.323
X124.784Y-68.768
X124.784Y-71.308
X124.784Y-80.228
X124.784Y-82.768
X147.784Y-68.768
X147.784Y-82.768
X160.503Y-53.607
X163.043Y-53.607
X165.583Y-53.607
T5
X112.204Y-101.981
X117.204Y-101.981
X112.204Y-109.372
X117.204Y-109.372
X112.23Y-105.639
X117.23Y-105.639
T6
X182.55Y-87.655
X182.55Y-90.195
X182.55Y-92.735
X182.55Y-95.275
X182.55Y-97.815
X114.643Y-90.809
X114.643Y-95.809
X112.306Y-113.817
X117.386Y-113.817
T7
X116.815Y-65.913
X116.815Y-70.993
X117.107Y-52.768
X117.107Y-57.848
T0
M30
