G04 #@! TF.GenerationSoftware,KiCad,Pcbnew,(5.1.5)-3*
G04 #@! TF.CreationDate,2021-01-24T13:34:38-05:00*
G04 #@! TF.ProjectId,DoubLayerSim,446f7562-4c61-4796-9572-53696d2e6b69,rev?*
G04 #@! TF.SameCoordinates,Original*
G04 #@! TF.FileFunction,Soldermask,Top*
G04 #@! TF.FilePolarity,Negative*
%FSLAX46Y46*%
G04 Gerber Fmt 4.6, Leading zero omitted, Abs format (unit mm)*
G04 Created by KiCad (PCBNEW (5.1.5)-3) date 2021-01-24 13:34:38*
%MOMM*%
%LPD*%
G04 APERTURE LIST*
%ADD10C,1.900000*%
%ADD11O,1.500000X1.050000*%
%ADD12R,1.500000X1.050000*%
%ADD13O,1.900000X1.900000*%
%ADD14R,3.000000X3.000000*%
%ADD15C,3.000000*%
%ADD16R,2.000000X2.000000*%
%ADD17C,2.000000*%
%ADD18C,1.600000*%
%ADD19O,2.000000X2.000000*%
%ADD20R,1.700000X1.700000*%
%ADD21O,1.700000X1.700000*%
G04 APERTURE END LIST*
D10*
X124783700Y-71308200D03*
X124783700Y-80228200D03*
X124783700Y-68768200D03*
X124783700Y-82768200D03*
X147783700Y-68768200D03*
X147783700Y-82768200D03*
D11*
X163918900Y-112674400D03*
X163918900Y-114452400D03*
D12*
X163918900Y-110769400D03*
D13*
X165785800Y-61785500D03*
D10*
X158546800Y-61912500D03*
D13*
X132651500Y-99974400D03*
D10*
X132524500Y-92735400D03*
D13*
X142341600Y-103911400D03*
D10*
X135102600Y-104038400D03*
D13*
X185102500Y-111556800D03*
D10*
X184975500Y-104317800D03*
X168821100Y-97828100D03*
X171361100Y-97828100D03*
X173901100Y-97828100D03*
X173901100Y-81318100D03*
X173901100Y-78778100D03*
X176441100Y-97828100D03*
X176441100Y-95288100D03*
X176441100Y-92748100D03*
X176441100Y-90208100D03*
X176441100Y-87668100D03*
X176441100Y-85128100D03*
X176441100Y-82588100D03*
X176441100Y-80048100D03*
X176441100Y-77508100D03*
X176441100Y-74968100D03*
X176441100Y-72428100D03*
X176441100Y-69888100D03*
X161201100Y-97828100D03*
X161201100Y-95288100D03*
X161201100Y-92748100D03*
X161201100Y-90208100D03*
X161201100Y-87668100D03*
X161201100Y-85128100D03*
X161201100Y-82588100D03*
X161201100Y-80048100D03*
X161201100Y-77508100D03*
X161201100Y-74968100D03*
X161201100Y-72428100D03*
X161201100Y-69888100D03*
X188722000Y-89242900D03*
X188722000Y-91782900D03*
X188722000Y-94322900D03*
X188353700Y-74853800D03*
X188353700Y-72313800D03*
X188353700Y-77393800D03*
X181724300Y-66624200D03*
X181724300Y-64084200D03*
X181724300Y-61544200D03*
X181724300Y-59004200D03*
X181724300Y-56464200D03*
X181724300Y-53924200D03*
X163042600Y-53606700D03*
X165582600Y-53606700D03*
X160502600Y-53606700D03*
X176644300Y-108280200D03*
X176644300Y-113360200D03*
X176644300Y-110820200D03*
D14*
X117106700Y-52768500D03*
D15*
X117106700Y-57848500D03*
X116814600Y-70993000D03*
D14*
X116814600Y-65913000D03*
D10*
X127063500Y-46812200D03*
X127063500Y-59512200D03*
X146113500Y-46812200D03*
X146113500Y-59512200D03*
X125691900Y-92583000D03*
X125691900Y-95123000D03*
X125691900Y-97663000D03*
X125691900Y-100203000D03*
X125691900Y-102743000D03*
X125691900Y-105283000D03*
X147281900Y-95123000D03*
X147281900Y-97663000D03*
X147281900Y-100203000D03*
X147281900Y-102743000D03*
X147281900Y-105283000D03*
X114592100Y-84048600D03*
X114592100Y-81508600D03*
X114592100Y-78968600D03*
D16*
X114642900Y-95808800D03*
D17*
X114642900Y-90808800D03*
D18*
X112204500Y-101981000D03*
X117204500Y-101981000D03*
X117229900Y-105638600D03*
X112229900Y-105638600D03*
X112204500Y-109372400D03*
X117204500Y-109372400D03*
D16*
X112306100Y-113817400D03*
D19*
X117386100Y-113817400D03*
D10*
X155257500Y-112674400D03*
D13*
X155130500Y-105435400D03*
D10*
X153784300Y-61226700D03*
D13*
X153657300Y-53987700D03*
X153835100Y-65278000D03*
D10*
X153962100Y-72517000D03*
D20*
X182549800Y-87655400D03*
D21*
X182549800Y-90195400D03*
X182549800Y-92735400D03*
X182549800Y-95275400D03*
X182549800Y-97815400D03*
D13*
X165747700Y-64947800D03*
D10*
X165874700Y-72186800D03*
X164947600Y-88874600D03*
D13*
X172186600Y-88747600D03*
M02*
