G04 #@! TF.GenerationSoftware,KiCad,Pcbnew,(5.1.4)-1*
G04 #@! TF.CreationDate,2020-04-02T17:49:22-05:00*
G04 #@! TF.ProjectId,DoubLayerSim,446f7562-4c61-4796-9572-53696d2e6b69,rev?*
G04 #@! TF.SameCoordinates,Original*
G04 #@! TF.FileFunction,Legend,Top*
G04 #@! TF.FilePolarity,Positive*
%FSLAX46Y46*%
G04 Gerber Fmt 4.6, Leading zero omitted, Abs format (unit mm)*
G04 Created by KiCad (PCBNEW (5.1.4)-1) date 2020-04-02 17:49:22*
%MOMM*%
%LPD*%
G04 APERTURE LIST*
%ADD10C,0.150000*%
%ADD11C,0.120000*%
G04 APERTURE END LIST*
D10*
X186320180Y-118554333D02*
X187320180Y-118221000D01*
X186320180Y-117887666D01*
X187224942Y-116982904D02*
X187272561Y-117030523D01*
X187320180Y-117173380D01*
X187320180Y-117268619D01*
X187272561Y-117411476D01*
X187177323Y-117506714D01*
X187082085Y-117554333D01*
X186891609Y-117601952D01*
X186748752Y-117601952D01*
X186558276Y-117554333D01*
X186463038Y-117506714D01*
X186367800Y-117411476D01*
X186320180Y-117268619D01*
X186320180Y-117173380D01*
X186367800Y-117030523D01*
X186415419Y-116982904D01*
X187224942Y-115982904D02*
X187272561Y-116030523D01*
X187320180Y-116173380D01*
X187320180Y-116268619D01*
X187272561Y-116411476D01*
X187177323Y-116506714D01*
X187082085Y-116554333D01*
X186891609Y-116601952D01*
X186748752Y-116601952D01*
X186558276Y-116554333D01*
X186463038Y-116506714D01*
X186367800Y-116411476D01*
X186320180Y-116268619D01*
X186320180Y-116173380D01*
X186367800Y-116030523D01*
X186415419Y-115982904D01*
X193965580Y-74307533D02*
X194965580Y-73974200D01*
X193965580Y-73640866D01*
X194870342Y-72736104D02*
X194917961Y-72783723D01*
X194965580Y-72926580D01*
X194965580Y-73021819D01*
X194917961Y-73164676D01*
X194822723Y-73259914D01*
X194727485Y-73307533D01*
X194537009Y-73355152D01*
X194394152Y-73355152D01*
X194203676Y-73307533D01*
X194108438Y-73259914D01*
X194013200Y-73164676D01*
X193965580Y-73021819D01*
X193965580Y-72926580D01*
X194013200Y-72783723D01*
X194060819Y-72736104D01*
X194870342Y-71736104D02*
X194917961Y-71783723D01*
X194965580Y-71926580D01*
X194965580Y-72021819D01*
X194917961Y-72164676D01*
X194822723Y-72259914D01*
X194727485Y-72307533D01*
X194537009Y-72355152D01*
X194394152Y-72355152D01*
X194203676Y-72307533D01*
X194108438Y-72259914D01*
X194013200Y-72164676D01*
X193965580Y-72021819D01*
X193965580Y-71926580D01*
X194013200Y-71783723D01*
X194060819Y-71736104D01*
X166332066Y-55891180D02*
X166665400Y-56891180D01*
X166998733Y-55891180D01*
X167903495Y-56795942D02*
X167855876Y-56843561D01*
X167713019Y-56891180D01*
X167617780Y-56891180D01*
X167474923Y-56843561D01*
X167379685Y-56748323D01*
X167332066Y-56653085D01*
X167284447Y-56462609D01*
X167284447Y-56319752D01*
X167332066Y-56129276D01*
X167379685Y-56034038D01*
X167474923Y-55938800D01*
X167617780Y-55891180D01*
X167713019Y-55891180D01*
X167855876Y-55938800D01*
X167903495Y-55986419D01*
X168903495Y-56795942D02*
X168855876Y-56843561D01*
X168713019Y-56891180D01*
X168617780Y-56891180D01*
X168474923Y-56843561D01*
X168379685Y-56748323D01*
X168332066Y-56653085D01*
X168284447Y-56462609D01*
X168284447Y-56319752D01*
X168332066Y-56129276D01*
X168379685Y-56034038D01*
X168474923Y-55938800D01*
X168617780Y-55891180D01*
X168713019Y-55891180D01*
X168855876Y-55938800D01*
X168903495Y-55986419D01*
X172124714Y-112399771D02*
X172458047Y-112399771D01*
X172600904Y-112923580D02*
X172124714Y-112923580D01*
X172124714Y-111923580D01*
X172600904Y-111923580D01*
X153390742Y-83103980D02*
X153390742Y-82103980D01*
X153866933Y-83103980D02*
X153866933Y-82103980D01*
X154438361Y-83103980D01*
X154438361Y-82103980D01*
X154914552Y-82723028D02*
X155676457Y-82723028D01*
X155295504Y-83103980D02*
X155295504Y-82342076D01*
X134220152Y-82510380D02*
X134410628Y-82510380D01*
X134505866Y-82558000D01*
X134601104Y-82653238D01*
X134648723Y-82843714D01*
X134648723Y-83177047D01*
X134601104Y-83367523D01*
X134505866Y-83462761D01*
X134410628Y-83510380D01*
X134220152Y-83510380D01*
X134124914Y-83462761D01*
X134029676Y-83367523D01*
X133982057Y-83177047D01*
X133982057Y-82843714D01*
X134029676Y-82653238D01*
X134124914Y-82558000D01*
X134220152Y-82510380D01*
X135077295Y-82510380D02*
X135077295Y-83319904D01*
X135124914Y-83415142D01*
X135172533Y-83462761D01*
X135267771Y-83510380D01*
X135458247Y-83510380D01*
X135553485Y-83462761D01*
X135601104Y-83415142D01*
X135648723Y-83319904D01*
X135648723Y-82510380D01*
X135982057Y-82510380D02*
X136553485Y-82510380D01*
X136267771Y-83510380D02*
X136267771Y-82510380D01*
X136886819Y-83129428D02*
X137648723Y-83129428D01*
X137267771Y-83510380D02*
X137267771Y-82748476D01*
X154178095Y-95156400D02*
X154082857Y-95108780D01*
X153940000Y-95108780D01*
X153797142Y-95156400D01*
X153701904Y-95251638D01*
X153654285Y-95346876D01*
X153606666Y-95537352D01*
X153606666Y-95680209D01*
X153654285Y-95870685D01*
X153701904Y-95965923D01*
X153797142Y-96061161D01*
X153940000Y-96108780D01*
X154035238Y-96108780D01*
X154178095Y-96061161D01*
X154225714Y-96013542D01*
X154225714Y-95680209D01*
X154035238Y-95680209D01*
X154654285Y-96108780D02*
X154654285Y-95108780D01*
X155225714Y-96108780D01*
X155225714Y-95108780D01*
X155701904Y-96108780D02*
X155701904Y-95108780D01*
X155940000Y-95108780D01*
X156082857Y-95156400D01*
X156178095Y-95251638D01*
X156225714Y-95346876D01*
X156273333Y-95537352D01*
X156273333Y-95680209D01*
X156225714Y-95870685D01*
X156178095Y-95965923D01*
X156082857Y-96061161D01*
X155940000Y-96108780D01*
X155701904Y-96108780D01*
X121967809Y-78281780D02*
X122586857Y-78281780D01*
X122253523Y-78662733D01*
X122396380Y-78662733D01*
X122491619Y-78710352D01*
X122539238Y-78757971D01*
X122586857Y-78853209D01*
X122586857Y-79091304D01*
X122539238Y-79186542D01*
X122491619Y-79234161D01*
X122396380Y-79281780D01*
X122110666Y-79281780D01*
X122015428Y-79234161D01*
X121967809Y-79186542D01*
X123015428Y-79186542D02*
X123063047Y-79234161D01*
X123015428Y-79281780D01*
X122967809Y-79234161D01*
X123015428Y-79186542D01*
X123015428Y-79281780D01*
X123634476Y-78710352D02*
X123539238Y-78662733D01*
X123491619Y-78615114D01*
X123444000Y-78519876D01*
X123444000Y-78472257D01*
X123491619Y-78377019D01*
X123539238Y-78329400D01*
X123634476Y-78281780D01*
X123824952Y-78281780D01*
X123920190Y-78329400D01*
X123967809Y-78377019D01*
X124015428Y-78472257D01*
X124015428Y-78519876D01*
X123967809Y-78615114D01*
X123920190Y-78662733D01*
X123824952Y-78710352D01*
X123634476Y-78710352D01*
X123539238Y-78757971D01*
X123491619Y-78805590D01*
X123444000Y-78900828D01*
X123444000Y-79091304D01*
X123491619Y-79186542D01*
X123539238Y-79234161D01*
X123634476Y-79281780D01*
X123824952Y-79281780D01*
X123920190Y-79234161D01*
X123967809Y-79186542D01*
X124015428Y-79091304D01*
X124015428Y-78900828D01*
X123967809Y-78805590D01*
X123920190Y-78757971D01*
X123824952Y-78710352D01*
X124301142Y-78281780D02*
X124634476Y-79281780D01*
X124967809Y-78281780D01*
X122542323Y-88555580D02*
X122066133Y-88555580D01*
X122018514Y-89031771D01*
X122066133Y-88984152D01*
X122161371Y-88936533D01*
X122399466Y-88936533D01*
X122494704Y-88984152D01*
X122542323Y-89031771D01*
X122589942Y-89127009D01*
X122589942Y-89365104D01*
X122542323Y-89460342D01*
X122494704Y-89507961D01*
X122399466Y-89555580D01*
X122161371Y-89555580D01*
X122066133Y-89507961D01*
X122018514Y-89460342D01*
X122875657Y-88555580D02*
X123208990Y-89555580D01*
X123542323Y-88555580D01*
X153466895Y-74099800D02*
X153371657Y-74052180D01*
X153228800Y-74052180D01*
X153085942Y-74099800D01*
X152990704Y-74195038D01*
X152943085Y-74290276D01*
X152895466Y-74480752D01*
X152895466Y-74623609D01*
X152943085Y-74814085D01*
X152990704Y-74909323D01*
X153085942Y-75004561D01*
X153228800Y-75052180D01*
X153324038Y-75052180D01*
X153466895Y-75004561D01*
X153514514Y-74956942D01*
X153514514Y-74623609D01*
X153324038Y-74623609D01*
X153943085Y-75052180D02*
X153943085Y-74052180D01*
X154514514Y-75052180D01*
X154514514Y-74052180D01*
X154990704Y-75052180D02*
X154990704Y-74052180D01*
X155228800Y-74052180D01*
X155371657Y-74099800D01*
X155466895Y-74195038D01*
X155514514Y-74290276D01*
X155562133Y-74480752D01*
X155562133Y-74623609D01*
X155514514Y-74814085D01*
X155466895Y-74909323D01*
X155371657Y-75004561D01*
X155228800Y-75052180D01*
X154990704Y-75052180D01*
X134594695Y-73922000D02*
X134499457Y-73874380D01*
X134356600Y-73874380D01*
X134213742Y-73922000D01*
X134118504Y-74017238D01*
X134070885Y-74112476D01*
X134023266Y-74302952D01*
X134023266Y-74445809D01*
X134070885Y-74636285D01*
X134118504Y-74731523D01*
X134213742Y-74826761D01*
X134356600Y-74874380D01*
X134451838Y-74874380D01*
X134594695Y-74826761D01*
X134642314Y-74779142D01*
X134642314Y-74445809D01*
X134451838Y-74445809D01*
X135070885Y-74874380D02*
X135070885Y-73874380D01*
X135642314Y-74874380D01*
X135642314Y-73874380D01*
X136118504Y-74874380D02*
X136118504Y-73874380D01*
X136356600Y-73874380D01*
X136499457Y-73922000D01*
X136594695Y-74017238D01*
X136642314Y-74112476D01*
X136689933Y-74302952D01*
X136689933Y-74445809D01*
X136642314Y-74636285D01*
X136594695Y-74731523D01*
X136499457Y-74826761D01*
X136356600Y-74874380D01*
X136118504Y-74874380D01*
X152330352Y-51090580D02*
X152520828Y-51090580D01*
X152616066Y-51138200D01*
X152711304Y-51233438D01*
X152758923Y-51423914D01*
X152758923Y-51757247D01*
X152711304Y-51947723D01*
X152616066Y-52042961D01*
X152520828Y-52090580D01*
X152330352Y-52090580D01*
X152235114Y-52042961D01*
X152139876Y-51947723D01*
X152092257Y-51757247D01*
X152092257Y-51423914D01*
X152139876Y-51233438D01*
X152235114Y-51138200D01*
X152330352Y-51090580D01*
X153187495Y-51090580D02*
X153187495Y-51900104D01*
X153235114Y-51995342D01*
X153282733Y-52042961D01*
X153377971Y-52090580D01*
X153568447Y-52090580D01*
X153663685Y-52042961D01*
X153711304Y-51995342D01*
X153758923Y-51900104D01*
X153758923Y-51090580D01*
X154092257Y-51090580D02*
X154663685Y-51090580D01*
X154377971Y-52090580D02*
X154377971Y-51090580D01*
X154997019Y-51709628D02*
X155758923Y-51709628D01*
X133908942Y-52090580D02*
X133908942Y-51090580D01*
X134385133Y-52090580D02*
X134385133Y-51090580D01*
X134956561Y-52090580D01*
X134956561Y-51090580D01*
X135432752Y-51709628D02*
X136194657Y-51709628D01*
X121513695Y-47201200D02*
X121418457Y-47153580D01*
X121275600Y-47153580D01*
X121132742Y-47201200D01*
X121037504Y-47296438D01*
X120989885Y-47391676D01*
X120942266Y-47582152D01*
X120942266Y-47725009D01*
X120989885Y-47915485D01*
X121037504Y-48010723D01*
X121132742Y-48105961D01*
X121275600Y-48153580D01*
X121370838Y-48153580D01*
X121513695Y-48105961D01*
X121561314Y-48058342D01*
X121561314Y-47725009D01*
X121370838Y-47725009D01*
X121989885Y-48153580D02*
X121989885Y-47153580D01*
X122561314Y-48153580D01*
X122561314Y-47153580D01*
X123037504Y-48153580D02*
X123037504Y-47153580D01*
X123275600Y-47153580D01*
X123418457Y-47201200D01*
X123513695Y-47296438D01*
X123561314Y-47391676D01*
X123608933Y-47582152D01*
X123608933Y-47725009D01*
X123561314Y-47915485D01*
X123513695Y-48010723D01*
X123418457Y-48105961D01*
X123275600Y-48153580D01*
X123037504Y-48153580D01*
X121513695Y-61831600D02*
X121418457Y-61783980D01*
X121275600Y-61783980D01*
X121132742Y-61831600D01*
X121037504Y-61926838D01*
X120989885Y-62022076D01*
X120942266Y-62212552D01*
X120942266Y-62355409D01*
X120989885Y-62545885D01*
X121037504Y-62641123D01*
X121132742Y-62736361D01*
X121275600Y-62783980D01*
X121370838Y-62783980D01*
X121513695Y-62736361D01*
X121561314Y-62688742D01*
X121561314Y-62355409D01*
X121370838Y-62355409D01*
X121989885Y-62783980D02*
X121989885Y-61783980D01*
X122561314Y-62783980D01*
X122561314Y-61783980D01*
X123037504Y-62783980D02*
X123037504Y-61783980D01*
X123275600Y-61783980D01*
X123418457Y-61831600D01*
X123513695Y-61926838D01*
X123561314Y-62022076D01*
X123608933Y-62212552D01*
X123608933Y-62355409D01*
X123561314Y-62545885D01*
X123513695Y-62641123D01*
X123418457Y-62736361D01*
X123275600Y-62783980D01*
X123037504Y-62783980D01*
D11*
X170082600Y-113643000D02*
X170082600Y-117243000D01*
X170094122Y-113604522D02*
G75*
G02X174532600Y-115443000I1838478J-1838478D01*
G01*
X170094122Y-117281478D02*
G75*
G03X174532600Y-115443000I1838478J1838478D01*
G01*
X161366200Y-66446400D02*
X167462200Y-66446400D01*
X161366200Y-64668400D02*
X167335200Y-64668400D01*
X139649200Y-96012000D02*
X139649200Y-102108000D01*
X141427200Y-96012000D02*
X141427200Y-101981000D01*
X141122400Y-108635800D02*
X147218400Y-108635800D01*
X141122400Y-106857800D02*
X147091400Y-106857800D01*
X192100200Y-107594400D02*
X192100200Y-113690400D01*
X193878200Y-107594400D02*
X193878200Y-113563400D01*
X171704000Y-101904800D02*
X171704000Y-71424800D01*
X189484000Y-101904800D02*
X171704000Y-101904800D01*
X189484000Y-71424800D02*
X189484000Y-101904800D01*
X171704000Y-71424800D02*
X189484000Y-71424800D01*
X197891400Y-98450400D02*
X195351400Y-98450400D01*
X197891400Y-90830400D02*
X197891400Y-98450400D01*
X195351400Y-90830400D02*
X197891400Y-90830400D01*
X195351400Y-98450400D02*
X195351400Y-90830400D01*
X197637400Y-73812400D02*
X197637400Y-81432400D01*
X195097400Y-81432400D02*
X195097400Y-73812400D01*
X197637400Y-81432400D02*
X195097400Y-81432400D01*
X195097400Y-73812400D02*
X197637400Y-73812400D01*
X170815000Y-56921400D02*
X170815000Y-51841400D01*
X191135000Y-56921400D02*
X170815000Y-56921400D01*
X191135000Y-51841400D02*
X191135000Y-56921400D01*
X170815000Y-51841400D02*
X191135000Y-51841400D01*
X167386000Y-57023000D02*
X167386000Y-59563000D01*
X159766000Y-59563000D02*
X159766000Y-57023000D01*
X159766000Y-57023000D02*
X167386000Y-57023000D01*
X167386000Y-59563000D02*
X159766000Y-59563000D01*
X183388000Y-117398800D02*
X183388000Y-109778800D01*
X185928000Y-109778800D02*
X185928000Y-117398800D01*
X183388000Y-109778800D02*
X185928000Y-109778800D01*
X185928000Y-117398800D02*
X183388000Y-117398800D01*
X118897400Y-57886600D02*
X118897400Y-47726600D01*
X117627400Y-57886600D02*
X125247400Y-57886600D01*
X125247400Y-57886600D02*
X125247400Y-47726600D01*
X125247400Y-47726600D02*
X117627400Y-47726600D01*
X117627400Y-47726600D02*
X117627400Y-57886600D01*
X117856000Y-62890400D02*
X117856000Y-73050400D01*
X125476000Y-62890400D02*
X117856000Y-62890400D01*
X125476000Y-73050400D02*
X125476000Y-62890400D01*
X117856000Y-73050400D02*
X125476000Y-73050400D01*
X119126000Y-73050400D02*
X119126000Y-62890400D01*
X132537200Y-47040800D02*
X156667200Y-47040800D01*
X156667200Y-47040800D02*
X156667200Y-64820800D01*
X156667200Y-64820800D02*
X132537200Y-64820800D01*
X132537200Y-64820800D02*
X132537200Y-47040800D01*
X157835600Y-92811600D02*
X157835600Y-113131600D01*
X131165600Y-92811600D02*
X157835600Y-92811600D01*
X131165600Y-113131600D02*
X131165600Y-92811600D01*
X157835600Y-113131600D02*
X131165600Y-113131600D01*
X120065800Y-80467200D02*
X125145800Y-80467200D01*
X120065800Y-88087200D02*
X120065800Y-80467200D01*
X125145800Y-88087200D02*
X120065800Y-88087200D01*
X125145800Y-80467200D02*
X125145800Y-88087200D01*
X156997400Y-69646800D02*
X156997400Y-87426800D01*
X132867400Y-69646800D02*
X156997400Y-69646800D01*
X132867400Y-87426800D02*
X132867400Y-69646800D01*
X156997400Y-87426800D02*
X132867400Y-87426800D01*
X127558800Y-96189800D02*
G75*
G03X127558800Y-96189800I-5120000J0D01*
G01*
X122438800Y-91109800D02*
X122438800Y-101269800D01*
X122478800Y-91109800D02*
X122478800Y-101269800D01*
X122518800Y-91109800D02*
X122518800Y-101269800D01*
X122558800Y-91110800D02*
X122558800Y-101268800D01*
X122598800Y-91111800D02*
X122598800Y-101267800D01*
X122638800Y-91112800D02*
X122638800Y-101266800D01*
X122678800Y-91114800D02*
X122678800Y-101264800D01*
X122718800Y-91116800D02*
X122718800Y-101262800D01*
X122758800Y-91119800D02*
X122758800Y-101259800D01*
X122798800Y-91121800D02*
X122798800Y-101257800D01*
X122838800Y-91124800D02*
X122838800Y-101254800D01*
X122878800Y-91127800D02*
X122878800Y-101251800D01*
X122918800Y-91131800D02*
X122918800Y-101247800D01*
X122958800Y-91135800D02*
X122958800Y-101243800D01*
X122998800Y-91139800D02*
X122998800Y-101239800D01*
X123038800Y-91144800D02*
X123038800Y-101234800D01*
X123078800Y-91149800D02*
X123078800Y-101229800D01*
X123118800Y-91154800D02*
X123118800Y-101224800D01*
X123159800Y-91159800D02*
X123159800Y-101219800D01*
X123199800Y-91165800D02*
X123199800Y-101213800D01*
X123239800Y-91171800D02*
X123239800Y-101207800D01*
X123279800Y-91178800D02*
X123279800Y-101200800D01*
X123319800Y-91185800D02*
X123319800Y-101193800D01*
X123359800Y-91192800D02*
X123359800Y-101186800D01*
X123399800Y-91199800D02*
X123399800Y-101179800D01*
X123439800Y-91207800D02*
X123439800Y-101171800D01*
X123479800Y-91215800D02*
X123479800Y-101163800D01*
X123519800Y-91224800D02*
X123519800Y-101154800D01*
X123559800Y-91233800D02*
X123559800Y-101145800D01*
X123599800Y-91242800D02*
X123599800Y-101136800D01*
X123639800Y-91251800D02*
X123639800Y-101127800D01*
X123679800Y-91261800D02*
X123679800Y-101117800D01*
X123719800Y-91271800D02*
X123719800Y-94948800D01*
X123719800Y-97430800D02*
X123719800Y-101107800D01*
X123759800Y-91282800D02*
X123759800Y-94948800D01*
X123759800Y-97430800D02*
X123759800Y-101096800D01*
X123799800Y-91292800D02*
X123799800Y-94948800D01*
X123799800Y-97430800D02*
X123799800Y-101086800D01*
X123839800Y-91304800D02*
X123839800Y-94948800D01*
X123839800Y-97430800D02*
X123839800Y-101074800D01*
X123879800Y-91315800D02*
X123879800Y-94948800D01*
X123879800Y-97430800D02*
X123879800Y-101063800D01*
X123919800Y-91327800D02*
X123919800Y-94948800D01*
X123919800Y-97430800D02*
X123919800Y-101051800D01*
X123959800Y-91339800D02*
X123959800Y-94948800D01*
X123959800Y-97430800D02*
X123959800Y-101039800D01*
X123999800Y-91352800D02*
X123999800Y-94948800D01*
X123999800Y-97430800D02*
X123999800Y-101026800D01*
X124039800Y-91365800D02*
X124039800Y-94948800D01*
X124039800Y-97430800D02*
X124039800Y-101013800D01*
X124079800Y-91378800D02*
X124079800Y-94948800D01*
X124079800Y-97430800D02*
X124079800Y-101000800D01*
X124119800Y-91392800D02*
X124119800Y-94948800D01*
X124119800Y-97430800D02*
X124119800Y-100986800D01*
X124159800Y-91406800D02*
X124159800Y-94948800D01*
X124159800Y-97430800D02*
X124159800Y-100972800D01*
X124199800Y-91421800D02*
X124199800Y-94948800D01*
X124199800Y-97430800D02*
X124199800Y-100957800D01*
X124239800Y-91435800D02*
X124239800Y-94948800D01*
X124239800Y-97430800D02*
X124239800Y-100943800D01*
X124279800Y-91451800D02*
X124279800Y-94948800D01*
X124279800Y-97430800D02*
X124279800Y-100927800D01*
X124319800Y-91466800D02*
X124319800Y-94948800D01*
X124319800Y-97430800D02*
X124319800Y-100912800D01*
X124359800Y-91482800D02*
X124359800Y-94948800D01*
X124359800Y-97430800D02*
X124359800Y-100896800D01*
X124399800Y-91499800D02*
X124399800Y-94948800D01*
X124399800Y-97430800D02*
X124399800Y-100879800D01*
X124439800Y-91515800D02*
X124439800Y-94948800D01*
X124439800Y-97430800D02*
X124439800Y-100863800D01*
X124479800Y-91532800D02*
X124479800Y-94948800D01*
X124479800Y-97430800D02*
X124479800Y-100846800D01*
X124519800Y-91550800D02*
X124519800Y-94948800D01*
X124519800Y-97430800D02*
X124519800Y-100828800D01*
X124559800Y-91568800D02*
X124559800Y-94948800D01*
X124559800Y-97430800D02*
X124559800Y-100810800D01*
X124599800Y-91586800D02*
X124599800Y-94948800D01*
X124599800Y-97430800D02*
X124599800Y-100792800D01*
X124639800Y-91605800D02*
X124639800Y-94948800D01*
X124639800Y-97430800D02*
X124639800Y-100773800D01*
X124679800Y-91625800D02*
X124679800Y-94948800D01*
X124679800Y-97430800D02*
X124679800Y-100753800D01*
X124719800Y-91644800D02*
X124719800Y-94948800D01*
X124719800Y-97430800D02*
X124719800Y-100734800D01*
X124759800Y-91664800D02*
X124759800Y-94948800D01*
X124759800Y-97430800D02*
X124759800Y-100714800D01*
X124799800Y-91685800D02*
X124799800Y-94948800D01*
X124799800Y-97430800D02*
X124799800Y-100693800D01*
X124839800Y-91706800D02*
X124839800Y-94948800D01*
X124839800Y-97430800D02*
X124839800Y-100672800D01*
X124879800Y-91727800D02*
X124879800Y-94948800D01*
X124879800Y-97430800D02*
X124879800Y-100651800D01*
X124919800Y-91749800D02*
X124919800Y-94948800D01*
X124919800Y-97430800D02*
X124919800Y-100629800D01*
X124959800Y-91772800D02*
X124959800Y-94948800D01*
X124959800Y-97430800D02*
X124959800Y-100606800D01*
X124999800Y-91794800D02*
X124999800Y-94948800D01*
X124999800Y-97430800D02*
X124999800Y-100584800D01*
X125039800Y-91818800D02*
X125039800Y-94948800D01*
X125039800Y-97430800D02*
X125039800Y-100560800D01*
X125079800Y-91842800D02*
X125079800Y-94948800D01*
X125079800Y-97430800D02*
X125079800Y-100536800D01*
X125119800Y-91866800D02*
X125119800Y-94948800D01*
X125119800Y-97430800D02*
X125119800Y-100512800D01*
X125159800Y-91891800D02*
X125159800Y-94948800D01*
X125159800Y-97430800D02*
X125159800Y-100487800D01*
X125199800Y-91916800D02*
X125199800Y-94948800D01*
X125199800Y-97430800D02*
X125199800Y-100462800D01*
X125239800Y-91942800D02*
X125239800Y-94948800D01*
X125239800Y-97430800D02*
X125239800Y-100436800D01*
X125279800Y-91968800D02*
X125279800Y-94948800D01*
X125279800Y-97430800D02*
X125279800Y-100410800D01*
X125319800Y-91995800D02*
X125319800Y-94948800D01*
X125319800Y-97430800D02*
X125319800Y-100383800D01*
X125359800Y-92023800D02*
X125359800Y-94948800D01*
X125359800Y-97430800D02*
X125359800Y-100355800D01*
X125399800Y-92051800D02*
X125399800Y-94948800D01*
X125399800Y-97430800D02*
X125399800Y-100327800D01*
X125439800Y-92079800D02*
X125439800Y-94948800D01*
X125439800Y-97430800D02*
X125439800Y-100299800D01*
X125479800Y-92109800D02*
X125479800Y-94948800D01*
X125479800Y-97430800D02*
X125479800Y-100269800D01*
X125519800Y-92139800D02*
X125519800Y-94948800D01*
X125519800Y-97430800D02*
X125519800Y-100239800D01*
X125559800Y-92169800D02*
X125559800Y-94948800D01*
X125559800Y-97430800D02*
X125559800Y-100209800D01*
X125599800Y-92200800D02*
X125599800Y-94948800D01*
X125599800Y-97430800D02*
X125599800Y-100178800D01*
X125639800Y-92232800D02*
X125639800Y-94948800D01*
X125639800Y-97430800D02*
X125639800Y-100146800D01*
X125679800Y-92264800D02*
X125679800Y-94948800D01*
X125679800Y-97430800D02*
X125679800Y-100114800D01*
X125719800Y-92297800D02*
X125719800Y-94948800D01*
X125719800Y-97430800D02*
X125719800Y-100081800D01*
X125759800Y-92331800D02*
X125759800Y-94948800D01*
X125759800Y-97430800D02*
X125759800Y-100047800D01*
X125799800Y-92365800D02*
X125799800Y-94948800D01*
X125799800Y-97430800D02*
X125799800Y-100013800D01*
X125839800Y-92400800D02*
X125839800Y-94948800D01*
X125839800Y-97430800D02*
X125839800Y-99978800D01*
X125879800Y-92436800D02*
X125879800Y-94948800D01*
X125879800Y-97430800D02*
X125879800Y-99942800D01*
X125919800Y-92473800D02*
X125919800Y-94948800D01*
X125919800Y-97430800D02*
X125919800Y-99905800D01*
X125959800Y-92510800D02*
X125959800Y-94948800D01*
X125959800Y-97430800D02*
X125959800Y-99868800D01*
X125999800Y-92549800D02*
X125999800Y-94948800D01*
X125999800Y-97430800D02*
X125999800Y-99829800D01*
X126039800Y-92588800D02*
X126039800Y-94948800D01*
X126039800Y-97430800D02*
X126039800Y-99790800D01*
X126079800Y-92628800D02*
X126079800Y-94948800D01*
X126079800Y-97430800D02*
X126079800Y-99750800D01*
X126119800Y-92669800D02*
X126119800Y-94948800D01*
X126119800Y-97430800D02*
X126119800Y-99709800D01*
X126159800Y-92711800D02*
X126159800Y-94948800D01*
X126159800Y-97430800D02*
X126159800Y-99667800D01*
X126199800Y-92753800D02*
X126199800Y-99625800D01*
X126239800Y-92797800D02*
X126239800Y-99581800D01*
X126279800Y-92842800D02*
X126279800Y-99536800D01*
X126319800Y-92888800D02*
X126319800Y-99490800D01*
X126359800Y-92935800D02*
X126359800Y-99443800D01*
X126399800Y-92983800D02*
X126399800Y-99395800D01*
X126439800Y-93033800D02*
X126439800Y-99345800D01*
X126479800Y-93083800D02*
X126479800Y-99295800D01*
X126519800Y-93135800D02*
X126519800Y-99243800D01*
X126559800Y-93189800D02*
X126559800Y-99189800D01*
X126599800Y-93244800D02*
X126599800Y-99134800D01*
X126639800Y-93300800D02*
X126639800Y-99078800D01*
X126679800Y-93359800D02*
X126679800Y-99019800D01*
X126719800Y-93419800D02*
X126719800Y-98959800D01*
X126759800Y-93480800D02*
X126759800Y-98898800D01*
X126799800Y-93544800D02*
X126799800Y-98834800D01*
X126839800Y-93610800D02*
X126839800Y-98768800D01*
X126879800Y-93679800D02*
X126879800Y-98699800D01*
X126919800Y-93750800D02*
X126919800Y-98628800D01*
X126959800Y-93824800D02*
X126959800Y-98554800D01*
X126999800Y-93900800D02*
X126999800Y-98478800D01*
X127039800Y-93980800D02*
X127039800Y-98398800D01*
X127079800Y-94064800D02*
X127079800Y-98314800D01*
X127119800Y-94152800D02*
X127119800Y-98226800D01*
X127159800Y-94245800D02*
X127159800Y-98133800D01*
X127199800Y-94343800D02*
X127199800Y-98035800D01*
X127239800Y-94447800D02*
X127239800Y-97931800D01*
X127279800Y-94559800D02*
X127279800Y-97819800D01*
X127319800Y-94679800D02*
X127319800Y-97699800D01*
X127359800Y-94811800D02*
X127359800Y-97567800D01*
X127399800Y-94959800D02*
X127399800Y-97419800D01*
X127439800Y-95127800D02*
X127439800Y-97251800D01*
X127479800Y-95327800D02*
X127479800Y-97051800D01*
X127519800Y-95590800D02*
X127519800Y-96788800D01*
X116959154Y-93314800D02*
X117959154Y-93314800D01*
X117459154Y-92814800D02*
X117459154Y-93814800D01*
X120448200Y-103679600D02*
X124988200Y-103679600D01*
X120448200Y-105819600D02*
X124988200Y-105819600D01*
X120448200Y-103679600D02*
X120448200Y-103694600D01*
X120448200Y-105804600D02*
X120448200Y-105819600D01*
X124988200Y-103679600D02*
X124988200Y-103694600D01*
X124988200Y-105804600D02*
X124988200Y-105819600D01*
X125013600Y-109462200D02*
X125013600Y-109477200D01*
X125013600Y-107337200D02*
X125013600Y-107352200D01*
X120473600Y-109462200D02*
X120473600Y-109477200D01*
X120473600Y-107337200D02*
X120473600Y-107352200D01*
X120473600Y-109477200D02*
X125013600Y-109477200D01*
X120473600Y-107337200D02*
X125013600Y-107337200D01*
X120448200Y-111071000D02*
X124988200Y-111071000D01*
X120448200Y-113211000D02*
X124988200Y-113211000D01*
X120448200Y-111071000D02*
X120448200Y-111086000D01*
X120448200Y-113196000D02*
X120448200Y-113211000D01*
X124988200Y-111071000D02*
X124988200Y-111086000D01*
X124988200Y-113196000D02*
X124988200Y-113211000D01*
X121139800Y-115346000D02*
X121139800Y-115166000D01*
X121139800Y-115166000D02*
X124579800Y-115166000D01*
X124579800Y-115166000D02*
X124579800Y-115346000D01*
X121139800Y-117826000D02*
X121139800Y-118006000D01*
X121139800Y-118006000D02*
X124579800Y-118006000D01*
X124579800Y-118006000D02*
X124579800Y-117826000D01*
X121739800Y-115166000D02*
X121739800Y-118006000D01*
X121859800Y-115166000D02*
X121859800Y-118006000D01*
X121619800Y-115166000D02*
X121619800Y-118006000D01*
X162763200Y-116332000D02*
X156794200Y-116332000D01*
X162763200Y-114554000D02*
X156667200Y-114554000D01*
D10*
X176040219Y-115538238D02*
X175992600Y-115633476D01*
X175897361Y-115728714D01*
X175754504Y-115871571D01*
X175706885Y-115966809D01*
X175706885Y-116062047D01*
X175944980Y-116014428D02*
X175897361Y-116109666D01*
X175802123Y-116204904D01*
X175611647Y-116252523D01*
X175278314Y-116252523D01*
X175087838Y-116204904D01*
X174992600Y-116109666D01*
X174944980Y-116014428D01*
X174944980Y-115823952D01*
X174992600Y-115728714D01*
X175087838Y-115633476D01*
X175278314Y-115585857D01*
X175611647Y-115585857D01*
X175802123Y-115633476D01*
X175897361Y-115728714D01*
X175944980Y-115823952D01*
X175944980Y-116014428D01*
X175944980Y-114633476D02*
X175944980Y-115204904D01*
X175944980Y-114919190D02*
X174944980Y-114919190D01*
X175087838Y-115014428D01*
X175183076Y-115109666D01*
X175230695Y-115204904D01*
X163231533Y-64089780D02*
X162898200Y-63613590D01*
X162660104Y-64089780D02*
X162660104Y-63089780D01*
X163041057Y-63089780D01*
X163136295Y-63137400D01*
X163183914Y-63185019D01*
X163231533Y-63280257D01*
X163231533Y-63423114D01*
X163183914Y-63518352D01*
X163136295Y-63565971D01*
X163041057Y-63613590D01*
X162660104Y-63613590D01*
X164183914Y-64089780D02*
X163612485Y-64089780D01*
X163898200Y-64089780D02*
X163898200Y-63089780D01*
X163802961Y-63232638D01*
X163707723Y-63327876D01*
X163612485Y-63375495D01*
X142910580Y-98210666D02*
X142434390Y-98544000D01*
X142910580Y-98782095D02*
X141910580Y-98782095D01*
X141910580Y-98401142D01*
X141958200Y-98305904D01*
X142005819Y-98258285D01*
X142101057Y-98210666D01*
X142243914Y-98210666D01*
X142339152Y-98258285D01*
X142386771Y-98305904D01*
X142434390Y-98401142D01*
X142434390Y-98782095D01*
X141910580Y-97305904D02*
X141910580Y-97782095D01*
X142386771Y-97829714D01*
X142339152Y-97782095D01*
X142291533Y-97686857D01*
X142291533Y-97448761D01*
X142339152Y-97353523D01*
X142386771Y-97305904D01*
X142482009Y-97258285D01*
X142720104Y-97258285D01*
X142815342Y-97305904D01*
X142862961Y-97353523D01*
X142910580Y-97448761D01*
X142910580Y-97686857D01*
X142862961Y-97782095D01*
X142815342Y-97829714D01*
X142987733Y-106279180D02*
X142654400Y-105802990D01*
X142416304Y-106279180D02*
X142416304Y-105279180D01*
X142797257Y-105279180D01*
X142892495Y-105326800D01*
X142940114Y-105374419D01*
X142987733Y-105469657D01*
X142987733Y-105612514D01*
X142940114Y-105707752D01*
X142892495Y-105755371D01*
X142797257Y-105802990D01*
X142416304Y-105802990D01*
X143844876Y-105612514D02*
X143844876Y-106279180D01*
X143606780Y-105231561D02*
X143368685Y-105945847D01*
X143987733Y-105945847D01*
X195361580Y-109793066D02*
X194885390Y-110126400D01*
X195361580Y-110364495D02*
X194361580Y-110364495D01*
X194361580Y-109983542D01*
X194409200Y-109888304D01*
X194456819Y-109840685D01*
X194552057Y-109793066D01*
X194694914Y-109793066D01*
X194790152Y-109840685D01*
X194837771Y-109888304D01*
X194885390Y-109983542D01*
X194885390Y-110364495D01*
X194456819Y-109412114D02*
X194409200Y-109364495D01*
X194361580Y-109269257D01*
X194361580Y-109031161D01*
X194409200Y-108935923D01*
X194456819Y-108888304D01*
X194552057Y-108840685D01*
X194647295Y-108840685D01*
X194790152Y-108888304D01*
X195361580Y-109459733D01*
X195361580Y-108840685D01*
X180078285Y-87331466D02*
X180554476Y-87331466D01*
X179983047Y-87617180D02*
X180316380Y-86617180D01*
X180649714Y-87617180D01*
X180983047Y-87617180D02*
X180983047Y-86617180D01*
X181364000Y-86617180D01*
X181459238Y-86664800D01*
X181506857Y-86712419D01*
X181554476Y-86807657D01*
X181554476Y-86950514D01*
X181506857Y-87045752D01*
X181459238Y-87093371D01*
X181364000Y-87140990D01*
X180983047Y-87140990D01*
X181983047Y-87617180D02*
X181983047Y-86617180D01*
X182316380Y-87331466D01*
X182649714Y-86617180D01*
X182649714Y-87617180D01*
X183649714Y-87617180D02*
X183078285Y-87617180D01*
X183364000Y-87617180D02*
X183364000Y-86617180D01*
X183268761Y-86760038D01*
X183173523Y-86855276D01*
X183078285Y-86902895D01*
X199472779Y-96361658D02*
X198472779Y-96361658D01*
X198472779Y-96123562D01*
X198520399Y-95980705D01*
X198615637Y-95885467D01*
X198710875Y-95837848D01*
X198901351Y-95790229D01*
X199044208Y-95790229D01*
X199234684Y-95837848D01*
X199329922Y-95885467D01*
X199425160Y-95980705D01*
X199472779Y-96123562D01*
X199472779Y-96361658D01*
X199472779Y-95361658D02*
X198472779Y-95361658D01*
X198948970Y-95361658D02*
X198948970Y-94790229D01*
X199472779Y-94790229D02*
X198472779Y-94790229D01*
X198472779Y-94456896D02*
X198472779Y-93885467D01*
X199472779Y-94171181D02*
X198472779Y-94171181D01*
X199472779Y-93028324D02*
X199472779Y-93599753D01*
X199472779Y-93314039D02*
X198472779Y-93314039D01*
X198615637Y-93409277D01*
X198710875Y-93504515D01*
X198758494Y-93599753D01*
X197343780Y-101053733D02*
X198343780Y-100720400D01*
X197343780Y-100387066D01*
X198248542Y-99482304D02*
X198296161Y-99529923D01*
X198343780Y-99672780D01*
X198343780Y-99768019D01*
X198296161Y-99910876D01*
X198200923Y-100006114D01*
X198105685Y-100053733D01*
X197915209Y-100101352D01*
X197772352Y-100101352D01*
X197581876Y-100053733D01*
X197486638Y-100006114D01*
X197391400Y-99910876D01*
X197343780Y-99768019D01*
X197343780Y-99672780D01*
X197391400Y-99529923D01*
X197439019Y-99482304D01*
X198248542Y-98482304D02*
X198296161Y-98529923D01*
X198343780Y-98672780D01*
X198343780Y-98768019D01*
X198296161Y-98910876D01*
X198200923Y-99006114D01*
X198105685Y-99053733D01*
X197915209Y-99101352D01*
X197772352Y-99101352D01*
X197581876Y-99053733D01*
X197486638Y-99006114D01*
X197391400Y-98910876D01*
X197343780Y-98768019D01*
X197343780Y-98672780D01*
X197391400Y-98529923D01*
X197439019Y-98482304D01*
X197391400Y-90322304D02*
X197343780Y-90417542D01*
X197343780Y-90560400D01*
X197391400Y-90703257D01*
X197486638Y-90798495D01*
X197581876Y-90846114D01*
X197772352Y-90893733D01*
X197915209Y-90893733D01*
X198105685Y-90846114D01*
X198200923Y-90798495D01*
X198296161Y-90703257D01*
X198343780Y-90560400D01*
X198343780Y-90465161D01*
X198296161Y-90322304D01*
X198248542Y-90274685D01*
X197915209Y-90274685D01*
X197915209Y-90465161D01*
X198343780Y-89846114D02*
X197343780Y-89846114D01*
X198343780Y-89274685D01*
X197343780Y-89274685D01*
X198343780Y-88798495D02*
X197343780Y-88798495D01*
X197343780Y-88560400D01*
X197391400Y-88417542D01*
X197486638Y-88322304D01*
X197581876Y-88274685D01*
X197772352Y-88227066D01*
X197915209Y-88227066D01*
X198105685Y-88274685D01*
X198200923Y-88322304D01*
X198296161Y-88417542D01*
X198343780Y-88560400D01*
X198343780Y-88798495D01*
X198978780Y-81487733D02*
X197978780Y-81487733D01*
X197978780Y-81249638D01*
X198026400Y-81106780D01*
X198121638Y-81011542D01*
X198216876Y-80963923D01*
X198407352Y-80916304D01*
X198550209Y-80916304D01*
X198740685Y-80963923D01*
X198835923Y-81011542D01*
X198931161Y-81106780D01*
X198978780Y-81249638D01*
X198978780Y-81487733D01*
X198978780Y-80487733D02*
X197978780Y-80487733D01*
X198931161Y-80059161D02*
X198978780Y-79916304D01*
X198978780Y-79678209D01*
X198931161Y-79582971D01*
X198883542Y-79535352D01*
X198788304Y-79487733D01*
X198693066Y-79487733D01*
X198597828Y-79535352D01*
X198550209Y-79582971D01*
X198502590Y-79678209D01*
X198454971Y-79868685D01*
X198407352Y-79963923D01*
X198359733Y-80011542D01*
X198264495Y-80059161D01*
X198169257Y-80059161D01*
X198074019Y-80011542D01*
X198026400Y-79963923D01*
X197978780Y-79868685D01*
X197978780Y-79630590D01*
X198026400Y-79487733D01*
X197978780Y-79202019D02*
X197978780Y-78630590D01*
X198978780Y-78916304D02*
X197978780Y-78916304D01*
X198978780Y-77773447D02*
X198978780Y-78344876D01*
X198978780Y-78059161D02*
X197978780Y-78059161D01*
X198121638Y-78154400D01*
X198216876Y-78249638D01*
X198264495Y-78344876D01*
X194787780Y-83138780D02*
X193787780Y-83138780D01*
X193787780Y-82900685D01*
X193835400Y-82757828D01*
X193930638Y-82662590D01*
X194025876Y-82614971D01*
X194216352Y-82567352D01*
X194359209Y-82567352D01*
X194549685Y-82614971D01*
X194644923Y-82662590D01*
X194740161Y-82757828D01*
X194787780Y-82900685D01*
X194787780Y-83138780D01*
X194787780Y-81710209D02*
X194263971Y-81710209D01*
X194168733Y-81757828D01*
X194121114Y-81853066D01*
X194121114Y-82043542D01*
X194168733Y-82138780D01*
X194740161Y-81710209D02*
X194787780Y-81805447D01*
X194787780Y-82043542D01*
X194740161Y-82138780D01*
X194644923Y-82186400D01*
X194549685Y-82186400D01*
X194454447Y-82138780D01*
X194406828Y-82043542D01*
X194406828Y-81805447D01*
X194359209Y-81710209D01*
X194121114Y-81376876D02*
X194121114Y-80995923D01*
X193787780Y-81234019D02*
X194644923Y-81234019D01*
X194740161Y-81186400D01*
X194787780Y-81091161D01*
X194787780Y-80995923D01*
X194787780Y-80234019D02*
X194263971Y-80234019D01*
X194168733Y-80281638D01*
X194121114Y-80376876D01*
X194121114Y-80567352D01*
X194168733Y-80662590D01*
X194740161Y-80234019D02*
X194787780Y-80329257D01*
X194787780Y-80567352D01*
X194740161Y-80662590D01*
X194644923Y-80710209D01*
X194549685Y-80710209D01*
X194454447Y-80662590D01*
X194406828Y-80567352D01*
X194406828Y-80329257D01*
X194359209Y-80234019D01*
X193454400Y-78384304D02*
X193406780Y-78479542D01*
X193406780Y-78622400D01*
X193454400Y-78765257D01*
X193549638Y-78860495D01*
X193644876Y-78908114D01*
X193835352Y-78955733D01*
X193978209Y-78955733D01*
X194168685Y-78908114D01*
X194263923Y-78860495D01*
X194359161Y-78765257D01*
X194406780Y-78622400D01*
X194406780Y-78527161D01*
X194359161Y-78384304D01*
X194311542Y-78336685D01*
X193978209Y-78336685D01*
X193978209Y-78527161D01*
X194406780Y-77908114D02*
X193406780Y-77908114D01*
X194406780Y-77336685D01*
X193406780Y-77336685D01*
X194406780Y-76860495D02*
X193406780Y-76860495D01*
X193406780Y-76622400D01*
X193454400Y-76479542D01*
X193549638Y-76384304D01*
X193644876Y-76336685D01*
X193835352Y-76289066D01*
X193978209Y-76289066D01*
X194168685Y-76336685D01*
X194263923Y-76384304D01*
X194359161Y-76479542D01*
X194406780Y-76622400D01*
X194406780Y-76860495D01*
X187380714Y-53563780D02*
X187380714Y-52563780D01*
X187618809Y-52563780D01*
X187761666Y-52611400D01*
X187856904Y-52706638D01*
X187904523Y-52801876D01*
X187952142Y-52992352D01*
X187952142Y-53135209D01*
X187904523Y-53325685D01*
X187856904Y-53420923D01*
X187761666Y-53516161D01*
X187618809Y-53563780D01*
X187380714Y-53563780D01*
X188333095Y-53516161D02*
X188475952Y-53563780D01*
X188714047Y-53563780D01*
X188809285Y-53516161D01*
X188856904Y-53468542D01*
X188904523Y-53373304D01*
X188904523Y-53278066D01*
X188856904Y-53182828D01*
X188809285Y-53135209D01*
X188714047Y-53087590D01*
X188523571Y-53039971D01*
X188428333Y-52992352D01*
X188380714Y-52944733D01*
X188333095Y-52849495D01*
X188333095Y-52754257D01*
X188380714Y-52659019D01*
X188428333Y-52611400D01*
X188523571Y-52563780D01*
X188761666Y-52563780D01*
X188904523Y-52611400D01*
X189856904Y-53563780D02*
X189285476Y-53563780D01*
X189571190Y-53563780D02*
X189571190Y-52563780D01*
X189475952Y-52706638D01*
X189380714Y-52801876D01*
X189285476Y-52849495D01*
X159544000Y-60904380D02*
X159544000Y-59904380D01*
X159544000Y-60380571D02*
X160115428Y-60380571D01*
X160115428Y-60904380D02*
X160115428Y-59904380D01*
X160544000Y-60618666D02*
X161020190Y-60618666D01*
X160448761Y-60904380D02*
X160782095Y-59904380D01*
X161115428Y-60904380D01*
X161924952Y-60904380D02*
X161448761Y-60904380D01*
X161448761Y-59904380D01*
X162734476Y-60904380D02*
X162258285Y-60904380D01*
X162258285Y-59904380D01*
X163591619Y-60904380D02*
X163020190Y-60904380D01*
X163305904Y-60904380D02*
X163305904Y-59904380D01*
X163210666Y-60047238D01*
X163115428Y-60142476D01*
X163020190Y-60190095D01*
X162814095Y-55380000D02*
X162718857Y-55332380D01*
X162576000Y-55332380D01*
X162433142Y-55380000D01*
X162337904Y-55475238D01*
X162290285Y-55570476D01*
X162242666Y-55760952D01*
X162242666Y-55903809D01*
X162290285Y-56094285D01*
X162337904Y-56189523D01*
X162433142Y-56284761D01*
X162576000Y-56332380D01*
X162671238Y-56332380D01*
X162814095Y-56284761D01*
X162861714Y-56237142D01*
X162861714Y-55903809D01*
X162671238Y-55903809D01*
X163290285Y-56332380D02*
X163290285Y-55332380D01*
X163861714Y-56332380D01*
X163861714Y-55332380D01*
X164337904Y-56332380D02*
X164337904Y-55332380D01*
X164576000Y-55332380D01*
X164718857Y-55380000D01*
X164814095Y-55475238D01*
X164861714Y-55570476D01*
X164909333Y-55760952D01*
X164909333Y-55903809D01*
X164861714Y-56094285D01*
X164814095Y-56189523D01*
X164718857Y-56284761D01*
X164576000Y-56332380D01*
X164337904Y-56332380D01*
X158059619Y-56713380D02*
X158059619Y-55713380D01*
X158297714Y-55713380D01*
X158440571Y-55761000D01*
X158535809Y-55856238D01*
X158583428Y-55951476D01*
X158631047Y-56141952D01*
X158631047Y-56284809D01*
X158583428Y-56475285D01*
X158535809Y-56570523D01*
X158440571Y-56665761D01*
X158297714Y-56713380D01*
X158059619Y-56713380D01*
X159488190Y-56713380D02*
X159488190Y-56189571D01*
X159440571Y-56094333D01*
X159345333Y-56046714D01*
X159154857Y-56046714D01*
X159059619Y-56094333D01*
X159488190Y-56665761D02*
X159392952Y-56713380D01*
X159154857Y-56713380D01*
X159059619Y-56665761D01*
X159012000Y-56570523D01*
X159012000Y-56475285D01*
X159059619Y-56380047D01*
X159154857Y-56332428D01*
X159392952Y-56332428D01*
X159488190Y-56284809D01*
X159821523Y-56046714D02*
X160202476Y-56046714D01*
X159964380Y-55713380D02*
X159964380Y-56570523D01*
X160012000Y-56665761D01*
X160107238Y-56713380D01*
X160202476Y-56713380D01*
X160964380Y-56713380D02*
X160964380Y-56189571D01*
X160916761Y-56094333D01*
X160821523Y-56046714D01*
X160631047Y-56046714D01*
X160535809Y-56094333D01*
X160964380Y-56665761D02*
X160869142Y-56713380D01*
X160631047Y-56713380D01*
X160535809Y-56665761D01*
X160488190Y-56570523D01*
X160488190Y-56475285D01*
X160535809Y-56380047D01*
X160631047Y-56332428D01*
X160869142Y-56332428D01*
X160964380Y-56284809D01*
X182951380Y-113556800D02*
X181951380Y-113556800D01*
X182427571Y-113556800D02*
X182427571Y-112985371D01*
X182951380Y-112985371D02*
X181951380Y-112985371D01*
X182665666Y-112556800D02*
X182665666Y-112080609D01*
X182951380Y-112652038D02*
X181951380Y-112318704D01*
X182951380Y-111985371D01*
X182951380Y-111175847D02*
X182951380Y-111652038D01*
X181951380Y-111652038D01*
X182951380Y-110366323D02*
X182951380Y-110842514D01*
X181951380Y-110842514D01*
X182046619Y-110080609D02*
X181999000Y-110032990D01*
X181951380Y-109937752D01*
X181951380Y-109699657D01*
X181999000Y-109604419D01*
X182046619Y-109556800D01*
X182141857Y-109509180D01*
X182237095Y-109509180D01*
X182379952Y-109556800D01*
X182951380Y-110128228D01*
X182951380Y-109509180D01*
X187142380Y-110977180D02*
X186142380Y-110977180D01*
X186142380Y-110739085D01*
X186190000Y-110596228D01*
X186285238Y-110500990D01*
X186380476Y-110453371D01*
X186570952Y-110405752D01*
X186713809Y-110405752D01*
X186904285Y-110453371D01*
X186999523Y-110500990D01*
X187094761Y-110596228D01*
X187142380Y-110739085D01*
X187142380Y-110977180D01*
X187142380Y-109548609D02*
X186618571Y-109548609D01*
X186523333Y-109596228D01*
X186475714Y-109691466D01*
X186475714Y-109881942D01*
X186523333Y-109977180D01*
X187094761Y-109548609D02*
X187142380Y-109643847D01*
X187142380Y-109881942D01*
X187094761Y-109977180D01*
X186999523Y-110024800D01*
X186904285Y-110024800D01*
X186809047Y-109977180D01*
X186761428Y-109881942D01*
X186761428Y-109643847D01*
X186713809Y-109548609D01*
X186475714Y-109215276D02*
X186475714Y-108834323D01*
X186142380Y-109072419D02*
X186999523Y-109072419D01*
X187094761Y-109024800D01*
X187142380Y-108929561D01*
X187142380Y-108834323D01*
X187142380Y-108072419D02*
X186618571Y-108072419D01*
X186523333Y-108120038D01*
X186475714Y-108215276D01*
X186475714Y-108405752D01*
X186523333Y-108500990D01*
X187094761Y-108072419D02*
X187142380Y-108167657D01*
X187142380Y-108405752D01*
X187094761Y-108500990D01*
X186999523Y-108548609D01*
X186904285Y-108548609D01*
X186809047Y-108500990D01*
X186761428Y-108405752D01*
X186761428Y-108167657D01*
X186713809Y-108072419D01*
X186571000Y-114350704D02*
X186523380Y-114445942D01*
X186523380Y-114588800D01*
X186571000Y-114731657D01*
X186666238Y-114826895D01*
X186761476Y-114874514D01*
X186951952Y-114922133D01*
X187094809Y-114922133D01*
X187285285Y-114874514D01*
X187380523Y-114826895D01*
X187475761Y-114731657D01*
X187523380Y-114588800D01*
X187523380Y-114493561D01*
X187475761Y-114350704D01*
X187428142Y-114303085D01*
X187094809Y-114303085D01*
X187094809Y-114493561D01*
X187523380Y-113874514D02*
X186523380Y-113874514D01*
X187523380Y-113303085D01*
X186523380Y-113303085D01*
X187523380Y-112826895D02*
X186523380Y-112826895D01*
X186523380Y-112588800D01*
X186571000Y-112445942D01*
X186666238Y-112350704D01*
X186761476Y-112303085D01*
X186951952Y-112255466D01*
X187094809Y-112255466D01*
X187285285Y-112303085D01*
X187380523Y-112350704D01*
X187475761Y-112445942D01*
X187523380Y-112588800D01*
X187523380Y-112826895D01*
X125969780Y-53139933D02*
X126684066Y-53139933D01*
X126826923Y-53187552D01*
X126922161Y-53282790D01*
X126969780Y-53425647D01*
X126969780Y-53520885D01*
X126969780Y-52139933D02*
X126969780Y-52711361D01*
X126969780Y-52425647D02*
X125969780Y-52425647D01*
X126112638Y-52520885D01*
X126207876Y-52616123D01*
X126255495Y-52711361D01*
X126198380Y-68303733D02*
X126912666Y-68303733D01*
X127055523Y-68351352D01*
X127150761Y-68446590D01*
X127198380Y-68589447D01*
X127198380Y-68684685D01*
X126293619Y-67875161D02*
X126246000Y-67827542D01*
X126198380Y-67732304D01*
X126198380Y-67494209D01*
X126246000Y-67398971D01*
X126293619Y-67351352D01*
X126388857Y-67303733D01*
X126484095Y-67303733D01*
X126626952Y-67351352D01*
X127198380Y-67922780D01*
X127198380Y-67303733D01*
X143975295Y-56835561D02*
X144118152Y-56883180D01*
X144356247Y-56883180D01*
X144451485Y-56835561D01*
X144499104Y-56787942D01*
X144546723Y-56692704D01*
X144546723Y-56597466D01*
X144499104Y-56502228D01*
X144451485Y-56454609D01*
X144356247Y-56406990D01*
X144165771Y-56359371D01*
X144070533Y-56311752D01*
X144022914Y-56264133D01*
X143975295Y-56168895D01*
X143975295Y-56073657D01*
X144022914Y-55978419D01*
X144070533Y-55930800D01*
X144165771Y-55883180D01*
X144403866Y-55883180D01*
X144546723Y-55930800D01*
X144975295Y-56883180D02*
X144975295Y-55883180D01*
X145213390Y-55883180D01*
X145356247Y-55930800D01*
X145451485Y-56026038D01*
X145499104Y-56121276D01*
X145546723Y-56311752D01*
X145546723Y-56454609D01*
X145499104Y-56645085D01*
X145451485Y-56740323D01*
X145356247Y-56835561D01*
X145213390Y-56883180D01*
X144975295Y-56883180D01*
X146499104Y-56883180D02*
X145927676Y-56883180D01*
X146213390Y-56883180D02*
X146213390Y-55883180D01*
X146118152Y-56026038D01*
X146022914Y-56121276D01*
X145927676Y-56168895D01*
X143564171Y-90676361D02*
X143707028Y-90723980D01*
X143945123Y-90723980D01*
X144040361Y-90676361D01*
X144087980Y-90628742D01*
X144135600Y-90533504D01*
X144135600Y-90438266D01*
X144087980Y-90343028D01*
X144040361Y-90295409D01*
X143945123Y-90247790D01*
X143754647Y-90200171D01*
X143659409Y-90152552D01*
X143611790Y-90104933D01*
X143564171Y-90009695D01*
X143564171Y-89914457D01*
X143611790Y-89819219D01*
X143659409Y-89771600D01*
X143754647Y-89723980D01*
X143992742Y-89723980D01*
X144135600Y-89771600D01*
X144564171Y-90723980D02*
X144564171Y-89723980D01*
X145040361Y-90723980D02*
X145040361Y-89723980D01*
X145373695Y-90438266D01*
X145707028Y-89723980D01*
X145707028Y-90723980D01*
X146707028Y-90723980D02*
X146135600Y-90723980D01*
X146421314Y-90723980D02*
X146421314Y-89723980D01*
X146326076Y-89866838D01*
X146230838Y-89962076D01*
X146135600Y-90009695D01*
X117430561Y-85562914D02*
X117478180Y-85420057D01*
X117478180Y-85181961D01*
X117430561Y-85086723D01*
X117382942Y-85039104D01*
X117287704Y-84991485D01*
X117192466Y-84991485D01*
X117097228Y-85039104D01*
X117049609Y-85086723D01*
X117001990Y-85181961D01*
X116954371Y-85372438D01*
X116906752Y-85467676D01*
X116859133Y-85515295D01*
X116763895Y-85562914D01*
X116668657Y-85562914D01*
X116573419Y-85515295D01*
X116525800Y-85467676D01*
X116478180Y-85372438D01*
X116478180Y-85134342D01*
X116525800Y-84991485D01*
X116478180Y-84562914D02*
X117287704Y-84562914D01*
X117382942Y-84515295D01*
X117430561Y-84467676D01*
X117478180Y-84372438D01*
X117478180Y-84181961D01*
X117430561Y-84086723D01*
X117382942Y-84039104D01*
X117287704Y-83991485D01*
X116478180Y-83991485D01*
X117478180Y-82991485D02*
X117478180Y-83562914D01*
X117478180Y-83277200D02*
X116478180Y-83277200D01*
X116621038Y-83372438D01*
X116716276Y-83467676D01*
X116763895Y-83562914D01*
X143035495Y-77489180D02*
X143606923Y-77489180D01*
X143321209Y-78489180D02*
X143321209Y-77489180D01*
X143940257Y-78489180D02*
X143940257Y-77489180D01*
X144321209Y-77489180D01*
X144416447Y-77536800D01*
X144464066Y-77584419D01*
X144511685Y-77679657D01*
X144511685Y-77822514D01*
X144464066Y-77917752D01*
X144416447Y-77965371D01*
X144321209Y-78012990D01*
X143940257Y-78012990D01*
X145464066Y-78489180D02*
X144892638Y-78489180D01*
X145178352Y-78489180D02*
X145178352Y-77489180D01*
X145083114Y-77632038D01*
X144987876Y-77727276D01*
X144892638Y-77774895D01*
X122272133Y-90296942D02*
X122224514Y-90344561D01*
X122081657Y-90392180D01*
X121986419Y-90392180D01*
X121843561Y-90344561D01*
X121748323Y-90249323D01*
X121700704Y-90154085D01*
X121653085Y-89963609D01*
X121653085Y-89820752D01*
X121700704Y-89630276D01*
X121748323Y-89535038D01*
X121843561Y-89439800D01*
X121986419Y-89392180D01*
X122081657Y-89392180D01*
X122224514Y-89439800D01*
X122272133Y-89487419D01*
X123224514Y-90392180D02*
X122653085Y-90392180D01*
X122938800Y-90392180D02*
X122938800Y-89392180D01*
X122843561Y-89535038D01*
X122748323Y-89630276D01*
X122653085Y-89677895D01*
X122551533Y-102906742D02*
X122503914Y-102954361D01*
X122361057Y-103001980D01*
X122265819Y-103001980D01*
X122122961Y-102954361D01*
X122027723Y-102859123D01*
X121980104Y-102763885D01*
X121932485Y-102573409D01*
X121932485Y-102430552D01*
X121980104Y-102240076D01*
X122027723Y-102144838D01*
X122122961Y-102049600D01*
X122265819Y-102001980D01*
X122361057Y-102001980D01*
X122503914Y-102049600D01*
X122551533Y-102097219D01*
X122932485Y-102097219D02*
X122980104Y-102049600D01*
X123075342Y-102001980D01*
X123313438Y-102001980D01*
X123408676Y-102049600D01*
X123456295Y-102097219D01*
X123503914Y-102192457D01*
X123503914Y-102287695D01*
X123456295Y-102430552D01*
X122884866Y-103001980D01*
X123503914Y-103001980D01*
X122576933Y-106564342D02*
X122529314Y-106611961D01*
X122386457Y-106659580D01*
X122291219Y-106659580D01*
X122148361Y-106611961D01*
X122053123Y-106516723D01*
X122005504Y-106421485D01*
X121957885Y-106231009D01*
X121957885Y-106088152D01*
X122005504Y-105897676D01*
X122053123Y-105802438D01*
X122148361Y-105707200D01*
X122291219Y-105659580D01*
X122386457Y-105659580D01*
X122529314Y-105707200D01*
X122576933Y-105754819D01*
X122910266Y-105659580D02*
X123529314Y-105659580D01*
X123195980Y-106040533D01*
X123338838Y-106040533D01*
X123434076Y-106088152D01*
X123481695Y-106135771D01*
X123529314Y-106231009D01*
X123529314Y-106469104D01*
X123481695Y-106564342D01*
X123434076Y-106611961D01*
X123338838Y-106659580D01*
X123053123Y-106659580D01*
X122957885Y-106611961D01*
X122910266Y-106564342D01*
X122551533Y-110298142D02*
X122503914Y-110345761D01*
X122361057Y-110393380D01*
X122265819Y-110393380D01*
X122122961Y-110345761D01*
X122027723Y-110250523D01*
X121980104Y-110155285D01*
X121932485Y-109964809D01*
X121932485Y-109821952D01*
X121980104Y-109631476D01*
X122027723Y-109536238D01*
X122122961Y-109441000D01*
X122265819Y-109393380D01*
X122361057Y-109393380D01*
X122503914Y-109441000D01*
X122551533Y-109488619D01*
X123408676Y-109726714D02*
X123408676Y-110393380D01*
X123170580Y-109345761D02*
X122932485Y-110060047D01*
X123551533Y-110060047D01*
X122121704Y-114618380D02*
X122121704Y-113618380D01*
X122359800Y-113618380D01*
X122502657Y-113666000D01*
X122597895Y-113761238D01*
X122645514Y-113856476D01*
X122693133Y-114046952D01*
X122693133Y-114189809D01*
X122645514Y-114380285D01*
X122597895Y-114475523D01*
X122502657Y-114570761D01*
X122359800Y-114618380D01*
X122121704Y-114618380D01*
X123645514Y-114618380D02*
X123074085Y-114618380D01*
X123359800Y-114618380D02*
X123359800Y-113618380D01*
X123264561Y-113761238D01*
X123169323Y-113856476D01*
X123074085Y-113904095D01*
X120057895Y-115038380D02*
X120057895Y-114038380D01*
X120629323Y-115038380D02*
X120200752Y-114466952D01*
X120629323Y-114038380D02*
X120057895Y-114609809D01*
X158913533Y-117673380D02*
X158580200Y-117197190D01*
X158342104Y-117673380D02*
X158342104Y-116673380D01*
X158723057Y-116673380D01*
X158818295Y-116721000D01*
X158865914Y-116768619D01*
X158913533Y-116863857D01*
X158913533Y-117006714D01*
X158865914Y-117101952D01*
X158818295Y-117149571D01*
X158723057Y-117197190D01*
X158342104Y-117197190D01*
X159246866Y-116673380D02*
X159913533Y-116673380D01*
X159484961Y-117673380D01*
X201574638Y-86068980D02*
X201574638Y-85068980D01*
X201574638Y-85545171D02*
X202146066Y-85545171D01*
X202146066Y-86068980D02*
X202146066Y-85068980D01*
X202765114Y-86068980D02*
X202669876Y-86021361D01*
X202622257Y-85973742D01*
X202574638Y-85878504D01*
X202574638Y-85592790D01*
X202622257Y-85497552D01*
X202669876Y-85449933D01*
X202765114Y-85402314D01*
X202907971Y-85402314D01*
X203003209Y-85449933D01*
X203050828Y-85497552D01*
X203098447Y-85592790D01*
X203098447Y-85878504D01*
X203050828Y-85973742D01*
X203003209Y-86021361D01*
X202907971Y-86068980D01*
X202765114Y-86068980D01*
X203669876Y-86068980D02*
X203574638Y-86021361D01*
X203527019Y-85926123D01*
X203527019Y-85068980D01*
X204431780Y-86021361D02*
X204336542Y-86068980D01*
X204146066Y-86068980D01*
X204050828Y-86021361D01*
X204003209Y-85926123D01*
X204003209Y-85545171D01*
X204050828Y-85449933D01*
X204146066Y-85402314D01*
X204336542Y-85402314D01*
X204431780Y-85449933D01*
X204479400Y-85545171D01*
X204479400Y-85640409D01*
X204003209Y-85735647D01*
X205431780Y-86068980D02*
X204860352Y-86068980D01*
X205146066Y-86068980D02*
X205146066Y-85068980D01*
X205050828Y-85211838D01*
X204955590Y-85307076D01*
X204860352Y-85354695D01*
M02*
