M48
; DRILL file {KiCad (5.1.4)-1} date 13/02/2020 11:17:03 a. m.
; FORMAT={-:-/ absolute / metric / decimal}
; #@! TF.CreationDate,2020-02-13T11:17:03-05:00
; #@! TF.GenerationSoftware,Kicad,Pcbnew,(5.1.4)-1
; #@! TF.FileFunction,Plated,1,2,PTH
FMAT,2
METRIC
T1C0.700
T2C0.750
T3C0.762
T4C0.800
T5C1.000
T6C1.520
%
G90
G05
T1
X140.614Y-107.747
X147.853Y-107.62
X140.538Y-95.504
X140.665Y-102.743
X177.089Y-116.484
X184.328Y-116.357
X160.858Y-65.557
X168.097Y-65.43
X166.218Y-112.192
X173.457Y-112.065
T2
X192.989Y-115.087
X192.989Y-116.357
X192.989Y-117.627
T3
X168.377Y-107.594
X170.917Y-107.594
X173.457Y-107.594
X201.955Y-93.421
X201.955Y-95.961
X201.955Y-98.501
X201.955Y-101.041
X201.955Y-103.581
X201.955Y-106.121
X122.606Y-81.737
X122.606Y-84.277
X122.606Y-86.817
X172.974Y-72.695
X172.974Y-75.235
X172.974Y-77.775
X172.974Y-80.315
X172.974Y-82.855
X172.974Y-85.395
X172.974Y-87.935
X172.974Y-90.475
X172.974Y-93.015
X172.974Y-95.555
X172.974Y-98.095
X172.974Y-100.635
X180.594Y-100.635
X183.134Y-100.635
X185.674Y-81.585
X185.674Y-84.125
X185.674Y-100.635
X188.214Y-72.695
X188.214Y-75.235
X188.214Y-77.775
X188.214Y-80.315
X188.214Y-82.855
X188.214Y-85.395
X188.214Y-87.935
X188.214Y-90.475
X188.214Y-93.015
X188.214Y-95.555
X188.214Y-98.095
X188.214Y-100.635
X196.367Y-75.082
X196.367Y-77.622
X196.367Y-80.162
X133.706Y-95.352
X133.706Y-97.892
X133.706Y-100.432
X133.706Y-102.972
X133.706Y-105.512
X133.706Y-108.052
X155.296Y-97.892
X155.296Y-100.432
X155.296Y-102.972
X155.296Y-105.512
X155.296Y-108.052
X174.625Y-54.381
X177.165Y-54.381
X179.705Y-54.381
X182.245Y-54.381
X184.785Y-54.381
X187.325Y-54.381
X161.036Y-58.293
X163.576Y-58.293
X166.116Y-58.293
X204.445Y-76.987
X135.077Y-49.581
X135.077Y-62.281
X154.127Y-49.581
X154.127Y-62.281
X163.043Y-97.13
X163.043Y-99.67
X163.043Y-102.21
X135.407Y-72.187
X135.407Y-84.887
X154.457Y-72.187
X154.457Y-84.887
X192.888Y-63.475
X195.428Y-63.475
X197.968Y-63.475
X200.508Y-63.475
T4
X120.218Y-104.75
X125.218Y-104.75
X120.244Y-108.407
X125.244Y-108.407
X120.218Y-112.141
X125.218Y-112.141
T5
X119.939Y-96.19
X124.939Y-96.19
X120.32Y-116.586
X125.4Y-116.586
T6
X121.666Y-65.43
X121.666Y-70.51
X121.437Y-50.267
X121.437Y-55.347
T0
M30
