G04 #@! TF.GenerationSoftware,KiCad,Pcbnew,(5.1.4)-1*
G04 #@! TF.CreationDate,2020-04-02T17:49:22-05:00*
G04 #@! TF.ProjectId,DoubLayerSim,446f7562-4c61-4796-9572-53696d2e6b69,rev?*
G04 #@! TF.SameCoordinates,Original*
G04 #@! TF.FileFunction,Copper,L2,Bot*
G04 #@! TF.FilePolarity,Positive*
%FSLAX46Y46*%
G04 Gerber Fmt 4.6, Leading zero omitted, Abs format (unit mm)*
G04 Created by KiCad (PCBNEW (5.1.4)-1) date 2020-04-02 17:49:22*
%MOMM*%
%LPD*%
G04 APERTURE LIST*
%ADD10O,1.500000X1.050000*%
%ADD11R,1.500000X1.050000*%
%ADD12O,1.900000X1.900000*%
%ADD13C,1.900000*%
%ADD14R,3.000000X3.000000*%
%ADD15C,3.000000*%
%ADD16R,2.000000X2.000000*%
%ADD17C,2.000000*%
%ADD18C,1.600000*%
%ADD19O,2.000000X2.000000*%
%ADD20C,0.750000*%
G04 APERTURE END LIST*
D10*
X171932600Y-115443000D03*
X171932600Y-117221000D03*
D11*
X171932600Y-113538000D03*
D12*
X168097200Y-65430400D03*
D13*
X160858200Y-65557400D03*
D12*
X140665200Y-102743000D03*
D13*
X140538200Y-95504000D03*
D12*
X147853400Y-107619800D03*
D13*
X140614400Y-107746800D03*
D12*
X193116200Y-114325400D03*
D13*
X192989200Y-107086400D03*
X180594000Y-100634800D03*
X183134000Y-100634800D03*
X185674000Y-100634800D03*
X185674000Y-84124800D03*
X185674000Y-81584800D03*
X188214000Y-100634800D03*
X188214000Y-98094800D03*
X188214000Y-95554800D03*
X188214000Y-93014800D03*
X188214000Y-90474800D03*
X188214000Y-87934800D03*
X188214000Y-85394800D03*
X188214000Y-82854800D03*
X188214000Y-80314800D03*
X188214000Y-77774800D03*
X188214000Y-75234800D03*
X188214000Y-72694800D03*
X172974000Y-100634800D03*
X172974000Y-98094800D03*
X172974000Y-95554800D03*
X172974000Y-93014800D03*
X172974000Y-90474800D03*
X172974000Y-87934800D03*
X172974000Y-85394800D03*
X172974000Y-82854800D03*
X172974000Y-80314800D03*
X172974000Y-77774800D03*
X172974000Y-75234800D03*
X172974000Y-72694800D03*
X196621400Y-92100400D03*
X196621400Y-94640400D03*
X196621400Y-97180400D03*
X196367400Y-80162400D03*
X196367400Y-75082400D03*
X196367400Y-77622400D03*
X187325000Y-54381400D03*
X184785000Y-54381400D03*
X182245000Y-54381400D03*
X179705000Y-54381400D03*
X177165000Y-54381400D03*
X174625000Y-54381400D03*
X163576000Y-58293000D03*
X166116000Y-58293000D03*
X161036000Y-58293000D03*
X184658000Y-111048800D03*
X184658000Y-116128800D03*
X184658000Y-113588800D03*
D14*
X121437400Y-50266600D03*
D15*
X121437400Y-55346600D03*
X121666000Y-70510400D03*
D14*
X121666000Y-65430400D03*
D13*
X135077200Y-49580800D03*
X135077200Y-62280800D03*
X154127200Y-49580800D03*
X154127200Y-62280800D03*
X133705600Y-95351600D03*
X133705600Y-97891600D03*
X133705600Y-100431600D03*
X133705600Y-102971600D03*
X133705600Y-105511600D03*
X133705600Y-108051600D03*
X155295600Y-97891600D03*
X155295600Y-100431600D03*
X155295600Y-102971600D03*
X155295600Y-105511600D03*
X155295600Y-108051600D03*
X122605800Y-86817200D03*
X122605800Y-84277200D03*
X122605800Y-81737200D03*
X135407400Y-72186800D03*
X135407400Y-84886800D03*
X154457400Y-72186800D03*
X154457400Y-84886800D03*
D16*
X119938800Y-96189800D03*
D17*
X124938800Y-96189800D03*
D18*
X120218200Y-104749600D03*
X125218200Y-104749600D03*
X125243600Y-108407200D03*
X120243600Y-108407200D03*
X120218200Y-112141000D03*
X125218200Y-112141000D03*
D16*
X120319800Y-116586000D03*
D19*
X125399800Y-116586000D03*
D13*
X163271200Y-115443000D03*
D12*
X156032200Y-115570000D03*
D13*
X203479400Y-88366600D03*
D20*
X155295600Y-98145600D02*
X155295600Y-97891600D01*
X182245000Y-80695800D02*
X182245000Y-58013600D01*
X185674000Y-84124800D02*
X182245000Y-80695800D01*
X182245000Y-58013600D02*
X182245000Y-54381400D01*
X184785000Y-58013600D02*
X184785000Y-54381400D01*
X184785000Y-78229302D02*
X184785000Y-58013600D01*
X188214000Y-80314800D02*
X186870498Y-80314800D01*
X186870498Y-80314800D02*
X184785000Y-78229302D01*
X126061201Y-83361799D02*
X133224001Y-83361799D01*
X122605800Y-86817200D02*
X126061201Y-83361799D01*
X133224001Y-83361799D02*
X144272000Y-72313800D01*
X144272000Y-72313800D02*
X144272000Y-65227200D01*
X144272000Y-65227200D02*
X160705800Y-48793400D01*
X179197000Y-48793400D02*
X184785000Y-54381400D01*
X160705800Y-48793400D02*
X179197000Y-48793400D01*
X177165000Y-80441800D02*
X177165000Y-58013600D01*
X172974000Y-82854800D02*
X174752000Y-82854800D01*
X174752000Y-82854800D02*
X177165000Y-80441800D01*
X177165000Y-58013600D02*
X177165000Y-54381400D01*
X156032200Y-115570000D02*
X158877000Y-112725200D01*
X158877000Y-112725200D02*
X164998400Y-112725200D01*
X172974000Y-104749600D02*
X172974000Y-100634800D01*
X164998400Y-112725200D02*
X172974000Y-104749600D01*
X194066199Y-113375401D02*
X198993799Y-113375401D01*
X193116200Y-114325400D02*
X194066199Y-113375401D01*
X198993799Y-113375401D02*
X202412600Y-109956600D01*
X202412600Y-89433400D02*
X203479400Y-88366600D01*
X202412600Y-109956600D02*
X202412600Y-89433400D01*
M02*
