G04 #@! TF.GenerationSoftware,KiCad,Pcbnew,(5.1.4)-1*
G04 #@! TF.CreationDate,2020-02-13T11:16:56-05:00*
G04 #@! TF.ProjectId,DoubLayerSim,446f7562-4c61-4796-9572-53696d2e6b69,rev?*
G04 #@! TF.SameCoordinates,Original*
G04 #@! TF.FileFunction,Legend,Top*
G04 #@! TF.FilePolarity,Positive*
%FSLAX46Y46*%
G04 Gerber Fmt 4.6, Leading zero omitted, Abs format (unit mm)*
G04 Created by KiCad (PCBNEW (5.1.4)-1) date 2020-02-13 11:16:56*
%MOMM*%
%LPD*%
G04 APERTURE LIST*
%ADD10C,0.150000*%
%ADD11C,0.120000*%
G04 APERTURE END LIST*
D10*
X193181314Y-113314171D02*
X193514647Y-113314171D01*
X193657504Y-113837980D02*
X193181314Y-113837980D01*
X193181314Y-112837980D01*
X193657504Y-112837980D01*
X201295095Y-90432000D02*
X201199857Y-90384380D01*
X201057000Y-90384380D01*
X200914142Y-90432000D01*
X200818904Y-90527238D01*
X200771285Y-90622476D01*
X200723666Y-90812952D01*
X200723666Y-90955809D01*
X200771285Y-91146285D01*
X200818904Y-91241523D01*
X200914142Y-91336761D01*
X201057000Y-91384380D01*
X201152238Y-91384380D01*
X201295095Y-91336761D01*
X201342714Y-91289142D01*
X201342714Y-90955809D01*
X201152238Y-90955809D01*
X201771285Y-91384380D02*
X201771285Y-90384380D01*
X202342714Y-91384380D01*
X202342714Y-90384380D01*
X202818904Y-91384380D02*
X202818904Y-90384380D01*
X203057000Y-90384380D01*
X203199857Y-90432000D01*
X203295095Y-90527238D01*
X203342714Y-90622476D01*
X203390333Y-90812952D01*
X203390333Y-90955809D01*
X203342714Y-91146285D01*
X203295095Y-91241523D01*
X203199857Y-91336761D01*
X203057000Y-91384380D01*
X202818904Y-91384380D01*
X153390742Y-83103980D02*
X153390742Y-82103980D01*
X153866933Y-83103980D02*
X153866933Y-82103980D01*
X154438361Y-83103980D01*
X154438361Y-82103980D01*
X154914552Y-82723028D02*
X155676457Y-82723028D01*
X155295504Y-83103980D02*
X155295504Y-82342076D01*
X134220152Y-82510380D02*
X134410628Y-82510380D01*
X134505866Y-82558000D01*
X134601104Y-82653238D01*
X134648723Y-82843714D01*
X134648723Y-83177047D01*
X134601104Y-83367523D01*
X134505866Y-83462761D01*
X134410628Y-83510380D01*
X134220152Y-83510380D01*
X134124914Y-83462761D01*
X134029676Y-83367523D01*
X133982057Y-83177047D01*
X133982057Y-82843714D01*
X134029676Y-82653238D01*
X134124914Y-82558000D01*
X134220152Y-82510380D01*
X135077295Y-82510380D02*
X135077295Y-83319904D01*
X135124914Y-83415142D01*
X135172533Y-83462761D01*
X135267771Y-83510380D01*
X135458247Y-83510380D01*
X135553485Y-83462761D01*
X135601104Y-83415142D01*
X135648723Y-83319904D01*
X135648723Y-82510380D01*
X135982057Y-82510380D02*
X136553485Y-82510380D01*
X136267771Y-83510380D02*
X136267771Y-82510380D01*
X136886819Y-83129428D02*
X137648723Y-83129428D01*
X137267771Y-83510380D02*
X137267771Y-82748476D01*
X154178095Y-95156400D02*
X154082857Y-95108780D01*
X153940000Y-95108780D01*
X153797142Y-95156400D01*
X153701904Y-95251638D01*
X153654285Y-95346876D01*
X153606666Y-95537352D01*
X153606666Y-95680209D01*
X153654285Y-95870685D01*
X153701904Y-95965923D01*
X153797142Y-96061161D01*
X153940000Y-96108780D01*
X154035238Y-96108780D01*
X154178095Y-96061161D01*
X154225714Y-96013542D01*
X154225714Y-95680209D01*
X154035238Y-95680209D01*
X154654285Y-96108780D02*
X154654285Y-95108780D01*
X155225714Y-96108780D01*
X155225714Y-95108780D01*
X155701904Y-96108780D02*
X155701904Y-95108780D01*
X155940000Y-95108780D01*
X156082857Y-95156400D01*
X156178095Y-95251638D01*
X156225714Y-95346876D01*
X156273333Y-95537352D01*
X156273333Y-95680209D01*
X156225714Y-95870685D01*
X156178095Y-95965923D01*
X156082857Y-96061161D01*
X155940000Y-96108780D01*
X155701904Y-96108780D01*
X121967809Y-78281780D02*
X122586857Y-78281780D01*
X122253523Y-78662733D01*
X122396380Y-78662733D01*
X122491619Y-78710352D01*
X122539238Y-78757971D01*
X122586857Y-78853209D01*
X122586857Y-79091304D01*
X122539238Y-79186542D01*
X122491619Y-79234161D01*
X122396380Y-79281780D01*
X122110666Y-79281780D01*
X122015428Y-79234161D01*
X121967809Y-79186542D01*
X123015428Y-79186542D02*
X123063047Y-79234161D01*
X123015428Y-79281780D01*
X122967809Y-79234161D01*
X123015428Y-79186542D01*
X123015428Y-79281780D01*
X123634476Y-78710352D02*
X123539238Y-78662733D01*
X123491619Y-78615114D01*
X123444000Y-78519876D01*
X123444000Y-78472257D01*
X123491619Y-78377019D01*
X123539238Y-78329400D01*
X123634476Y-78281780D01*
X123824952Y-78281780D01*
X123920190Y-78329400D01*
X123967809Y-78377019D01*
X124015428Y-78472257D01*
X124015428Y-78519876D01*
X123967809Y-78615114D01*
X123920190Y-78662733D01*
X123824952Y-78710352D01*
X123634476Y-78710352D01*
X123539238Y-78757971D01*
X123491619Y-78805590D01*
X123444000Y-78900828D01*
X123444000Y-79091304D01*
X123491619Y-79186542D01*
X123539238Y-79234161D01*
X123634476Y-79281780D01*
X123824952Y-79281780D01*
X123920190Y-79234161D01*
X123967809Y-79186542D01*
X124015428Y-79091304D01*
X124015428Y-78900828D01*
X123967809Y-78805590D01*
X123920190Y-78757971D01*
X123824952Y-78710352D01*
X124301142Y-78281780D02*
X124634476Y-79281780D01*
X124967809Y-78281780D01*
X122542323Y-88555580D02*
X122066133Y-88555580D01*
X122018514Y-89031771D01*
X122066133Y-88984152D01*
X122161371Y-88936533D01*
X122399466Y-88936533D01*
X122494704Y-88984152D01*
X122542323Y-89031771D01*
X122589942Y-89127009D01*
X122589942Y-89365104D01*
X122542323Y-89460342D01*
X122494704Y-89507961D01*
X122399466Y-89555580D01*
X122161371Y-89555580D01*
X122066133Y-89507961D01*
X122018514Y-89460342D01*
X122875657Y-88555580D02*
X123208990Y-89555580D01*
X123542323Y-88555580D01*
X153466895Y-74099800D02*
X153371657Y-74052180D01*
X153228800Y-74052180D01*
X153085942Y-74099800D01*
X152990704Y-74195038D01*
X152943085Y-74290276D01*
X152895466Y-74480752D01*
X152895466Y-74623609D01*
X152943085Y-74814085D01*
X152990704Y-74909323D01*
X153085942Y-75004561D01*
X153228800Y-75052180D01*
X153324038Y-75052180D01*
X153466895Y-75004561D01*
X153514514Y-74956942D01*
X153514514Y-74623609D01*
X153324038Y-74623609D01*
X153943085Y-75052180D02*
X153943085Y-74052180D01*
X154514514Y-75052180D01*
X154514514Y-74052180D01*
X154990704Y-75052180D02*
X154990704Y-74052180D01*
X155228800Y-74052180D01*
X155371657Y-74099800D01*
X155466895Y-74195038D01*
X155514514Y-74290276D01*
X155562133Y-74480752D01*
X155562133Y-74623609D01*
X155514514Y-74814085D01*
X155466895Y-74909323D01*
X155371657Y-75004561D01*
X155228800Y-75052180D01*
X154990704Y-75052180D01*
X134594695Y-73922000D02*
X134499457Y-73874380D01*
X134356600Y-73874380D01*
X134213742Y-73922000D01*
X134118504Y-74017238D01*
X134070885Y-74112476D01*
X134023266Y-74302952D01*
X134023266Y-74445809D01*
X134070885Y-74636285D01*
X134118504Y-74731523D01*
X134213742Y-74826761D01*
X134356600Y-74874380D01*
X134451838Y-74874380D01*
X134594695Y-74826761D01*
X134642314Y-74779142D01*
X134642314Y-74445809D01*
X134451838Y-74445809D01*
X135070885Y-74874380D02*
X135070885Y-73874380D01*
X135642314Y-74874380D01*
X135642314Y-73874380D01*
X136118504Y-74874380D02*
X136118504Y-73874380D01*
X136356600Y-73874380D01*
X136499457Y-73922000D01*
X136594695Y-74017238D01*
X136642314Y-74112476D01*
X136689933Y-74302952D01*
X136689933Y-74445809D01*
X136642314Y-74636285D01*
X136594695Y-74731523D01*
X136499457Y-74826761D01*
X136356600Y-74874380D01*
X136118504Y-74874380D01*
X152330352Y-51090580D02*
X152520828Y-51090580D01*
X152616066Y-51138200D01*
X152711304Y-51233438D01*
X152758923Y-51423914D01*
X152758923Y-51757247D01*
X152711304Y-51947723D01*
X152616066Y-52042961D01*
X152520828Y-52090580D01*
X152330352Y-52090580D01*
X152235114Y-52042961D01*
X152139876Y-51947723D01*
X152092257Y-51757247D01*
X152092257Y-51423914D01*
X152139876Y-51233438D01*
X152235114Y-51138200D01*
X152330352Y-51090580D01*
X153187495Y-51090580D02*
X153187495Y-51900104D01*
X153235114Y-51995342D01*
X153282733Y-52042961D01*
X153377971Y-52090580D01*
X153568447Y-52090580D01*
X153663685Y-52042961D01*
X153711304Y-51995342D01*
X153758923Y-51900104D01*
X153758923Y-51090580D01*
X154092257Y-51090580D02*
X154663685Y-51090580D01*
X154377971Y-52090580D02*
X154377971Y-51090580D01*
X154997019Y-51709628D02*
X155758923Y-51709628D01*
X133908942Y-52090580D02*
X133908942Y-51090580D01*
X134385133Y-52090580D02*
X134385133Y-51090580D01*
X134956561Y-52090580D01*
X134956561Y-51090580D01*
X135432752Y-51709628D02*
X136194657Y-51709628D01*
X121513695Y-47201200D02*
X121418457Y-47153580D01*
X121275600Y-47153580D01*
X121132742Y-47201200D01*
X121037504Y-47296438D01*
X120989885Y-47391676D01*
X120942266Y-47582152D01*
X120942266Y-47725009D01*
X120989885Y-47915485D01*
X121037504Y-48010723D01*
X121132742Y-48105961D01*
X121275600Y-48153580D01*
X121370838Y-48153580D01*
X121513695Y-48105961D01*
X121561314Y-48058342D01*
X121561314Y-47725009D01*
X121370838Y-47725009D01*
X121989885Y-48153580D02*
X121989885Y-47153580D01*
X122561314Y-48153580D01*
X122561314Y-47153580D01*
X123037504Y-48153580D02*
X123037504Y-47153580D01*
X123275600Y-47153580D01*
X123418457Y-47201200D01*
X123513695Y-47296438D01*
X123561314Y-47391676D01*
X123608933Y-47582152D01*
X123608933Y-47725009D01*
X123561314Y-47915485D01*
X123513695Y-48010723D01*
X123418457Y-48105961D01*
X123275600Y-48153580D01*
X123037504Y-48153580D01*
X121513695Y-61831600D02*
X121418457Y-61783980D01*
X121275600Y-61783980D01*
X121132742Y-61831600D01*
X121037504Y-61926838D01*
X120989885Y-62022076D01*
X120942266Y-62212552D01*
X120942266Y-62355409D01*
X120989885Y-62545885D01*
X121037504Y-62641123D01*
X121132742Y-62736361D01*
X121275600Y-62783980D01*
X121370838Y-62783980D01*
X121513695Y-62736361D01*
X121561314Y-62688742D01*
X121561314Y-62355409D01*
X121370838Y-62355409D01*
X121989885Y-62783980D02*
X121989885Y-61783980D01*
X122561314Y-62783980D01*
X122561314Y-61783980D01*
X123037504Y-62783980D02*
X123037504Y-61783980D01*
X123275600Y-61783980D01*
X123418457Y-61831600D01*
X123513695Y-61926838D01*
X123561314Y-62022076D01*
X123608933Y-62212552D01*
X123608933Y-62355409D01*
X123561314Y-62545885D01*
X123513695Y-62641123D01*
X123418457Y-62736361D01*
X123275600Y-62783980D01*
X123037504Y-62783980D01*
D11*
X161366200Y-66446400D02*
X167462200Y-66446400D01*
X161366200Y-64668400D02*
X167335200Y-64668400D01*
X139649200Y-96012000D02*
X139649200Y-102108000D01*
X141427200Y-96012000D02*
X141427200Y-101981000D01*
X141122400Y-108635800D02*
X147218400Y-108635800D01*
X141122400Y-106857800D02*
X147091400Y-106857800D01*
X172948600Y-111175800D02*
X166852600Y-111175800D01*
X172948600Y-112953800D02*
X166979600Y-112953800D01*
X171704000Y-101904800D02*
X171704000Y-71424800D01*
X189484000Y-101904800D02*
X171704000Y-101904800D01*
X189484000Y-71424800D02*
X189484000Y-101904800D01*
X171704000Y-71424800D02*
X189484000Y-71424800D01*
X164312600Y-103479600D02*
X161772600Y-103479600D01*
X164312600Y-95859600D02*
X164312600Y-103479600D01*
X161772600Y-95859600D02*
X164312600Y-95859600D01*
X161772600Y-103479600D02*
X161772600Y-95859600D01*
X197637400Y-73812400D02*
X197637400Y-81432400D01*
X195097400Y-81432400D02*
X195097400Y-73812400D01*
X197637400Y-81432400D02*
X195097400Y-81432400D01*
X195097400Y-73812400D02*
X197637400Y-73812400D01*
X170815000Y-56921400D02*
X170815000Y-51841400D01*
X191135000Y-56921400D02*
X170815000Y-56921400D01*
X191135000Y-51841400D02*
X191135000Y-56921400D01*
X170815000Y-51841400D02*
X191135000Y-51841400D01*
X167386000Y-57023000D02*
X167386000Y-59563000D01*
X159766000Y-59563000D02*
X159766000Y-57023000D01*
X159766000Y-57023000D02*
X167386000Y-57023000D01*
X167386000Y-59563000D02*
X159766000Y-59563000D01*
X167106600Y-106324400D02*
X174726600Y-106324400D01*
X174726600Y-108864400D02*
X167106600Y-108864400D01*
X174726600Y-106324400D02*
X174726600Y-108864400D01*
X167106600Y-108864400D02*
X167106600Y-106324400D01*
X118897400Y-57886600D02*
X118897400Y-47726600D01*
X117627400Y-57886600D02*
X125247400Y-57886600D01*
X125247400Y-57886600D02*
X125247400Y-47726600D01*
X125247400Y-47726600D02*
X117627400Y-47726600D01*
X117627400Y-47726600D02*
X117627400Y-57886600D01*
X117856000Y-62890400D02*
X117856000Y-73050400D01*
X125476000Y-62890400D02*
X117856000Y-62890400D01*
X125476000Y-73050400D02*
X125476000Y-62890400D01*
X117856000Y-73050400D02*
X125476000Y-73050400D01*
X119126000Y-73050400D02*
X119126000Y-62890400D01*
X199415400Y-88341200D02*
X204495400Y-88341200D01*
X199415400Y-111201200D02*
X199415400Y-88341200D01*
X204495400Y-111201200D02*
X199415400Y-111201200D01*
X204495400Y-88341200D02*
X204495400Y-111201200D01*
X132537200Y-47040800D02*
X156667200Y-47040800D01*
X156667200Y-47040800D02*
X156667200Y-64820800D01*
X156667200Y-64820800D02*
X132537200Y-64820800D01*
X132537200Y-64820800D02*
X132537200Y-47040800D01*
X157835600Y-92811600D02*
X157835600Y-113131600D01*
X131165600Y-92811600D02*
X157835600Y-92811600D01*
X131165600Y-113131600D02*
X131165600Y-92811600D01*
X157835600Y-113131600D02*
X131165600Y-113131600D01*
X120065800Y-80467200D02*
X125145800Y-80467200D01*
X120065800Y-88087200D02*
X120065800Y-80467200D01*
X125145800Y-88087200D02*
X120065800Y-88087200D01*
X125145800Y-80467200D02*
X125145800Y-88087200D01*
X156997400Y-69646800D02*
X156997400Y-87426800D01*
X132867400Y-69646800D02*
X156997400Y-69646800D01*
X132867400Y-87426800D02*
X132867400Y-69646800D01*
X156997400Y-87426800D02*
X132867400Y-87426800D01*
X127558800Y-96189800D02*
G75*
G03X127558800Y-96189800I-5120000J0D01*
G01*
X122438800Y-91109800D02*
X122438800Y-101269800D01*
X122478800Y-91109800D02*
X122478800Y-101269800D01*
X122518800Y-91109800D02*
X122518800Y-101269800D01*
X122558800Y-91110800D02*
X122558800Y-101268800D01*
X122598800Y-91111800D02*
X122598800Y-101267800D01*
X122638800Y-91112800D02*
X122638800Y-101266800D01*
X122678800Y-91114800D02*
X122678800Y-101264800D01*
X122718800Y-91116800D02*
X122718800Y-101262800D01*
X122758800Y-91119800D02*
X122758800Y-101259800D01*
X122798800Y-91121800D02*
X122798800Y-101257800D01*
X122838800Y-91124800D02*
X122838800Y-101254800D01*
X122878800Y-91127800D02*
X122878800Y-101251800D01*
X122918800Y-91131800D02*
X122918800Y-101247800D01*
X122958800Y-91135800D02*
X122958800Y-101243800D01*
X122998800Y-91139800D02*
X122998800Y-101239800D01*
X123038800Y-91144800D02*
X123038800Y-101234800D01*
X123078800Y-91149800D02*
X123078800Y-101229800D01*
X123118800Y-91154800D02*
X123118800Y-101224800D01*
X123159800Y-91159800D02*
X123159800Y-101219800D01*
X123199800Y-91165800D02*
X123199800Y-101213800D01*
X123239800Y-91171800D02*
X123239800Y-101207800D01*
X123279800Y-91178800D02*
X123279800Y-101200800D01*
X123319800Y-91185800D02*
X123319800Y-101193800D01*
X123359800Y-91192800D02*
X123359800Y-101186800D01*
X123399800Y-91199800D02*
X123399800Y-101179800D01*
X123439800Y-91207800D02*
X123439800Y-101171800D01*
X123479800Y-91215800D02*
X123479800Y-101163800D01*
X123519800Y-91224800D02*
X123519800Y-101154800D01*
X123559800Y-91233800D02*
X123559800Y-101145800D01*
X123599800Y-91242800D02*
X123599800Y-101136800D01*
X123639800Y-91251800D02*
X123639800Y-101127800D01*
X123679800Y-91261800D02*
X123679800Y-101117800D01*
X123719800Y-91271800D02*
X123719800Y-94948800D01*
X123719800Y-97430800D02*
X123719800Y-101107800D01*
X123759800Y-91282800D02*
X123759800Y-94948800D01*
X123759800Y-97430800D02*
X123759800Y-101096800D01*
X123799800Y-91292800D02*
X123799800Y-94948800D01*
X123799800Y-97430800D02*
X123799800Y-101086800D01*
X123839800Y-91304800D02*
X123839800Y-94948800D01*
X123839800Y-97430800D02*
X123839800Y-101074800D01*
X123879800Y-91315800D02*
X123879800Y-94948800D01*
X123879800Y-97430800D02*
X123879800Y-101063800D01*
X123919800Y-91327800D02*
X123919800Y-94948800D01*
X123919800Y-97430800D02*
X123919800Y-101051800D01*
X123959800Y-91339800D02*
X123959800Y-94948800D01*
X123959800Y-97430800D02*
X123959800Y-101039800D01*
X123999800Y-91352800D02*
X123999800Y-94948800D01*
X123999800Y-97430800D02*
X123999800Y-101026800D01*
X124039800Y-91365800D02*
X124039800Y-94948800D01*
X124039800Y-97430800D02*
X124039800Y-101013800D01*
X124079800Y-91378800D02*
X124079800Y-94948800D01*
X124079800Y-97430800D02*
X124079800Y-101000800D01*
X124119800Y-91392800D02*
X124119800Y-94948800D01*
X124119800Y-97430800D02*
X124119800Y-100986800D01*
X124159800Y-91406800D02*
X124159800Y-94948800D01*
X124159800Y-97430800D02*
X124159800Y-100972800D01*
X124199800Y-91421800D02*
X124199800Y-94948800D01*
X124199800Y-97430800D02*
X124199800Y-100957800D01*
X124239800Y-91435800D02*
X124239800Y-94948800D01*
X124239800Y-97430800D02*
X124239800Y-100943800D01*
X124279800Y-91451800D02*
X124279800Y-94948800D01*
X124279800Y-97430800D02*
X124279800Y-100927800D01*
X124319800Y-91466800D02*
X124319800Y-94948800D01*
X124319800Y-97430800D02*
X124319800Y-100912800D01*
X124359800Y-91482800D02*
X124359800Y-94948800D01*
X124359800Y-97430800D02*
X124359800Y-100896800D01*
X124399800Y-91499800D02*
X124399800Y-94948800D01*
X124399800Y-97430800D02*
X124399800Y-100879800D01*
X124439800Y-91515800D02*
X124439800Y-94948800D01*
X124439800Y-97430800D02*
X124439800Y-100863800D01*
X124479800Y-91532800D02*
X124479800Y-94948800D01*
X124479800Y-97430800D02*
X124479800Y-100846800D01*
X124519800Y-91550800D02*
X124519800Y-94948800D01*
X124519800Y-97430800D02*
X124519800Y-100828800D01*
X124559800Y-91568800D02*
X124559800Y-94948800D01*
X124559800Y-97430800D02*
X124559800Y-100810800D01*
X124599800Y-91586800D02*
X124599800Y-94948800D01*
X124599800Y-97430800D02*
X124599800Y-100792800D01*
X124639800Y-91605800D02*
X124639800Y-94948800D01*
X124639800Y-97430800D02*
X124639800Y-100773800D01*
X124679800Y-91625800D02*
X124679800Y-94948800D01*
X124679800Y-97430800D02*
X124679800Y-100753800D01*
X124719800Y-91644800D02*
X124719800Y-94948800D01*
X124719800Y-97430800D02*
X124719800Y-100734800D01*
X124759800Y-91664800D02*
X124759800Y-94948800D01*
X124759800Y-97430800D02*
X124759800Y-100714800D01*
X124799800Y-91685800D02*
X124799800Y-94948800D01*
X124799800Y-97430800D02*
X124799800Y-100693800D01*
X124839800Y-91706800D02*
X124839800Y-94948800D01*
X124839800Y-97430800D02*
X124839800Y-100672800D01*
X124879800Y-91727800D02*
X124879800Y-94948800D01*
X124879800Y-97430800D02*
X124879800Y-100651800D01*
X124919800Y-91749800D02*
X124919800Y-94948800D01*
X124919800Y-97430800D02*
X124919800Y-100629800D01*
X124959800Y-91772800D02*
X124959800Y-94948800D01*
X124959800Y-97430800D02*
X124959800Y-100606800D01*
X124999800Y-91794800D02*
X124999800Y-94948800D01*
X124999800Y-97430800D02*
X124999800Y-100584800D01*
X125039800Y-91818800D02*
X125039800Y-94948800D01*
X125039800Y-97430800D02*
X125039800Y-100560800D01*
X125079800Y-91842800D02*
X125079800Y-94948800D01*
X125079800Y-97430800D02*
X125079800Y-100536800D01*
X125119800Y-91866800D02*
X125119800Y-94948800D01*
X125119800Y-97430800D02*
X125119800Y-100512800D01*
X125159800Y-91891800D02*
X125159800Y-94948800D01*
X125159800Y-97430800D02*
X125159800Y-100487800D01*
X125199800Y-91916800D02*
X125199800Y-94948800D01*
X125199800Y-97430800D02*
X125199800Y-100462800D01*
X125239800Y-91942800D02*
X125239800Y-94948800D01*
X125239800Y-97430800D02*
X125239800Y-100436800D01*
X125279800Y-91968800D02*
X125279800Y-94948800D01*
X125279800Y-97430800D02*
X125279800Y-100410800D01*
X125319800Y-91995800D02*
X125319800Y-94948800D01*
X125319800Y-97430800D02*
X125319800Y-100383800D01*
X125359800Y-92023800D02*
X125359800Y-94948800D01*
X125359800Y-97430800D02*
X125359800Y-100355800D01*
X125399800Y-92051800D02*
X125399800Y-94948800D01*
X125399800Y-97430800D02*
X125399800Y-100327800D01*
X125439800Y-92079800D02*
X125439800Y-94948800D01*
X125439800Y-97430800D02*
X125439800Y-100299800D01*
X125479800Y-92109800D02*
X125479800Y-94948800D01*
X125479800Y-97430800D02*
X125479800Y-100269800D01*
X125519800Y-92139800D02*
X125519800Y-94948800D01*
X125519800Y-97430800D02*
X125519800Y-100239800D01*
X125559800Y-92169800D02*
X125559800Y-94948800D01*
X125559800Y-97430800D02*
X125559800Y-100209800D01*
X125599800Y-92200800D02*
X125599800Y-94948800D01*
X125599800Y-97430800D02*
X125599800Y-100178800D01*
X125639800Y-92232800D02*
X125639800Y-94948800D01*
X125639800Y-97430800D02*
X125639800Y-100146800D01*
X125679800Y-92264800D02*
X125679800Y-94948800D01*
X125679800Y-97430800D02*
X125679800Y-100114800D01*
X125719800Y-92297800D02*
X125719800Y-94948800D01*
X125719800Y-97430800D02*
X125719800Y-100081800D01*
X125759800Y-92331800D02*
X125759800Y-94948800D01*
X125759800Y-97430800D02*
X125759800Y-100047800D01*
X125799800Y-92365800D02*
X125799800Y-94948800D01*
X125799800Y-97430800D02*
X125799800Y-100013800D01*
X125839800Y-92400800D02*
X125839800Y-94948800D01*
X125839800Y-97430800D02*
X125839800Y-99978800D01*
X125879800Y-92436800D02*
X125879800Y-94948800D01*
X125879800Y-97430800D02*
X125879800Y-99942800D01*
X125919800Y-92473800D02*
X125919800Y-94948800D01*
X125919800Y-97430800D02*
X125919800Y-99905800D01*
X125959800Y-92510800D02*
X125959800Y-94948800D01*
X125959800Y-97430800D02*
X125959800Y-99868800D01*
X125999800Y-92549800D02*
X125999800Y-94948800D01*
X125999800Y-97430800D02*
X125999800Y-99829800D01*
X126039800Y-92588800D02*
X126039800Y-94948800D01*
X126039800Y-97430800D02*
X126039800Y-99790800D01*
X126079800Y-92628800D02*
X126079800Y-94948800D01*
X126079800Y-97430800D02*
X126079800Y-99750800D01*
X126119800Y-92669800D02*
X126119800Y-94948800D01*
X126119800Y-97430800D02*
X126119800Y-99709800D01*
X126159800Y-92711800D02*
X126159800Y-94948800D01*
X126159800Y-97430800D02*
X126159800Y-99667800D01*
X126199800Y-92753800D02*
X126199800Y-99625800D01*
X126239800Y-92797800D02*
X126239800Y-99581800D01*
X126279800Y-92842800D02*
X126279800Y-99536800D01*
X126319800Y-92888800D02*
X126319800Y-99490800D01*
X126359800Y-92935800D02*
X126359800Y-99443800D01*
X126399800Y-92983800D02*
X126399800Y-99395800D01*
X126439800Y-93033800D02*
X126439800Y-99345800D01*
X126479800Y-93083800D02*
X126479800Y-99295800D01*
X126519800Y-93135800D02*
X126519800Y-99243800D01*
X126559800Y-93189800D02*
X126559800Y-99189800D01*
X126599800Y-93244800D02*
X126599800Y-99134800D01*
X126639800Y-93300800D02*
X126639800Y-99078800D01*
X126679800Y-93359800D02*
X126679800Y-99019800D01*
X126719800Y-93419800D02*
X126719800Y-98959800D01*
X126759800Y-93480800D02*
X126759800Y-98898800D01*
X126799800Y-93544800D02*
X126799800Y-98834800D01*
X126839800Y-93610800D02*
X126839800Y-98768800D01*
X126879800Y-93679800D02*
X126879800Y-98699800D01*
X126919800Y-93750800D02*
X126919800Y-98628800D01*
X126959800Y-93824800D02*
X126959800Y-98554800D01*
X126999800Y-93900800D02*
X126999800Y-98478800D01*
X127039800Y-93980800D02*
X127039800Y-98398800D01*
X127079800Y-94064800D02*
X127079800Y-98314800D01*
X127119800Y-94152800D02*
X127119800Y-98226800D01*
X127159800Y-94245800D02*
X127159800Y-98133800D01*
X127199800Y-94343800D02*
X127199800Y-98035800D01*
X127239800Y-94447800D02*
X127239800Y-97931800D01*
X127279800Y-94559800D02*
X127279800Y-97819800D01*
X127319800Y-94679800D02*
X127319800Y-97699800D01*
X127359800Y-94811800D02*
X127359800Y-97567800D01*
X127399800Y-94959800D02*
X127399800Y-97419800D01*
X127439800Y-95127800D02*
X127439800Y-97251800D01*
X127479800Y-95327800D02*
X127479800Y-97051800D01*
X127519800Y-95590800D02*
X127519800Y-96788800D01*
X116959154Y-93314800D02*
X117959154Y-93314800D01*
X117459154Y-92814800D02*
X117459154Y-93814800D01*
X120448200Y-103679600D02*
X124988200Y-103679600D01*
X120448200Y-105819600D02*
X124988200Y-105819600D01*
X120448200Y-103679600D02*
X120448200Y-103694600D01*
X120448200Y-105804600D02*
X120448200Y-105819600D01*
X124988200Y-103679600D02*
X124988200Y-103694600D01*
X124988200Y-105804600D02*
X124988200Y-105819600D01*
X125013600Y-109462200D02*
X125013600Y-109477200D01*
X125013600Y-107337200D02*
X125013600Y-107352200D01*
X120473600Y-109462200D02*
X120473600Y-109477200D01*
X120473600Y-107337200D02*
X120473600Y-107352200D01*
X120473600Y-109477200D02*
X125013600Y-109477200D01*
X120473600Y-107337200D02*
X125013600Y-107337200D01*
X120448200Y-111071000D02*
X124988200Y-111071000D01*
X120448200Y-113211000D02*
X124988200Y-113211000D01*
X120448200Y-111071000D02*
X120448200Y-111086000D01*
X120448200Y-113196000D02*
X120448200Y-113211000D01*
X124988200Y-111071000D02*
X124988200Y-111086000D01*
X124988200Y-113196000D02*
X124988200Y-113211000D01*
X121139800Y-115346000D02*
X121139800Y-115166000D01*
X121139800Y-115166000D02*
X124579800Y-115166000D01*
X124579800Y-115166000D02*
X124579800Y-115346000D01*
X121139800Y-117826000D02*
X121139800Y-118006000D01*
X121139800Y-118006000D02*
X124579800Y-118006000D01*
X124579800Y-118006000D02*
X124579800Y-117826000D01*
X121739800Y-115166000D02*
X121739800Y-118006000D01*
X121859800Y-115166000D02*
X121859800Y-118006000D01*
X121619800Y-115166000D02*
X121619800Y-118006000D01*
X191617600Y-62204600D02*
X201777600Y-62204600D01*
X191617600Y-64744600D02*
X191617600Y-62204600D01*
X201777600Y-64744600D02*
X191617600Y-64744600D01*
X201777600Y-64744600D02*
X201777600Y-62204600D01*
X191139200Y-114557400D02*
X191139200Y-118157400D01*
X191150722Y-114518922D02*
G75*
G02X195589200Y-116357400I1838478J-1838478D01*
G01*
X191150722Y-118195878D02*
G75*
G03X195589200Y-116357400I1838478J1838478D01*
G01*
X183819800Y-117246400D02*
X177850800Y-117246400D01*
X183819800Y-115468400D02*
X177723800Y-115468400D01*
D10*
X202539838Y-75534780D02*
X202539838Y-74534780D01*
X202539838Y-75010971D02*
X203111266Y-75010971D01*
X203111266Y-75534780D02*
X203111266Y-74534780D01*
X203730314Y-75534780D02*
X203635076Y-75487161D01*
X203587457Y-75439542D01*
X203539838Y-75344304D01*
X203539838Y-75058590D01*
X203587457Y-74963352D01*
X203635076Y-74915733D01*
X203730314Y-74868114D01*
X203873171Y-74868114D01*
X203968409Y-74915733D01*
X204016028Y-74963352D01*
X204063647Y-75058590D01*
X204063647Y-75344304D01*
X204016028Y-75439542D01*
X203968409Y-75487161D01*
X203873171Y-75534780D01*
X203730314Y-75534780D01*
X204635076Y-75534780D02*
X204539838Y-75487161D01*
X204492219Y-75391923D01*
X204492219Y-74534780D01*
X205396980Y-75487161D02*
X205301742Y-75534780D01*
X205111266Y-75534780D01*
X205016028Y-75487161D01*
X204968409Y-75391923D01*
X204968409Y-75010971D01*
X205016028Y-74915733D01*
X205111266Y-74868114D01*
X205301742Y-74868114D01*
X205396980Y-74915733D01*
X205444600Y-75010971D01*
X205444600Y-75106209D01*
X204968409Y-75201447D01*
X206396980Y-75534780D02*
X205825552Y-75534780D01*
X206111266Y-75534780D02*
X206111266Y-74534780D01*
X206016028Y-74677638D01*
X205920790Y-74772876D01*
X205825552Y-74820495D01*
X163231533Y-64089780D02*
X162898200Y-63613590D01*
X162660104Y-64089780D02*
X162660104Y-63089780D01*
X163041057Y-63089780D01*
X163136295Y-63137400D01*
X163183914Y-63185019D01*
X163231533Y-63280257D01*
X163231533Y-63423114D01*
X163183914Y-63518352D01*
X163136295Y-63565971D01*
X163041057Y-63613590D01*
X162660104Y-63613590D01*
X164183914Y-64089780D02*
X163612485Y-64089780D01*
X163898200Y-64089780D02*
X163898200Y-63089780D01*
X163802961Y-63232638D01*
X163707723Y-63327876D01*
X163612485Y-63375495D01*
X142910580Y-98210666D02*
X142434390Y-98544000D01*
X142910580Y-98782095D02*
X141910580Y-98782095D01*
X141910580Y-98401142D01*
X141958200Y-98305904D01*
X142005819Y-98258285D01*
X142101057Y-98210666D01*
X142243914Y-98210666D01*
X142339152Y-98258285D01*
X142386771Y-98305904D01*
X142434390Y-98401142D01*
X142434390Y-98782095D01*
X141910580Y-97305904D02*
X141910580Y-97782095D01*
X142386771Y-97829714D01*
X142339152Y-97782095D01*
X142291533Y-97686857D01*
X142291533Y-97448761D01*
X142339152Y-97353523D01*
X142386771Y-97305904D01*
X142482009Y-97258285D01*
X142720104Y-97258285D01*
X142815342Y-97305904D01*
X142862961Y-97353523D01*
X142910580Y-97448761D01*
X142910580Y-97686857D01*
X142862961Y-97782095D01*
X142815342Y-97829714D01*
X142987733Y-106279180D02*
X142654400Y-105802990D01*
X142416304Y-106279180D02*
X142416304Y-105279180D01*
X142797257Y-105279180D01*
X142892495Y-105326800D01*
X142940114Y-105374419D01*
X142987733Y-105469657D01*
X142987733Y-105612514D01*
X142940114Y-105707752D01*
X142892495Y-105755371D01*
X142797257Y-105802990D01*
X142416304Y-105802990D01*
X143844876Y-105612514D02*
X143844876Y-106279180D01*
X143606780Y-105231561D02*
X143368685Y-105945847D01*
X143987733Y-105945847D01*
X170749933Y-114437180D02*
X170416600Y-113960990D01*
X170178504Y-114437180D02*
X170178504Y-113437180D01*
X170559457Y-113437180D01*
X170654695Y-113484800D01*
X170702314Y-113532419D01*
X170749933Y-113627657D01*
X170749933Y-113770514D01*
X170702314Y-113865752D01*
X170654695Y-113913371D01*
X170559457Y-113960990D01*
X170178504Y-113960990D01*
X171130885Y-113532419D02*
X171178504Y-113484800D01*
X171273742Y-113437180D01*
X171511838Y-113437180D01*
X171607076Y-113484800D01*
X171654695Y-113532419D01*
X171702314Y-113627657D01*
X171702314Y-113722895D01*
X171654695Y-113865752D01*
X171083266Y-114437180D01*
X171702314Y-114437180D01*
X180078285Y-87331466D02*
X180554476Y-87331466D01*
X179983047Y-87617180D02*
X180316380Y-86617180D01*
X180649714Y-87617180D01*
X180983047Y-87617180D02*
X180983047Y-86617180D01*
X181364000Y-86617180D01*
X181459238Y-86664800D01*
X181506857Y-86712419D01*
X181554476Y-86807657D01*
X181554476Y-86950514D01*
X181506857Y-87045752D01*
X181459238Y-87093371D01*
X181364000Y-87140990D01*
X180983047Y-87140990D01*
X181983047Y-87617180D02*
X181983047Y-86617180D01*
X182316380Y-87331466D01*
X182649714Y-86617180D01*
X182649714Y-87617180D01*
X183649714Y-87617180D02*
X183078285Y-87617180D01*
X183364000Y-87617180D02*
X183364000Y-86617180D01*
X183268761Y-86760038D01*
X183173523Y-86855276D01*
X183078285Y-86902895D01*
X165893979Y-101390858D02*
X164893979Y-101390858D01*
X164893979Y-101152762D01*
X164941599Y-101009905D01*
X165036837Y-100914667D01*
X165132075Y-100867048D01*
X165322551Y-100819429D01*
X165465408Y-100819429D01*
X165655884Y-100867048D01*
X165751122Y-100914667D01*
X165846360Y-101009905D01*
X165893979Y-101152762D01*
X165893979Y-101390858D01*
X165893979Y-100390858D02*
X164893979Y-100390858D01*
X165370170Y-100390858D02*
X165370170Y-99819429D01*
X165893979Y-99819429D02*
X164893979Y-99819429D01*
X164893979Y-99486096D02*
X164893979Y-98914667D01*
X165893979Y-99200381D02*
X164893979Y-99200381D01*
X165893979Y-98057524D02*
X165893979Y-98628953D01*
X165893979Y-98343239D02*
X164893979Y-98343239D01*
X165036837Y-98438477D01*
X165132075Y-98533715D01*
X165179694Y-98628953D01*
X163764980Y-106082933D02*
X164764980Y-105749600D01*
X163764980Y-105416266D01*
X164669742Y-104511504D02*
X164717361Y-104559123D01*
X164764980Y-104701980D01*
X164764980Y-104797219D01*
X164717361Y-104940076D01*
X164622123Y-105035314D01*
X164526885Y-105082933D01*
X164336409Y-105130552D01*
X164193552Y-105130552D01*
X164003076Y-105082933D01*
X163907838Y-105035314D01*
X163812600Y-104940076D01*
X163764980Y-104797219D01*
X163764980Y-104701980D01*
X163812600Y-104559123D01*
X163860219Y-104511504D01*
X164669742Y-103511504D02*
X164717361Y-103559123D01*
X164764980Y-103701980D01*
X164764980Y-103797219D01*
X164717361Y-103940076D01*
X164622123Y-104035314D01*
X164526885Y-104082933D01*
X164336409Y-104130552D01*
X164193552Y-104130552D01*
X164003076Y-104082933D01*
X163907838Y-104035314D01*
X163812600Y-103940076D01*
X163764980Y-103797219D01*
X163764980Y-103701980D01*
X163812600Y-103559123D01*
X163860219Y-103511504D01*
X163812600Y-95351504D02*
X163764980Y-95446742D01*
X163764980Y-95589600D01*
X163812600Y-95732457D01*
X163907838Y-95827695D01*
X164003076Y-95875314D01*
X164193552Y-95922933D01*
X164336409Y-95922933D01*
X164526885Y-95875314D01*
X164622123Y-95827695D01*
X164717361Y-95732457D01*
X164764980Y-95589600D01*
X164764980Y-95494361D01*
X164717361Y-95351504D01*
X164669742Y-95303885D01*
X164336409Y-95303885D01*
X164336409Y-95494361D01*
X164764980Y-94875314D02*
X163764980Y-94875314D01*
X164764980Y-94303885D01*
X163764980Y-94303885D01*
X164764980Y-93827695D02*
X163764980Y-93827695D01*
X163764980Y-93589600D01*
X163812600Y-93446742D01*
X163907838Y-93351504D01*
X164003076Y-93303885D01*
X164193552Y-93256266D01*
X164336409Y-93256266D01*
X164526885Y-93303885D01*
X164622123Y-93351504D01*
X164717361Y-93446742D01*
X164764980Y-93589600D01*
X164764980Y-93827695D01*
X198978780Y-81487733D02*
X197978780Y-81487733D01*
X197978780Y-81249638D01*
X198026400Y-81106780D01*
X198121638Y-81011542D01*
X198216876Y-80963923D01*
X198407352Y-80916304D01*
X198550209Y-80916304D01*
X198740685Y-80963923D01*
X198835923Y-81011542D01*
X198931161Y-81106780D01*
X198978780Y-81249638D01*
X198978780Y-81487733D01*
X198978780Y-80487733D02*
X197978780Y-80487733D01*
X198931161Y-80059161D02*
X198978780Y-79916304D01*
X198978780Y-79678209D01*
X198931161Y-79582971D01*
X198883542Y-79535352D01*
X198788304Y-79487733D01*
X198693066Y-79487733D01*
X198597828Y-79535352D01*
X198550209Y-79582971D01*
X198502590Y-79678209D01*
X198454971Y-79868685D01*
X198407352Y-79963923D01*
X198359733Y-80011542D01*
X198264495Y-80059161D01*
X198169257Y-80059161D01*
X198074019Y-80011542D01*
X198026400Y-79963923D01*
X197978780Y-79868685D01*
X197978780Y-79630590D01*
X198026400Y-79487733D01*
X197978780Y-79202019D02*
X197978780Y-78630590D01*
X198978780Y-78916304D02*
X197978780Y-78916304D01*
X198978780Y-77773447D02*
X198978780Y-78344876D01*
X198978780Y-78059161D02*
X197978780Y-78059161D01*
X198121638Y-78154400D01*
X198216876Y-78249638D01*
X198264495Y-78344876D01*
X194787780Y-83138780D02*
X193787780Y-83138780D01*
X193787780Y-82900685D01*
X193835400Y-82757828D01*
X193930638Y-82662590D01*
X194025876Y-82614971D01*
X194216352Y-82567352D01*
X194359209Y-82567352D01*
X194549685Y-82614971D01*
X194644923Y-82662590D01*
X194740161Y-82757828D01*
X194787780Y-82900685D01*
X194787780Y-83138780D01*
X194787780Y-81710209D02*
X194263971Y-81710209D01*
X194168733Y-81757828D01*
X194121114Y-81853066D01*
X194121114Y-82043542D01*
X194168733Y-82138780D01*
X194740161Y-81710209D02*
X194787780Y-81805447D01*
X194787780Y-82043542D01*
X194740161Y-82138780D01*
X194644923Y-82186400D01*
X194549685Y-82186400D01*
X194454447Y-82138780D01*
X194406828Y-82043542D01*
X194406828Y-81805447D01*
X194359209Y-81710209D01*
X194121114Y-81376876D02*
X194121114Y-80995923D01*
X193787780Y-81234019D02*
X194644923Y-81234019D01*
X194740161Y-81186400D01*
X194787780Y-81091161D01*
X194787780Y-80995923D01*
X194787780Y-80234019D02*
X194263971Y-80234019D01*
X194168733Y-80281638D01*
X194121114Y-80376876D01*
X194121114Y-80567352D01*
X194168733Y-80662590D01*
X194740161Y-80234019D02*
X194787780Y-80329257D01*
X194787780Y-80567352D01*
X194740161Y-80662590D01*
X194644923Y-80710209D01*
X194549685Y-80710209D01*
X194454447Y-80662590D01*
X194406828Y-80567352D01*
X194406828Y-80329257D01*
X194359209Y-80234019D01*
X193454400Y-78384304D02*
X193406780Y-78479542D01*
X193406780Y-78622400D01*
X193454400Y-78765257D01*
X193549638Y-78860495D01*
X193644876Y-78908114D01*
X193835352Y-78955733D01*
X193978209Y-78955733D01*
X194168685Y-78908114D01*
X194263923Y-78860495D01*
X194359161Y-78765257D01*
X194406780Y-78622400D01*
X194406780Y-78527161D01*
X194359161Y-78384304D01*
X194311542Y-78336685D01*
X193978209Y-78336685D01*
X193978209Y-78527161D01*
X194406780Y-77908114D02*
X193406780Y-77908114D01*
X194406780Y-77336685D01*
X193406780Y-77336685D01*
X194406780Y-76860495D02*
X193406780Y-76860495D01*
X193406780Y-76622400D01*
X193454400Y-76479542D01*
X193549638Y-76384304D01*
X193644876Y-76336685D01*
X193835352Y-76289066D01*
X193978209Y-76289066D01*
X194168685Y-76336685D01*
X194263923Y-76384304D01*
X194359161Y-76479542D01*
X194406780Y-76622400D01*
X194406780Y-76860495D01*
X187380714Y-53563780D02*
X187380714Y-52563780D01*
X187618809Y-52563780D01*
X187761666Y-52611400D01*
X187856904Y-52706638D01*
X187904523Y-52801876D01*
X187952142Y-52992352D01*
X187952142Y-53135209D01*
X187904523Y-53325685D01*
X187856904Y-53420923D01*
X187761666Y-53516161D01*
X187618809Y-53563780D01*
X187380714Y-53563780D01*
X188333095Y-53516161D02*
X188475952Y-53563780D01*
X188714047Y-53563780D01*
X188809285Y-53516161D01*
X188856904Y-53468542D01*
X188904523Y-53373304D01*
X188904523Y-53278066D01*
X188856904Y-53182828D01*
X188809285Y-53135209D01*
X188714047Y-53087590D01*
X188523571Y-53039971D01*
X188428333Y-52992352D01*
X188380714Y-52944733D01*
X188333095Y-52849495D01*
X188333095Y-52754257D01*
X188380714Y-52659019D01*
X188428333Y-52611400D01*
X188523571Y-52563780D01*
X188761666Y-52563780D01*
X188904523Y-52611400D01*
X189856904Y-53563780D02*
X189285476Y-53563780D01*
X189571190Y-53563780D02*
X189571190Y-52563780D01*
X189475952Y-52706638D01*
X189380714Y-52801876D01*
X189285476Y-52849495D01*
X159544000Y-60904380D02*
X159544000Y-59904380D01*
X159544000Y-60380571D02*
X160115428Y-60380571D01*
X160115428Y-60904380D02*
X160115428Y-59904380D01*
X160544000Y-60618666D02*
X161020190Y-60618666D01*
X160448761Y-60904380D02*
X160782095Y-59904380D01*
X161115428Y-60904380D01*
X161924952Y-60904380D02*
X161448761Y-60904380D01*
X161448761Y-59904380D01*
X162734476Y-60904380D02*
X162258285Y-60904380D01*
X162258285Y-59904380D01*
X163591619Y-60904380D02*
X163020190Y-60904380D01*
X163305904Y-60904380D02*
X163305904Y-59904380D01*
X163210666Y-60047238D01*
X163115428Y-60142476D01*
X163020190Y-60190095D01*
X162814095Y-55380000D02*
X162718857Y-55332380D01*
X162576000Y-55332380D01*
X162433142Y-55380000D01*
X162337904Y-55475238D01*
X162290285Y-55570476D01*
X162242666Y-55760952D01*
X162242666Y-55903809D01*
X162290285Y-56094285D01*
X162337904Y-56189523D01*
X162433142Y-56284761D01*
X162576000Y-56332380D01*
X162671238Y-56332380D01*
X162814095Y-56284761D01*
X162861714Y-56237142D01*
X162861714Y-55903809D01*
X162671238Y-55903809D01*
X163290285Y-56332380D02*
X163290285Y-55332380D01*
X163861714Y-56332380D01*
X163861714Y-55332380D01*
X164337904Y-56332380D02*
X164337904Y-55332380D01*
X164576000Y-55332380D01*
X164718857Y-55380000D01*
X164814095Y-55475238D01*
X164861714Y-55570476D01*
X164909333Y-55760952D01*
X164909333Y-55903809D01*
X164861714Y-56094285D01*
X164814095Y-56189523D01*
X164718857Y-56284761D01*
X164576000Y-56332380D01*
X164337904Y-56332380D01*
X158059619Y-56713380D02*
X158059619Y-55713380D01*
X158297714Y-55713380D01*
X158440571Y-55761000D01*
X158535809Y-55856238D01*
X158583428Y-55951476D01*
X158631047Y-56141952D01*
X158631047Y-56284809D01*
X158583428Y-56475285D01*
X158535809Y-56570523D01*
X158440571Y-56665761D01*
X158297714Y-56713380D01*
X158059619Y-56713380D01*
X159488190Y-56713380D02*
X159488190Y-56189571D01*
X159440571Y-56094333D01*
X159345333Y-56046714D01*
X159154857Y-56046714D01*
X159059619Y-56094333D01*
X159488190Y-56665761D02*
X159392952Y-56713380D01*
X159154857Y-56713380D01*
X159059619Y-56665761D01*
X159012000Y-56570523D01*
X159012000Y-56475285D01*
X159059619Y-56380047D01*
X159154857Y-56332428D01*
X159392952Y-56332428D01*
X159488190Y-56284809D01*
X159821523Y-56046714D02*
X160202476Y-56046714D01*
X159964380Y-55713380D02*
X159964380Y-56570523D01*
X160012000Y-56665761D01*
X160107238Y-56713380D01*
X160202476Y-56713380D01*
X160964380Y-56713380D02*
X160964380Y-56189571D01*
X160916761Y-56094333D01*
X160821523Y-56046714D01*
X160631047Y-56046714D01*
X160535809Y-56094333D01*
X160964380Y-56665761D02*
X160869142Y-56713380D01*
X160631047Y-56713380D01*
X160535809Y-56665761D01*
X160488190Y-56570523D01*
X160488190Y-56475285D01*
X160535809Y-56380047D01*
X160631047Y-56332428D01*
X160869142Y-56332428D01*
X160964380Y-56284809D01*
X170948600Y-105887780D02*
X170948600Y-104887780D01*
X170948600Y-105363971D02*
X171520028Y-105363971D01*
X171520028Y-105887780D02*
X171520028Y-104887780D01*
X171948600Y-105602066D02*
X172424790Y-105602066D01*
X171853361Y-105887780D02*
X172186695Y-104887780D01*
X172520028Y-105887780D01*
X173329552Y-105887780D02*
X172853361Y-105887780D01*
X172853361Y-104887780D01*
X174139076Y-105887780D02*
X173662885Y-105887780D01*
X173662885Y-104887780D01*
X174424790Y-104983019D02*
X174472409Y-104935400D01*
X174567647Y-104887780D01*
X174805742Y-104887780D01*
X174900980Y-104935400D01*
X174948600Y-104983019D01*
X174996219Y-105078257D01*
X174996219Y-105173495D01*
X174948600Y-105316352D01*
X174377171Y-105887780D01*
X174996219Y-105887780D01*
X173528219Y-110078780D02*
X173528219Y-109078780D01*
X173766314Y-109078780D01*
X173909171Y-109126400D01*
X174004409Y-109221638D01*
X174052028Y-109316876D01*
X174099647Y-109507352D01*
X174099647Y-109650209D01*
X174052028Y-109840685D01*
X174004409Y-109935923D01*
X173909171Y-110031161D01*
X173766314Y-110078780D01*
X173528219Y-110078780D01*
X174956790Y-110078780D02*
X174956790Y-109554971D01*
X174909171Y-109459733D01*
X174813933Y-109412114D01*
X174623457Y-109412114D01*
X174528219Y-109459733D01*
X174956790Y-110031161D02*
X174861552Y-110078780D01*
X174623457Y-110078780D01*
X174528219Y-110031161D01*
X174480600Y-109935923D01*
X174480600Y-109840685D01*
X174528219Y-109745447D01*
X174623457Y-109697828D01*
X174861552Y-109697828D01*
X174956790Y-109650209D01*
X175290123Y-109412114D02*
X175671076Y-109412114D01*
X175432980Y-109078780D02*
X175432980Y-109935923D01*
X175480600Y-110031161D01*
X175575838Y-110078780D01*
X175671076Y-110078780D01*
X176432980Y-110078780D02*
X176432980Y-109554971D01*
X176385361Y-109459733D01*
X176290123Y-109412114D01*
X176099647Y-109412114D01*
X176004409Y-109459733D01*
X176432980Y-110031161D02*
X176337742Y-110078780D01*
X176099647Y-110078780D01*
X176004409Y-110031161D01*
X175956790Y-109935923D01*
X175956790Y-109840685D01*
X176004409Y-109745447D01*
X176099647Y-109697828D01*
X176337742Y-109697828D01*
X176432980Y-109650209D01*
X170154695Y-109507400D02*
X170059457Y-109459780D01*
X169916600Y-109459780D01*
X169773742Y-109507400D01*
X169678504Y-109602638D01*
X169630885Y-109697876D01*
X169583266Y-109888352D01*
X169583266Y-110031209D01*
X169630885Y-110221685D01*
X169678504Y-110316923D01*
X169773742Y-110412161D01*
X169916600Y-110459780D01*
X170011838Y-110459780D01*
X170154695Y-110412161D01*
X170202314Y-110364542D01*
X170202314Y-110031209D01*
X170011838Y-110031209D01*
X170630885Y-110459780D02*
X170630885Y-109459780D01*
X171202314Y-110459780D01*
X171202314Y-109459780D01*
X171678504Y-110459780D02*
X171678504Y-109459780D01*
X171916600Y-109459780D01*
X172059457Y-109507400D01*
X172154695Y-109602638D01*
X172202314Y-109697876D01*
X172249933Y-109888352D01*
X172249933Y-110031209D01*
X172202314Y-110221685D01*
X172154695Y-110316923D01*
X172059457Y-110412161D01*
X171916600Y-110459780D01*
X171678504Y-110459780D01*
X125969780Y-53139933D02*
X126684066Y-53139933D01*
X126826923Y-53187552D01*
X126922161Y-53282790D01*
X126969780Y-53425647D01*
X126969780Y-53520885D01*
X126969780Y-52139933D02*
X126969780Y-52711361D01*
X126969780Y-52425647D02*
X125969780Y-52425647D01*
X126112638Y-52520885D01*
X126207876Y-52616123D01*
X126255495Y-52711361D01*
X126198380Y-68303733D02*
X126912666Y-68303733D01*
X127055523Y-68351352D01*
X127150761Y-68446590D01*
X127198380Y-68589447D01*
X127198380Y-68684685D01*
X126293619Y-67875161D02*
X126246000Y-67827542D01*
X126198380Y-67732304D01*
X126198380Y-67494209D01*
X126246000Y-67398971D01*
X126293619Y-67351352D01*
X126388857Y-67303733D01*
X126484095Y-67303733D01*
X126626952Y-67351352D01*
X127198380Y-67922780D01*
X127198380Y-67303733D01*
X198097780Y-103247390D02*
X197097780Y-103247390D01*
X197812066Y-102914057D01*
X197097780Y-102580723D01*
X198097780Y-102580723D01*
X198097780Y-102104533D02*
X197431114Y-102104533D01*
X197097780Y-102104533D02*
X197145400Y-102152152D01*
X197193019Y-102104533D01*
X197145400Y-102056914D01*
X197097780Y-102104533D01*
X197193019Y-102104533D01*
X198050161Y-101199771D02*
X198097780Y-101295009D01*
X198097780Y-101485485D01*
X198050161Y-101580723D01*
X198002542Y-101628342D01*
X197907304Y-101675961D01*
X197621590Y-101675961D01*
X197526352Y-101628342D01*
X197478733Y-101580723D01*
X197431114Y-101485485D01*
X197431114Y-101295009D01*
X197478733Y-101199771D01*
X198097780Y-100771200D02*
X197431114Y-100771200D01*
X197621590Y-100771200D02*
X197526352Y-100723580D01*
X197478733Y-100675961D01*
X197431114Y-100580723D01*
X197431114Y-100485485D01*
X198097780Y-100009295D02*
X198050161Y-100104533D01*
X198002542Y-100152152D01*
X197907304Y-100199771D01*
X197621590Y-100199771D01*
X197526352Y-100152152D01*
X197478733Y-100104533D01*
X197431114Y-100009295D01*
X197431114Y-99866438D01*
X197478733Y-99771200D01*
X197526352Y-99723580D01*
X197621590Y-99675961D01*
X197907304Y-99675961D01*
X198002542Y-99723580D01*
X198050161Y-99771200D01*
X198097780Y-99866438D01*
X198097780Y-100009295D01*
X198193019Y-99485485D02*
X198193019Y-98723580D01*
X198050161Y-98533104D02*
X198097780Y-98437866D01*
X198097780Y-98247390D01*
X198050161Y-98152152D01*
X197954923Y-98104533D01*
X197907304Y-98104533D01*
X197812066Y-98152152D01*
X197764447Y-98247390D01*
X197764447Y-98390247D01*
X197716828Y-98485485D01*
X197621590Y-98533104D01*
X197573971Y-98533104D01*
X197478733Y-98485485D01*
X197431114Y-98390247D01*
X197431114Y-98247390D01*
X197478733Y-98152152D01*
X198097780Y-97247390D02*
X197097780Y-97247390D01*
X198050161Y-97247390D02*
X198097780Y-97342628D01*
X198097780Y-97533104D01*
X198050161Y-97628342D01*
X198002542Y-97675961D01*
X197907304Y-97723580D01*
X197621590Y-97723580D01*
X197526352Y-97675961D01*
X197478733Y-97628342D01*
X197431114Y-97533104D01*
X197431114Y-97342628D01*
X197478733Y-97247390D01*
X198097780Y-96247390D02*
X198097780Y-96818819D01*
X198097780Y-96533104D02*
X197097780Y-96533104D01*
X197240638Y-96628342D01*
X197335876Y-96723580D01*
X197383495Y-96818819D01*
X143975295Y-56835561D02*
X144118152Y-56883180D01*
X144356247Y-56883180D01*
X144451485Y-56835561D01*
X144499104Y-56787942D01*
X144546723Y-56692704D01*
X144546723Y-56597466D01*
X144499104Y-56502228D01*
X144451485Y-56454609D01*
X144356247Y-56406990D01*
X144165771Y-56359371D01*
X144070533Y-56311752D01*
X144022914Y-56264133D01*
X143975295Y-56168895D01*
X143975295Y-56073657D01*
X144022914Y-55978419D01*
X144070533Y-55930800D01*
X144165771Y-55883180D01*
X144403866Y-55883180D01*
X144546723Y-55930800D01*
X144975295Y-56883180D02*
X144975295Y-55883180D01*
X145213390Y-55883180D01*
X145356247Y-55930800D01*
X145451485Y-56026038D01*
X145499104Y-56121276D01*
X145546723Y-56311752D01*
X145546723Y-56454609D01*
X145499104Y-56645085D01*
X145451485Y-56740323D01*
X145356247Y-56835561D01*
X145213390Y-56883180D01*
X144975295Y-56883180D01*
X146499104Y-56883180D02*
X145927676Y-56883180D01*
X146213390Y-56883180D02*
X146213390Y-55883180D01*
X146118152Y-56026038D01*
X146022914Y-56121276D01*
X145927676Y-56168895D01*
X143564171Y-90676361D02*
X143707028Y-90723980D01*
X143945123Y-90723980D01*
X144040361Y-90676361D01*
X144087980Y-90628742D01*
X144135600Y-90533504D01*
X144135600Y-90438266D01*
X144087980Y-90343028D01*
X144040361Y-90295409D01*
X143945123Y-90247790D01*
X143754647Y-90200171D01*
X143659409Y-90152552D01*
X143611790Y-90104933D01*
X143564171Y-90009695D01*
X143564171Y-89914457D01*
X143611790Y-89819219D01*
X143659409Y-89771600D01*
X143754647Y-89723980D01*
X143992742Y-89723980D01*
X144135600Y-89771600D01*
X144564171Y-90723980D02*
X144564171Y-89723980D01*
X145040361Y-90723980D02*
X145040361Y-89723980D01*
X145373695Y-90438266D01*
X145707028Y-89723980D01*
X145707028Y-90723980D01*
X146707028Y-90723980D02*
X146135600Y-90723980D01*
X146421314Y-90723980D02*
X146421314Y-89723980D01*
X146326076Y-89866838D01*
X146230838Y-89962076D01*
X146135600Y-90009695D01*
X117430561Y-85562914D02*
X117478180Y-85420057D01*
X117478180Y-85181961D01*
X117430561Y-85086723D01*
X117382942Y-85039104D01*
X117287704Y-84991485D01*
X117192466Y-84991485D01*
X117097228Y-85039104D01*
X117049609Y-85086723D01*
X117001990Y-85181961D01*
X116954371Y-85372438D01*
X116906752Y-85467676D01*
X116859133Y-85515295D01*
X116763895Y-85562914D01*
X116668657Y-85562914D01*
X116573419Y-85515295D01*
X116525800Y-85467676D01*
X116478180Y-85372438D01*
X116478180Y-85134342D01*
X116525800Y-84991485D01*
X116478180Y-84562914D02*
X117287704Y-84562914D01*
X117382942Y-84515295D01*
X117430561Y-84467676D01*
X117478180Y-84372438D01*
X117478180Y-84181961D01*
X117430561Y-84086723D01*
X117382942Y-84039104D01*
X117287704Y-83991485D01*
X116478180Y-83991485D01*
X117478180Y-82991485D02*
X117478180Y-83562914D01*
X117478180Y-83277200D02*
X116478180Y-83277200D01*
X116621038Y-83372438D01*
X116716276Y-83467676D01*
X116763895Y-83562914D01*
X143035495Y-77489180D02*
X143606923Y-77489180D01*
X143321209Y-78489180D02*
X143321209Y-77489180D01*
X143940257Y-78489180D02*
X143940257Y-77489180D01*
X144321209Y-77489180D01*
X144416447Y-77536800D01*
X144464066Y-77584419D01*
X144511685Y-77679657D01*
X144511685Y-77822514D01*
X144464066Y-77917752D01*
X144416447Y-77965371D01*
X144321209Y-78012990D01*
X143940257Y-78012990D01*
X145464066Y-78489180D02*
X144892638Y-78489180D01*
X145178352Y-78489180D02*
X145178352Y-77489180D01*
X145083114Y-77632038D01*
X144987876Y-77727276D01*
X144892638Y-77774895D01*
X122272133Y-90296942D02*
X122224514Y-90344561D01*
X122081657Y-90392180D01*
X121986419Y-90392180D01*
X121843561Y-90344561D01*
X121748323Y-90249323D01*
X121700704Y-90154085D01*
X121653085Y-89963609D01*
X121653085Y-89820752D01*
X121700704Y-89630276D01*
X121748323Y-89535038D01*
X121843561Y-89439800D01*
X121986419Y-89392180D01*
X122081657Y-89392180D01*
X122224514Y-89439800D01*
X122272133Y-89487419D01*
X123224514Y-90392180D02*
X122653085Y-90392180D01*
X122938800Y-90392180D02*
X122938800Y-89392180D01*
X122843561Y-89535038D01*
X122748323Y-89630276D01*
X122653085Y-89677895D01*
X122551533Y-102906742D02*
X122503914Y-102954361D01*
X122361057Y-103001980D01*
X122265819Y-103001980D01*
X122122961Y-102954361D01*
X122027723Y-102859123D01*
X121980104Y-102763885D01*
X121932485Y-102573409D01*
X121932485Y-102430552D01*
X121980104Y-102240076D01*
X122027723Y-102144838D01*
X122122961Y-102049600D01*
X122265819Y-102001980D01*
X122361057Y-102001980D01*
X122503914Y-102049600D01*
X122551533Y-102097219D01*
X122932485Y-102097219D02*
X122980104Y-102049600D01*
X123075342Y-102001980D01*
X123313438Y-102001980D01*
X123408676Y-102049600D01*
X123456295Y-102097219D01*
X123503914Y-102192457D01*
X123503914Y-102287695D01*
X123456295Y-102430552D01*
X122884866Y-103001980D01*
X123503914Y-103001980D01*
X122576933Y-106564342D02*
X122529314Y-106611961D01*
X122386457Y-106659580D01*
X122291219Y-106659580D01*
X122148361Y-106611961D01*
X122053123Y-106516723D01*
X122005504Y-106421485D01*
X121957885Y-106231009D01*
X121957885Y-106088152D01*
X122005504Y-105897676D01*
X122053123Y-105802438D01*
X122148361Y-105707200D01*
X122291219Y-105659580D01*
X122386457Y-105659580D01*
X122529314Y-105707200D01*
X122576933Y-105754819D01*
X122910266Y-105659580D02*
X123529314Y-105659580D01*
X123195980Y-106040533D01*
X123338838Y-106040533D01*
X123434076Y-106088152D01*
X123481695Y-106135771D01*
X123529314Y-106231009D01*
X123529314Y-106469104D01*
X123481695Y-106564342D01*
X123434076Y-106611961D01*
X123338838Y-106659580D01*
X123053123Y-106659580D01*
X122957885Y-106611961D01*
X122910266Y-106564342D01*
X122551533Y-110298142D02*
X122503914Y-110345761D01*
X122361057Y-110393380D01*
X122265819Y-110393380D01*
X122122961Y-110345761D01*
X122027723Y-110250523D01*
X121980104Y-110155285D01*
X121932485Y-109964809D01*
X121932485Y-109821952D01*
X121980104Y-109631476D01*
X122027723Y-109536238D01*
X122122961Y-109441000D01*
X122265819Y-109393380D01*
X122361057Y-109393380D01*
X122503914Y-109441000D01*
X122551533Y-109488619D01*
X123408676Y-109726714D02*
X123408676Y-110393380D01*
X123170580Y-109345761D02*
X122932485Y-110060047D01*
X123551533Y-110060047D01*
X122121704Y-114618380D02*
X122121704Y-113618380D01*
X122359800Y-113618380D01*
X122502657Y-113666000D01*
X122597895Y-113761238D01*
X122645514Y-113856476D01*
X122693133Y-114046952D01*
X122693133Y-114189809D01*
X122645514Y-114380285D01*
X122597895Y-114475523D01*
X122502657Y-114570761D01*
X122359800Y-114618380D01*
X122121704Y-114618380D01*
X123645514Y-114618380D02*
X123074085Y-114618380D01*
X123359800Y-114618380D02*
X123359800Y-113618380D01*
X123264561Y-113761238D01*
X123169323Y-113856476D01*
X123074085Y-113904095D01*
X120057895Y-115038380D02*
X120057895Y-114038380D01*
X120629323Y-115038380D02*
X120200752Y-114466952D01*
X120629323Y-114038380D02*
X120057895Y-114609809D01*
X195935695Y-60259980D02*
X195935695Y-61069504D01*
X195983314Y-61164742D01*
X196030933Y-61212361D01*
X196126171Y-61259980D01*
X196316647Y-61259980D01*
X196411885Y-61212361D01*
X196459504Y-61164742D01*
X196507123Y-61069504D01*
X196507123Y-60259980D01*
X197507123Y-61259980D02*
X196935695Y-61259980D01*
X197221409Y-61259980D02*
X197221409Y-60259980D01*
X197126171Y-60402838D01*
X197030933Y-60498076D01*
X196935695Y-60545695D01*
X188633266Y-62926980D02*
X188966600Y-63926980D01*
X189299933Y-62926980D01*
X190204695Y-63831742D02*
X190157076Y-63879361D01*
X190014219Y-63926980D01*
X189918980Y-63926980D01*
X189776123Y-63879361D01*
X189680885Y-63784123D01*
X189633266Y-63688885D01*
X189585647Y-63498409D01*
X189585647Y-63355552D01*
X189633266Y-63165076D01*
X189680885Y-63069838D01*
X189776123Y-62974600D01*
X189918980Y-62926980D01*
X190014219Y-62926980D01*
X190157076Y-62974600D01*
X190204695Y-63022219D01*
X191204695Y-63831742D02*
X191157076Y-63879361D01*
X191014219Y-63926980D01*
X190918980Y-63926980D01*
X190776123Y-63879361D01*
X190680885Y-63784123D01*
X190633266Y-63688885D01*
X190585647Y-63498409D01*
X190585647Y-63355552D01*
X190633266Y-63165076D01*
X190680885Y-63069838D01*
X190776123Y-62974600D01*
X190918980Y-62926980D01*
X191014219Y-62926980D01*
X191157076Y-62974600D01*
X191204695Y-63022219D01*
X194586314Y-62117266D02*
X195062504Y-62117266D01*
X194491076Y-62402980D02*
X194824409Y-61402980D01*
X195157742Y-62402980D01*
X195681552Y-61402980D02*
X195776790Y-61402980D01*
X195872028Y-61450600D01*
X195919647Y-61498219D01*
X195967266Y-61593457D01*
X196014885Y-61783933D01*
X196014885Y-62022028D01*
X195967266Y-62212504D01*
X195919647Y-62307742D01*
X195872028Y-62355361D01*
X195776790Y-62402980D01*
X195681552Y-62402980D01*
X195586314Y-62355361D01*
X195538695Y-62307742D01*
X195491076Y-62212504D01*
X195443457Y-62022028D01*
X195443457Y-61783933D01*
X195491076Y-61593457D01*
X195538695Y-61498219D01*
X195586314Y-61450600D01*
X195681552Y-61402980D01*
X202793695Y-62974600D02*
X202698457Y-62926980D01*
X202555600Y-62926980D01*
X202412742Y-62974600D01*
X202317504Y-63069838D01*
X202269885Y-63165076D01*
X202222266Y-63355552D01*
X202222266Y-63498409D01*
X202269885Y-63688885D01*
X202317504Y-63784123D01*
X202412742Y-63879361D01*
X202555600Y-63926980D01*
X202650838Y-63926980D01*
X202793695Y-63879361D01*
X202841314Y-63831742D01*
X202841314Y-63498409D01*
X202650838Y-63498409D01*
X203269885Y-63926980D02*
X203269885Y-62926980D01*
X203841314Y-63926980D01*
X203841314Y-62926980D01*
X204317504Y-63926980D02*
X204317504Y-62926980D01*
X204555600Y-62926980D01*
X204698457Y-62974600D01*
X204793695Y-63069838D01*
X204841314Y-63165076D01*
X204888933Y-63355552D01*
X204888933Y-63498409D01*
X204841314Y-63688885D01*
X204793695Y-63784123D01*
X204698457Y-63879361D01*
X204555600Y-63926980D01*
X204317504Y-63926980D01*
X197096819Y-116452638D02*
X197049200Y-116547876D01*
X196953961Y-116643114D01*
X196811104Y-116785971D01*
X196763485Y-116881209D01*
X196763485Y-116976447D01*
X197001580Y-116928828D02*
X196953961Y-117024066D01*
X196858723Y-117119304D01*
X196668247Y-117166923D01*
X196334914Y-117166923D01*
X196144438Y-117119304D01*
X196049200Y-117024066D01*
X196001580Y-116928828D01*
X196001580Y-116738352D01*
X196049200Y-116643114D01*
X196144438Y-116547876D01*
X196334914Y-116500257D01*
X196668247Y-116500257D01*
X196858723Y-116547876D01*
X196953961Y-116643114D01*
X197001580Y-116738352D01*
X197001580Y-116928828D01*
X197001580Y-115547876D02*
X197001580Y-116119304D01*
X197001580Y-115833590D02*
X196001580Y-115833590D01*
X196144438Y-115928828D01*
X196239676Y-116024066D01*
X196287295Y-116119304D01*
X179970133Y-118587780D02*
X179636800Y-118111590D01*
X179398704Y-118587780D02*
X179398704Y-117587780D01*
X179779657Y-117587780D01*
X179874895Y-117635400D01*
X179922514Y-117683019D01*
X179970133Y-117778257D01*
X179970133Y-117921114D01*
X179922514Y-118016352D01*
X179874895Y-118063971D01*
X179779657Y-118111590D01*
X179398704Y-118111590D01*
X180303466Y-117587780D02*
X180970133Y-117587780D01*
X180541561Y-118587780D01*
M02*
